<svg width="110" height="49" viewBox="0 0 110 49" fill="none" xmlns="http://www.w3.org/2000/svg">
<rect width="49" height="49" fill="#F54748"/>
<path d="M18.9376 11.38V14.02H14.7676V15.49H17.7676V17.995H14.7676V22H11.4376V11.38H18.9376Z" fill="white"/>
<path d="M15.175 30.6342C16.285 30.6342 17.255 30.8592 18.085 31.3092C18.925 31.7592 19.57 32.3842 20.02 33.1842C20.47 33.9842 20.695 34.8942 20.695 35.9142C20.695 36.9242 20.47 37.8342 20.02 38.6442C19.57 39.4542 18.925 40.0942 18.085 40.5642C17.255 41.0242 16.285 41.2542 15.175 41.2542H10.75V30.6342H15.175ZM14.875 38.2842C15.625 38.2842 16.22 38.0792 16.66 37.6692C17.1 37.2592 17.32 36.6742 17.32 35.9142C17.32 35.1542 17.1 34.5692 16.66 34.1592C16.22 33.7492 15.625 33.5442 14.875 33.5442H14.08V38.2842H14.875Z" fill="white"/>
<path d="M34.4915 41.3592C33.4915 41.3592 32.5715 41.1242 31.7315 40.6542C30.9015 40.1842 30.2415 39.5342 29.7515 38.7042C29.2615 37.8742 29.0165 36.9392 29.0165 35.8992C29.0165 34.8592 29.2615 33.9242 29.7515 33.0942C30.2415 32.2642 30.9015 31.6192 31.7315 31.1592C32.5715 30.6892 33.4915 30.4542 34.4915 30.4542C35.4915 30.4542 36.4065 30.6892 37.2365 31.1592C38.0665 31.6192 38.7215 32.2642 39.2015 33.0942C39.6915 33.9242 39.9365 34.8592 39.9365 35.8992C39.9365 36.9392 39.6915 37.8742 39.2015 38.7042C38.7215 39.5342 38.0615 40.1842 37.2215 40.6542C36.3915 41.1242 35.4815 41.3592 34.4915 41.3592ZM34.4915 38.2542C35.1515 38.2542 35.6615 38.0442 36.0215 37.6242C36.3815 37.1942 36.5615 36.6192 36.5615 35.8992C36.5615 35.1692 36.3815 34.5942 36.0215 34.1742C35.6615 33.7442 35.1515 33.5292 34.4915 33.5292C33.8215 33.5292 33.3065 33.7442 32.9465 34.1742C32.5865 34.5942 32.4065 35.1692 32.4065 35.8992C32.4065 36.6192 32.5865 37.1942 32.9465 37.6242C33.3065 38.0442 33.8215 38.2542 34.4915 38.2542Z" fill="white"/>
<path d="M33.2592 11.38V17.365C33.2592 17.855 33.3642 18.245 33.5742 18.535C33.7942 18.815 34.1442 18.955 34.6242 18.955C35.1042 18.955 35.4592 18.815 35.6892 18.535C35.9192 18.245 36.0342 17.855 36.0342 17.365V11.38H39.3492V17.365C39.3492 18.375 39.1392 19.24 38.7192 19.96C38.2992 20.67 37.7242 21.205 36.9942 21.565C36.2642 21.925 35.4492 22.105 34.5492 22.105C33.6492 22.105 32.8492 21.925 32.1492 21.565C31.4592 21.205 30.9192 20.67 30.5292 19.96C30.1392 19.25 29.9442 18.385 29.9442 17.365V11.38H33.2592Z" fill="white"/>
<path d="M61.4973 32.198C60.9399 32.198 60.5073 32.044 60.1993 31.736C59.9059 31.428 59.7593 30.9807 59.7593 30.394V18.272C59.7593 17.7 59.9133 17.26 60.2213 16.952C60.5293 16.644 60.9693 16.49 61.5413 16.49H69.0653C69.5053 16.49 69.8353 16.6073 70.0553 16.842C70.2899 17.062 70.4073 17.3847 70.4073 17.81C70.4073 18.25 70.2899 18.5873 70.0553 18.822C69.8353 19.042 69.5053 19.152 69.0653 19.152H63.1693V22.936H68.5813C69.0213 22.936 69.3586 23.0533 69.5933 23.288C69.8279 23.508 69.9453 23.8307 69.9453 24.256C69.9453 24.6813 69.8279 25.0113 69.5933 25.246C69.3586 25.4807 69.0213 25.598 68.5813 25.598H63.1693V30.394C63.1693 31.5967 62.6119 32.198 61.4973 32.198ZM75.7014 32.242C74.792 32.242 74.0367 32.0733 73.4354 31.736C72.834 31.3987 72.3867 30.8927 72.0934 30.218C71.8147 29.5287 71.6754 28.678 71.6754 27.666V22.694C71.6754 22.1367 71.8147 21.7187 72.0934 21.44C72.3867 21.1613 72.7974 21.022 73.3254 21.022C73.8534 21.022 74.264 21.1613 74.5574 21.44C74.8507 21.7187 74.9974 22.1367 74.9974 22.694V27.754C74.9974 28.3993 75.1294 28.8833 75.3934 29.206C75.6574 29.514 76.0754 29.668 76.6474 29.668C77.278 29.668 77.7914 29.448 78.1874 29.008C78.598 28.5533 78.8034 27.9593 78.8034 27.226V22.694C78.8034 22.1367 78.9427 21.7187 79.2214 21.44C79.5147 21.1613 79.9254 21.022 80.4534 21.022C80.996 21.022 81.4067 21.1613 81.6854 21.44C81.9787 21.7187 82.1254 22.1367 82.1254 22.694V30.504C82.1254 31.6333 81.59 32.198 80.5194 32.198C79.9914 32.198 79.588 32.0513 79.3094 31.758C79.0307 31.4647 78.8914 31.0467 78.8914 30.504V29.03L79.2214 29.888C78.8987 30.636 78.4367 31.2153 77.8354 31.626C77.234 32.0367 76.5227 32.242 75.7014 32.242ZM88.8979 32.242C87.9593 32.242 87.1306 32.0147 86.4119 31.56C85.7079 31.1053 85.1579 30.4527 84.7619 29.602C84.3659 28.7513 84.1679 27.7467 84.1679 26.588C84.1679 25.4293 84.3659 24.432 84.7619 23.596C85.1579 22.76 85.7079 22.1147 86.4119 21.66C87.1306 21.2053 87.9593 20.978 88.8979 20.978C89.7486 20.978 90.4966 21.1833 91.1419 21.594C91.8019 22.0047 92.2493 22.54 92.4839 23.2H92.2419V17.986C92.2419 17.4287 92.3813 17.0107 92.6599 16.732C92.9386 16.4387 93.3493 16.292 93.8919 16.292C94.4199 16.292 94.8306 16.4387 95.1239 16.732C95.4173 17.0107 95.5639 17.4287 95.5639 17.986V30.504C95.5639 31.0467 95.4173 31.4647 95.1239 31.758C94.8453 32.0513 94.4419 32.198 93.9139 32.198C93.3859 32.198 92.9753 32.0513 92.6819 31.758C92.4033 31.4647 92.2639 31.0467 92.2639 30.504V29.008L92.5059 29.866C92.3006 30.5847 91.8606 31.164 91.1859 31.604C90.5259 32.0293 89.7633 32.242 88.8979 32.242ZM89.8879 29.756C90.3719 29.756 90.7899 29.6387 91.1419 29.404C91.4939 29.1693 91.7726 28.8247 91.9779 28.37C92.1833 27.9007 92.2859 27.3067 92.2859 26.588C92.2859 25.5173 92.0659 24.7327 91.6259 24.234C91.1859 23.7207 90.6066 23.464 89.8879 23.464C89.4186 23.464 89.0006 23.574 88.6339 23.794C88.2819 24.014 88.0033 24.3587 87.7979 24.828C87.6073 25.2827 87.5119 25.8693 87.5119 26.588C87.5119 27.6587 87.7319 28.458 88.1719 28.986C88.6119 29.4993 89.1839 29.756 89.8879 29.756ZM103.316 32.242C102.157 32.242 101.145 32.0147 100.28 31.56C99.429 31.1053 98.769 30.4527 98.2997 29.602C97.8303 28.7513 97.5957 27.7467 97.5957 26.588C97.5957 25.7227 97.7277 24.9453 97.9917 24.256C98.2557 23.5667 98.637 22.98 99.1357 22.496C99.649 21.9973 100.258 21.6233 100.962 21.374C101.666 21.11 102.45 20.978 103.316 20.978C104.474 20.978 105.479 21.2053 106.33 21.66C107.195 22.1147 107.862 22.76 108.332 23.596C108.816 24.432 109.058 25.4293 109.058 26.588C109.058 27.468 108.918 28.2527 108.64 28.942C108.376 29.6313 107.994 30.2253 107.496 30.724C106.997 31.2227 106.388 31.604 105.67 31.868C104.966 32.1173 104.181 32.242 103.316 32.242ZM103.316 29.756C103.8 29.756 104.218 29.6387 104.57 29.404C104.922 29.1693 105.2 28.8247 105.406 28.37C105.611 27.9007 105.714 27.3067 105.714 26.588C105.714 25.5173 105.494 24.7327 105.054 24.234C104.614 23.7207 104.034 23.464 103.316 23.464C102.846 23.464 102.428 23.574 102.062 23.794C101.71 24.014 101.431 24.3587 101.226 24.828C101.035 25.2827 100.94 25.8693 100.94 26.588C100.94 27.6587 101.16 28.458 101.6 28.986C102.04 29.4993 102.612 29.756 103.316 29.756Z" fill="#222021"/>
</svg>
