<svg width="250" height="300" viewBox="0 0 250 300" fill="none" xmlns="http://www.w3.org/2000/svg">
<path opacity="0.1" d="M111.644 1.76814C111.644 1.66498 111.644 1.56182 111.594 1.46554C111.545 1.36926 111.594 1.32799 111.545 1.25922C111.547 1.24325 111.547 1.22705 111.545 1.21108C111.533 1.16388 111.516 1.11785 111.495 1.07353C111.499 1.04847 111.499 1.02295 111.495 0.997885C111.476 0.94565 111.453 0.895047 111.425 0.846587C111.373 0.737749 111.306 0.636016 111.227 0.543987C111.198 0.504203 111.165 0.467343 111.128 0.433951C111.096 0.394359 111.058 0.359603 111.015 0.330795C110.956 0.281792 110.892 0.23806 110.824 0.200125L110.711 0.13823C110.372 0.0137156 110.006 -0.0275751 109.646 0.0179997C109.286 0.0635745 108.944 0.194615 108.648 0.399566L2.98668 59.702C2.07476 60.2541 1.32511 61.0264 0.810575 61.9439C0.732573 62.0672 0.664086 62.1959 0.605681 62.3291C0.549159 62.4322 0.499701 62.5354 0.450244 62.6385C0.386478 62.7685 0.329877 62.9016 0.280678 63.0374C0.224156 63.175 0.181761 63.3125 0.139369 63.4501C0.0969775 63.5876 0.0828464 63.6495 0.0616506 63.7527C0.0553418 63.7752 0.0553418 63.7989 0.0616506 63.8214C0.0616506 63.9108 0.0192629 64.0002 0.00513233 64.0896C0.00172789 64.1492 0.00172789 64.2089 0.00513233 64.2685C0.00513233 64.351 0.00513233 64.4266 0.00513233 64.5092C-0.00171078 64.6374 -0.00171078 64.766 0.00513233 64.8943V245.766C0.00513233 245.876 0.00513233 245.972 0.00513233 246.075C0.00513233 246.178 0.00513233 246.254 0.00513233 246.343C0.0188069 246.439 0.0400639 246.533 0.0687174 246.625L0.111107 246.763C0.13036 246.824 0.153973 246.884 0.181765 246.942C0.267135 247.14 0.391997 247.32 0.549157 247.471L0.662205 247.581L0.739918 247.629L0.852965 247.691C0.978141 247.757 1.11098 247.808 1.24862 247.843H1.41112H1.61602C2.11626 247.829 2.6039 247.687 3.02908 247.43L108.599 188.196C109.495 187.628 110.242 186.861 110.777 185.959C111.312 185.057 111.621 184.044 111.679 183.004V2.13263C111.658 1.99508 111.651 1.87817 111.644 1.76814Z" fill="black"/>
<path d="M118.271 5.44064C118.271 5.33748 118.271 5.23432 118.222 5.13804C118.172 5.04176 118.222 5.00049 118.172 4.93172C118.175 4.91575 118.175 4.89955 118.172 4.88358C118.16 4.83638 118.144 4.79035 118.123 4.74604C118.127 4.72097 118.127 4.69545 118.123 4.67039C118.104 4.61815 118.08 4.56755 118.052 4.51909C118 4.41025 117.934 4.30852 117.854 4.21649C117.825 4.1767 117.792 4.13984 117.755 4.10645C117.723 4.06686 117.685 4.0321 117.642 4.0033C117.583 3.95429 117.519 3.91056 117.452 3.87263L117.339 3.81073C116.682 3.43248 115.028 2.50406 114.548 2.23584C114.202 2.07948 113.82 2.01676 113.44 2.05428C113.061 2.0918 112.699 2.22817 112.393 2.44904L6.73147 61.7514C5.81919 62.3053 5.06764 63.0771 4.5483 63.9934C4.40671 64.2255 4.2816 64.4668 4.17383 64.7155C4.06785 64.9631 3.96894 65.2107 3.89122 65.4583L3.78524 65.8365C3.69964 66.1998 3.65463 66.571 3.651 66.9438V247.815C3.651 247.904 3.651 247.994 3.651 248.076C3.651 248.159 3.651 248.241 3.651 248.317L3.69339 248.544C3.70472 248.617 3.72366 248.688 3.74991 248.757C3.80764 248.928 3.8859 249.092 3.98307 249.245C4.07557 249.388 4.1927 249.513 4.32927 249.617C4.38588 249.664 4.44745 249.706 4.51297 249.741L5.04286 250.036L5.97548 250.566L6.93636 251.102L7.20484 251.254L7.28256 251.302L7.39561 251.364C7.52078 251.429 7.65362 251.48 7.79126 251.515H7.95377H8.15865C8.6589 251.502 9.14653 251.359 9.57171 251.102L115.205 191.869C116.102 191.3 116.848 190.534 117.383 189.631C117.919 188.729 118.228 187.717 118.285 186.676V5.80513C118.285 5.66759 118.278 5.55067 118.271 5.44064ZM23.4409 66.2491C23.437 66.1781 23.437 66.107 23.4409 66.036C23.4409 65.9466 23.4409 65.8572 23.4409 65.7609C23.498 64.7054 23.8107 63.6779 24.3534 62.7624C24.8961 61.8469 25.6535 61.0693 26.5637 60.4929L26.7828 60.3829C26.9512 60.3027 27.1261 60.236 27.3056 60.1834H27.4045C27.4835 60.4706 27.5238 60.7665 27.5246 61.0637C27.4647 62.1177 27.1508 63.1431 26.6083 64.0571C26.0658 64.971 25.3099 65.7479 24.4018 66.3248C24.1357 66.4748 23.8507 66.5904 23.5539 66.6687C23.5029 66.5326 23.465 66.3921 23.4409 66.2491ZM93.8112 26.1961C93.8686 25.1415 94.1807 24.1149 94.7221 23.1996C95.2634 22.2843 96.0188 21.5061 96.927 20.9282C97.0159 20.8769 97.1079 20.831 97.2025 20.7906L97.358 20.7219L97.5699 20.6462L97.7748 20.5981C97.8516 20.8808 97.8896 21.1722 97.8879 21.4646C97.8307 22.5201 97.518 23.5475 96.9753 24.463C96.4326 25.3785 95.6752 26.1562 94.765 26.7326C94.5034 26.8848 94.2201 26.9984 93.9242 27.0695C93.8475 26.7845 93.8095 26.4908 93.8112 26.1961Z" fill="#37474F"/>
<path d="M6.53342 68.5736V249.445C6.50431 249.781 6.55265 250.119 6.67488 250.434C6.79712 250.749 6.99018 251.034 7.23995 251.267L4.53394 249.748C4.21739 249.535 3.96602 249.244 3.80672 248.903C3.64742 248.563 3.58619 248.187 3.62958 247.815V66.9437C3.66754 65.9013 3.97886 64.8857 4.53394 63.9934L7.42365 65.6164C6.87062 66.5113 6.564 67.5298 6.53342 68.5736Z" fill="#263238"/>
<path d="M118.271 5.44056C118.271 5.3374 118.271 5.23424 118.222 5.13796C118.172 5.04168 118.222 5.00042 118.172 4.93164C118.174 4.91568 118.174 4.89947 118.172 4.8835C118.16 4.8363 118.143 4.79027 118.123 4.74596C118.127 4.72089 118.127 4.69538 118.123 4.67031C118.103 4.61807 118.08 4.56747 118.052 4.51901C118 4.41017 117.933 4.30844 117.854 4.21641C117.825 4.17663 117.792 4.13977 117.755 4.10638C117.723 4.06678 117.685 4.03203 117.642 4.00322C117.583 3.95422 117.519 3.91048 117.451 3.87255L117.338 3.81065C116.999 3.68614 116.633 3.64485 116.273 3.69042C115.914 3.736 115.571 3.86704 115.275 4.07199L9.61388 63.3744C8.70197 63.9265 7.9523 64.6988 7.43777 65.6164C7.35977 65.7396 7.29128 65.8684 7.23288 66.0015C7.17636 66.1047 7.1269 66.2078 7.07744 66.311C7.01368 66.4409 6.95707 66.5741 6.90788 66.7099C6.85135 66.8474 6.80896 66.9849 6.76657 67.1225C6.72418 67.26 6.71005 67.3219 6.68885 67.4251C6.68254 67.4476 6.68254 67.4713 6.68885 67.4939C6.68885 67.5833 6.64646 67.6727 6.63233 67.7621C6.62893 67.8216 6.62893 67.8813 6.63233 67.9409C6.63233 68.0234 6.63233 68.0991 6.63233 68.1816C6.62549 68.3099 6.62549 68.4384 6.63233 68.5667V249.438C6.63233 249.548 6.63233 249.644 6.63233 249.747C6.63233 249.851 6.63233 249.926 6.63233 250.016C6.646 250.111 6.66726 250.205 6.69591 250.298L6.73831 250.435C6.75756 250.496 6.78117 250.556 6.80896 250.614C6.89433 250.812 7.01919 250.992 7.17635 251.144L7.2894 251.254L7.36712 251.302L7.48016 251.364C7.60534 251.429 7.73818 251.48 7.87582 251.515H8.03832H8.24322C8.74346 251.502 9.23109 251.359 9.65627 251.102L115.205 191.869C116.102 191.3 116.848 190.533 117.383 189.631C117.918 188.729 118.227 187.717 118.285 186.676V5.80505C118.285 5.66751 118.278 5.55059 118.271 5.44056ZM23.4407 66.2491C23.4368 66.1781 23.4368 66.1069 23.4407 66.0359C23.4407 65.9465 23.4407 65.8571 23.4407 65.7608C23.4978 64.7053 23.8105 63.6779 24.3532 62.7623C24.8959 61.8468 25.6533 61.0692 26.5635 60.4928L26.7825 60.3828C26.951 60.3027 27.1258 60.236 27.3054 60.1834H27.4043C27.4832 60.4705 27.5236 60.7664 27.5244 61.0636C27.4645 62.1176 27.1506 63.143 26.6081 64.057C26.0656 64.971 25.3097 65.7478 24.4015 66.3247C24.1355 66.4748 23.8505 66.5904 23.5537 66.6686C23.5027 66.5325 23.4648 66.392 23.4407 66.2491ZM93.811 26.1961C93.8684 25.1414 94.1805 24.1148 94.7218 23.1995C95.2632 22.2842 96.0186 21.506 96.9267 20.9281C97.0156 20.8768 97.1077 20.8309 97.2023 20.7905L97.3577 20.7218L97.5697 20.6461L97.7746 20.598C97.8514 20.8807 97.8894 21.1721 97.8876 21.4645C97.8305 22.52 97.5178 23.5475 96.9751 24.463C96.4324 25.3785 95.675 26.1561 94.7648 26.7325C94.5032 26.8848 94.2199 26.9983 93.924 27.0695C93.8472 26.7844 93.8092 26.4908 93.811 26.1961Z" fill="#455A64"/>
<path d="M8.33508 216.462L116.483 155.688V29.449L8.33508 90.2232V216.462Z" fill="white"/>
<path d="M26.7472 60.3828C26.9142 60.2996 27.0894 60.2328 27.27 60.1833C27.0905 60.236 26.9156 60.3027 26.7472 60.3828Z" fill="#263238"/>
<path d="M29.6511 62.2535C29.5912 63.3074 29.2773 64.3328 28.7348 65.2468C28.1923 66.1608 27.4364 66.9376 26.5282 67.5145C25.1152 68.3192 23.8858 67.9134 23.5184 66.6411C23.8152 66.5629 24.1002 66.4473 24.3663 66.2973C25.2744 65.7204 26.0303 64.9435 26.5728 64.0296C27.1153 63.1156 27.4292 62.0901 27.4891 61.0362C27.4883 60.7389 27.448 60.443 27.369 60.1559H27.2701C28.6337 59.8258 29.6511 60.6029 29.6511 62.2535Z" fill="#263238"/>
<path d="M100.05 22.6887C99.9925 23.7442 99.6798 24.7716 99.1371 25.6871C98.5944 26.6027 97.837 27.3803 96.9268 27.9567C95.5137 28.7613 94.2914 28.3487 93.924 27.0764C94.2199 27.0052 94.5032 26.8917 94.7648 26.7394C95.675 26.163 96.4324 25.3854 96.9751 24.4699C97.5178 23.5544 97.8305 22.527 97.8876 21.4714C97.8894 21.179 97.8514 20.8876 97.7746 20.6049C99.0887 20.2748 100.05 21.0725 100.05 22.6887Z" fill="#263238"/>
<path d="M22.6635 119.658C22.5627 119.659 22.4627 119.64 22.3693 119.603C22.2759 119.566 22.191 119.512 22.1194 119.443C22.0478 119.374 21.9909 119.291 21.9521 119.201C21.9133 119.11 21.8934 119.013 21.8934 118.915V93.7374C21.8935 93.6058 21.9295 93.4766 21.9978 93.363C22.0661 93.2494 22.1642 93.1555 22.282 93.0909L41.7115 82.1699C41.7987 82.1211 41.895 82.0895 41.9947 82.077C42.0945 82.0644 42.1958 82.0711 42.2929 82.0966C42.39 82.1222 42.481 82.1661 42.5606 82.2258C42.6403 82.2856 42.7071 82.3601 42.7572 82.445C42.8073 82.5299 42.8397 82.6235 42.8526 82.7206C42.8655 82.8177 42.8587 82.9163 42.8324 83.0109C42.8062 83.1054 42.7611 83.1939 42.6997 83.2715C42.6383 83.349 42.5618 83.414 42.4746 83.4628L23.3983 94.1638V118.922C23.3966 119.113 23.3193 119.296 23.1824 119.433C23.0456 119.57 22.8597 119.651 22.6635 119.658Z" fill="#F54748"/>
<path d="M22.6635 197.556C22.5288 197.558 22.3964 197.522 22.282 197.453C22.1642 197.388 22.0661 197.295 21.9978 197.181C21.9295 197.067 21.8935 196.938 21.8934 196.807V171.643C21.9117 171.457 22.0004 171.285 22.1421 171.16C22.2838 171.034 22.4685 170.965 22.66 170.965C22.8515 170.965 23.0361 171.034 23.1778 171.16C23.3195 171.285 23.4082 171.457 23.4265 171.643V195.514L41.7115 185.246C41.7982 185.196 41.8941 185.164 41.9936 185.151C42.0932 185.138 42.1944 185.144 42.2916 185.169C42.3887 185.194 42.4799 185.237 42.5598 185.296C42.6397 185.355 42.7068 185.43 42.7572 185.514C42.8078 185.599 42.8407 185.694 42.8539 185.791C42.8671 185.889 42.8604 185.988 42.8341 186.084C42.8079 186.179 42.7626 186.268 42.7009 186.346C42.6392 186.424 42.5623 186.49 42.4746 186.539L23.045 197.453C22.9305 197.522 22.7982 197.558 22.6635 197.556Z" fill="#F54748"/>
<path d="M102.155 74.9556C101.953 74.9556 101.759 74.8774 101.616 74.7381C101.472 74.5988 101.392 74.4099 101.392 74.2129V50.3558L83.1141 60.6235C82.938 60.722 82.7289 60.7483 82.5328 60.6967C82.3367 60.6451 82.1697 60.5198 82.0685 60.3484C81.9673 60.1769 81.9402 59.9734 81.9932 59.7825C82.0462 59.5916 82.1749 59.4291 82.3511 59.3306L101.774 48.4164C101.89 48.3519 102.021 48.3179 102.155 48.3179C102.289 48.3179 102.42 48.3519 102.537 48.4164C102.654 48.481 102.752 48.5749 102.821 48.6884C102.889 48.802 102.925 48.9312 102.925 49.0628V74.2267C102.921 74.4224 102.838 74.6089 102.694 74.7454C102.55 74.8819 102.356 74.9575 102.155 74.9556Z" fill="#F54748"/>
<path d="M82.7326 163.796C82.598 163.797 82.4654 163.763 82.3487 163.698C82.2319 163.633 82.1352 163.538 82.0685 163.424C82.018 163.34 81.9853 163.246 81.9721 163.149C81.959 163.052 81.9658 162.953 81.9921 162.858C82.0183 162.764 82.0636 162.675 82.1252 162.597C82.1868 162.52 82.2636 162.455 82.3511 162.407L101.427 151.706V126.948C101.446 126.762 101.534 126.59 101.676 126.464C101.818 126.339 102.002 126.27 102.194 126.27C102.385 126.27 102.57 126.339 102.712 126.464C102.854 126.59 102.942 126.762 102.961 126.948V152.111C102.96 152.243 102.924 152.372 102.856 152.486C102.788 152.599 102.69 152.693 102.572 152.758L83.1141 163.672C82.9994 163.743 82.8683 163.786 82.7326 163.796Z" fill="#F54748"/>
<path d="M90.2289 136.479L95.443 133.55V119.919C95.3936 119.919 95.3653 119.919 95.3441 119.919L90.462 122.67C90.2147 122.807 90.2006 123.007 90.2006 123.248C90.2006 125.242 90.2006 127.236 90.2006 129.238C90.2006 129.561 90.2783 129.637 90.5327 129.485C91.1615 129.107 91.7973 128.798 92.4332 128.406C92.7229 128.227 92.8501 128.254 92.843 128.674C92.843 129.506 92.843 130.324 92.843 131.136C92.8652 131.275 92.84 131.418 92.7711 131.542C92.7022 131.666 92.5935 131.765 92.4615 131.824C91.8115 132.167 91.1685 132.552 90.5185 132.903C90.4083 132.955 90.318 133.039 90.2608 133.145C90.2036 133.25 90.1825 133.37 90.2006 133.488C90.2006 134.485 90.2006 135.482 90.2006 136.479L87.5582 137.965V120.847C86.8516 121.239 86.2158 121.611 85.5728 121.962C84.7956 122.395 84.9087 122.477 84.8663 121.466C84.8663 120.634 84.8663 119.802 84.8663 118.929L82.2239 120.414V116.976C81.5173 117.326 80.8108 117.746 80.1043 118.138C79.5885 118.427 79.5885 118.427 79.5885 117.78V115.717C79.5885 115.029 79.5885 115.029 80.1467 114.699L82.2097 113.537V110.098C81.4396 110.538 80.7048 110.93 79.9418 111.377C79.6733 111.543 79.5815 111.474 79.5885 111.116C79.5885 110.353 79.5885 109.603 79.5885 108.854C79.5885 108.104 79.5885 108.166 80.1467 107.843L82.2309 106.667C82.2309 105.607 82.2309 104.603 82.2309 103.634C82.2309 103.255 82.1179 103.249 81.8636 103.4C81.2206 103.785 80.5706 104.088 79.9277 104.5C79.6521 104.665 79.5744 104.583 79.5815 104.232C79.5815 103.386 79.5815 102.561 79.5815 101.708C79.5815 101.35 79.4896 101.302 79.2211 101.461C78.5782 101.846 77.9282 102.21 77.2852 102.547C77.1566 102.607 77.0525 102.708 76.9897 102.833C76.927 102.957 76.9091 103.099 76.939 103.235C76.939 104.081 76.939 104.947 76.939 105.8C76.9584 105.908 76.9421 106.02 76.8927 106.119C76.8432 106.217 76.763 106.298 76.6635 106.35C75.8792 106.777 75.095 107.217 74.3108 107.65C74.3108 102.272 74.3108 96.894 74.3108 91.516C74.3108 90.5463 74.3108 90.5463 73.5477 90.9727L71.6966 92.0112V88.5726C72.4738 88.1393 73.2156 87.7061 73.9646 87.3072C74.0929 87.2462 74.197 87.1458 74.2608 87.0215C74.3247 86.8972 74.3447 86.7559 74.3178 86.6194C74.3178 84.6457 74.3178 82.6719 74.3178 80.6844C74.3178 80.313 74.233 80.2236 73.9434 80.3955C73.3499 80.7532 72.7564 81.042 72.1629 81.4134C71.7884 81.6472 71.6471 81.6128 71.6542 81.0695C71.6542 79.1783 71.6542 77.3145 71.6542 75.4233C71.6542 74.9763 71.5765 74.8594 71.2091 75.0726C68.854 76.4113 66.4989 77.7341 64.1438 79.0407C63.9813 79.1117 63.8478 79.2335 63.7646 79.3867C63.6814 79.54 63.6532 79.716 63.6846 79.8866C63.6846 81.771 63.6846 83.676 63.6846 85.5603C63.7158 85.7328 63.6869 85.9104 63.6024 86.065C63.5179 86.2195 63.3826 86.3421 63.2183 86.4131C62.6106 86.7226 62.003 87.1009 61.3954 87.431C61.1269 87.5891 61.028 87.5272 61.0351 87.1696C61.0351 86.3581 61.0351 85.5672 61.0351 84.7488C61.0351 84.3431 60.9574 84.2193 60.6253 84.4256C60.0035 84.8039 59.3818 85.1477 58.7671 85.4709C58.6344 85.5284 58.5249 85.627 58.4559 85.7515C58.3868 85.8759 58.3621 86.0191 58.3856 86.1587C58.3856 86.9839 58.3856 87.8298 58.3856 88.6757C58.3673 88.8681 58.2938 89.0516 58.1736 89.2053C57.3753 89.6798 56.5769 90.12 55.7361 90.5807V83.7448C54.8883 84.2193 54.0899 84.6594 53.2915 85.1202C53.1856 85.2616 53.1198 85.4276 53.1007 85.6016C53.1007 86.4681 53.1007 87.3278 53.1007 88.1737C53.1296 88.3111 53.1097 88.454 53.0442 88.5789C52.9788 88.7039 52.8717 88.8035 52.7404 88.8614C52.0975 89.2122 51.4475 89.5973 50.8045 89.9411C50.6749 90.001 50.5693 90.1009 50.5041 90.2253C50.4389 90.3497 50.4179 90.4916 50.4442 90.6289C50.4442 91.3785 50.4442 92.135 50.4442 92.8915C50.4442 93.648 50.4442 93.5792 51.0024 93.2766C52.4154 92.4651 53.8921 91.6467 55.3404 90.8489C55.4676 90.7802 55.7008 90.8008 55.7008 90.8902C55.7008 91.908 55.7008 92.9534 55.7008 94.0469C54.9165 94.4801 54.1817 94.9134 53.454 95.2985C53.3133 95.3627 53.1983 95.4703 53.1268 95.6046C53.0553 95.7389 53.0312 95.8923 53.0584 96.0413C53.0584 97.0178 53.0584 98.0081 53.0584 98.9916L55.6866 97.5336V100.972L53.1502 102.465V105.903C53.9062 105.484 54.6622 105.071 55.4182 104.631C55.7008 104.466 55.7997 104.507 55.7926 104.892C55.7926 105.889 55.7926 106.859 55.7926 107.843L58.534 106.35C58.534 107.492 58.4209 108.654 58.4916 109.754C60.1237 108.84 61.7133 107.932 63.3384 107.045C63.4655 106.969 63.7058 106.997 63.7128 107.086C63.7128 108.104 63.7128 109.149 63.7128 110.243C61.1905 111.666 58.6823 113.062 56.1671 114.493C56.0187 114.575 55.7856 114.596 55.7856 114.954C55.7856 115.992 55.7856 117.017 55.7856 118.124C56.5627 117.684 57.2975 117.292 58.0253 116.852C58.3432 116.666 58.4633 116.714 58.4492 117.147C58.4492 117.966 58.4492 118.75 58.4492 119.568C58.4492 120.008 58.5552 120.043 58.8731 119.864C60.3568 119.011 61.8405 118.193 63.3242 117.347C63.621 117.175 63.7411 117.209 63.734 117.629C63.734 118.44 63.734 119.245 63.734 120.036C63.7595 120.187 63.7324 120.343 63.6569 120.477C63.5813 120.612 63.4618 120.718 63.3172 120.779C62.6884 121.116 62.0525 121.501 61.4237 121.838C61.3067 121.892 61.2107 121.982 61.1496 122.093C61.0886 122.204 61.0658 122.332 61.0845 122.457C61.0845 123.241 61.0845 124.045 61.0845 124.816C61.1226 124.997 61.0965 125.185 61.0105 125.35C60.9246 125.515 60.7838 125.646 60.6112 125.723C60.0177 126.019 59.4242 126.411 58.8307 126.707C58.6914 126.771 58.5773 126.877 58.5059 127.01C58.4344 127.143 58.4096 127.295 58.435 127.443C58.435 129.588 58.435 131.665 58.435 133.845L55.7926 135.331C55.7926 136.314 55.7926 137.298 55.7926 138.288C55.7926 138.646 55.8845 138.701 56.153 138.543C56.8948 138.109 57.6437 137.697 58.428 137.257C58.534 139.32 58.428 141.493 58.4704 143.584C58.4958 143.731 58.471 143.883 58.3996 144.016C58.3281 144.149 58.2141 144.256 58.0747 144.319C57.3187 144.725 56.5557 145.165 55.7997 145.599C55.7997 146.561 55.7997 147.538 55.7997 148.494C55.8282 148.648 55.8016 148.807 55.7246 148.945C55.6475 149.082 55.5244 149.19 55.3758 149.25C54.7964 149.553 54.2171 149.938 53.6377 150.213C53.2209 150.406 53.1361 150.653 53.1502 151.142C53.1502 152.043 53.1502 152.971 53.1502 153.893C53.9133 153.48 54.6693 153.088 55.4252 152.648C55.7361 152.462 55.8138 152.551 55.8138 152.943C55.8138 154.876 55.8138 156.809 55.8138 158.727C55.8467 158.897 55.8209 159.073 55.7404 159.227C55.6598 159.382 55.5292 159.506 55.3687 159.58C53.7437 160.488 52.1469 161.334 50.529 162.331C50.529 163.328 50.529 164.277 50.529 165.233C50.529 165.611 50.6138 165.694 50.9034 165.522C51.5323 165.144 52.1681 164.834 52.804 164.442C53.0796 164.277 53.1926 164.318 53.1855 164.71C53.1855 165.543 53.1855 166.361 53.1855 167.172C53.2012 167.311 53.1731 167.451 53.1049 167.574C53.0368 167.697 52.9318 167.797 52.804 167.86C52.1611 168.204 51.5111 168.548 50.8681 168.954C50.7197 169.072 50.6094 169.23 50.5502 169.408C50.5502 170.439 50.5502 171.471 50.5502 172.509L55.828 169.545C55.828 168.562 55.828 167.62 55.828 166.691C55.7986 166.542 55.8208 166.387 55.8911 166.252C55.9614 166.116 56.0758 166.007 56.2165 165.941C56.8595 165.604 57.5095 165.254 58.1524 164.855C58.428 164.69 58.5128 164.772 58.5057 165.123C58.5057 165.969 58.5057 166.794 58.5057 167.64C58.5057 167.95 58.5552 168.073 58.8236 167.915C60.378 167.028 61.9253 166.162 63.4726 165.302C63.5821 165.248 63.6711 165.162 63.727 165.055C63.7829 164.949 63.8026 164.828 63.7835 164.71C63.7835 163.878 63.7835 163.026 63.7835 162.2C63.7672 162.062 63.7943 161.923 63.8611 161.8C63.928 161.677 64.0315 161.577 64.1579 161.513C64.7938 161.176 65.4226 160.825 66.0585 160.447C66.3552 160.268 66.433 160.392 66.4259 160.749C66.4259 161.526 66.4259 162.283 66.4259 163.067C66.4259 163.576 66.5319 163.624 66.9063 163.418C69.4004 161.966 71.8874 160.667 74.3814 159.167C74.3814 155.949 74.3814 152.744 74.3814 149.539C74.3814 149.099 74.4521 148.852 74.8265 148.686C75.42 148.391 76.0135 147.999 76.607 147.703C76.7584 147.642 76.8834 147.532 76.9608 147.392C77.0381 147.251 77.0629 147.089 77.0309 146.933C77.0309 146.108 77.0309 145.255 77.0309 144.423C77.0116 144.298 77.0334 144.172 77.0931 144.06C77.1528 143.949 77.2473 143.859 77.363 143.804C78.0271 143.453 78.6842 143.082 79.3412 142.696C79.6027 142.538 79.6733 142.635 79.6733 142.951C79.6733 143.831 79.6733 144.691 79.6733 145.571C79.6733 145.881 79.7581 145.942 79.9842 145.805C80.7755 145.351 81.5174 144.945 82.3157 144.491C82.3157 146.733 82.3157 148.879 82.3157 151.018C82.3241 151.12 82.2993 151.222 82.2448 151.31C82.1902 151.397 82.1088 151.466 82.0119 151.506C81.3407 151.884 80.6695 152.249 79.9983 152.641C79.7369 152.792 79.6592 152.71 79.6662 152.386C79.6662 151.541 79.6662 150.715 79.6662 149.869C79.6662 149.532 79.6097 149.409 79.32 149.581C78.6771 149.966 78.0342 150.33 77.3842 150.674C77.259 150.739 77.157 150.84 77.0914 150.963C77.0259 151.085 76.9999 151.224 77.0168 151.362C77.0168 152.125 77.0168 152.888 77.0168 153.679C77.0168 154.168 77.1157 154.264 77.4901 154.037C78.1967 153.597 78.9032 153.225 79.6592 152.806V156.107L82.3016 154.622C82.3016 153.755 82.3016 152.937 82.3016 152.111C82.3016 151.149 82.1885 151.307 82.9516 150.88C84.3647 150.083 85.7777 149.278 87.1908 148.508C87.3458 148.437 87.4723 148.319 87.5503 148.17C87.6284 148.022 87.6535 147.853 87.6218 147.689C87.5158 143.9 88.1941 144.732 85.2761 146.142C85.163 146.197 84.9652 146.142 84.9652 146.032C84.9652 145.028 84.9652 144.003 84.9652 142.944C86.562 141.974 88.1305 141.156 89.7272 140.234C90.2642 139.932 90.2642 139.932 90.2642 139.21C90.1723 138.295 90.1511 137.442 90.2289 136.479ZM55.828 97.5336V94.095C56.7111 93.6067 57.5519 93.084 58.428 92.5683C58.428 91.5779 58.4916 90.567 58.4916 89.5835C58.4707 89.4663 58.4889 89.3456 58.5436 89.2392C58.5982 89.1328 58.6865 89.0462 58.7954 88.9921C59.5019 88.6276 60.1448 88.2494 60.816 87.8642C61.0563 87.7267 61.1269 87.8092 61.1269 88.1049C61.1269 91.2593 61.1269 94.4136 61.1269 97.568C61.1439 97.6937 61.1204 97.8214 61.0597 97.9335C60.9989 98.0456 60.9039 98.1365 60.7878 98.1938C60.1378 98.5377 59.4948 98.8816 58.8448 99.2804C58.5764 99.4386 58.4774 99.3836 58.4845 99.026C58.4845 98.0219 58.4845 97.066 58.4845 96.0756L55.828 97.5336ZM60.7242 105.057C60.0177 105.442 59.3111 105.869 58.5693 106.281C58.511 106.16 58.466 106.034 58.435 105.903C58.435 105.037 58.435 104.163 58.435 103.304C58.4136 103.179 58.4335 103.051 58.492 102.939C58.5505 102.826 58.6444 102.735 58.7601 102.678C59.4171 102.334 60.0742 101.99 60.7313 101.571C61.0068 101.412 61.0845 101.516 61.0775 101.853C61.0775 102.678 61.0775 103.503 61.0775 104.308C61.1068 104.457 61.0846 104.611 61.0143 104.747C60.944 104.883 60.8296 104.992 60.6889 105.057H60.7242ZM79.8711 121.721L82.2168 120.421V123.818C81.376 124.293 80.5706 124.754 79.7581 125.194C79.7016 125.194 79.5956 125.091 79.5956 124.981C79.5956 124.073 79.5956 123.144 79.5956 122.23C79.5814 122.128 79.6003 122.024 79.6497 121.932C79.6991 121.841 79.7765 121.767 79.8711 121.721ZM74.5792 110.979C75.2858 110.587 75.9428 110.215 76.6282 109.816C76.8543 109.686 76.9532 109.727 76.9532 110.036C76.9532 110.917 76.9532 111.79 76.9532 112.657C76.9674 112.775 76.9439 112.894 76.8857 112.999C76.8275 113.104 76.7376 113.188 76.6282 113.241C75.9711 113.599 75.307 113.929 74.6499 114.355C74.3673 114.52 74.3037 114.403 74.3037 114.066C74.3037 113.111 74.3037 112.168 74.3037 111.219C74.3872 111.133 74.4795 111.054 74.5792 110.985V110.979ZM74.3108 118.365C74.292 118.246 74.3136 118.125 74.3723 118.019C74.431 117.914 74.5235 117.83 74.6358 117.78C74.9749 117.601 75.307 117.409 75.6461 117.216C75.9852 117.024 76.3173 116.852 76.6494 116.652C76.8684 116.522 76.9532 116.59 76.9461 116.872C76.9461 117.766 76.9461 118.654 76.9461 119.534C76.9615 119.644 76.9403 119.756 76.8856 119.854C76.831 119.952 76.7458 120.03 76.6423 120.077C75.9358 120.449 75.2999 120.82 74.6216 121.212C74.3955 121.349 74.3037 121.288 74.3108 120.978C74.3178 120.112 74.3178 119.238 74.3108 118.372V118.365ZM71.6683 98.462C71.6876 98.5782 71.6686 98.6974 71.614 98.8024C71.5595 98.9074 71.4721 98.9929 71.3645 99.0466C70.658 99.418 69.9939 99.8031 69.3156 100.195C69.1319 100.298 69.0259 100.298 69.0259 100.016C69.0259 98.9847 69.0259 97.9531 69.0259 96.9147C69.7819 96.4883 70.5379 96.0756 71.2939 95.6355C71.5624 95.4773 71.6471 95.5461 71.6401 95.9037C71.6542 96.7702 71.6613 97.6505 71.6683 98.4689V98.462ZM66.3694 101.385C66.3962 101.521 66.3762 101.663 66.3124 101.787C66.2485 101.911 66.1444 102.012 66.0161 102.073C65.3732 102.416 64.7232 102.76 64.0802 103.159C63.8047 103.317 63.7199 103.235 63.727 102.891C63.727 100.903 63.727 98.9297 63.727 96.9559C63.727 96.7359 63.7269 96.5089 63.9672 96.3645L69.033 93.5242V96.9628C68.3265 97.3823 67.5422 97.8362 66.8003 98.2213C66.6364 98.294 66.5025 98.4184 66.4204 98.5745C66.3383 98.7306 66.3129 98.9091 66.3482 99.081C66.3835 99.8031 66.3552 100.608 66.3694 101.392V101.385ZM63.727 86.647C63.6994 86.5096 63.7199 86.3672 63.7852 86.2426C63.8505 86.1179 63.9569 86.0181 64.0873 85.9592C64.6384 85.6635 65.1965 85.3403 65.7547 85.0308C66.4612 84.6388 66.3623 84.7832 66.3623 83.8686C66.3623 83.1808 66.3623 82.4518 66.3623 81.7572C66.346 81.6192 66.3731 81.4796 66.44 81.3568C66.5068 81.2341 66.6103 81.1339 66.7368 81.0695C67.3726 80.7325 68.0015 80.3818 68.6373 80.0035C68.9341 79.8247 69.0471 79.8797 69.04 80.2924C69.04 81.2965 69.04 82.2043 69.04 83.2083L71.6683 81.7297C71.6683 82.8301 71.6683 83.8548 71.6683 84.9001C71.6039 85.0732 71.4883 85.2239 71.3363 85.3334C69.7042 86.2687 68.065 87.1559 66.433 88.1806C66.433 89.1709 66.3835 90.1819 66.3835 91.1584C66.4056 91.2837 66.3851 91.4126 66.3252 91.5255C66.2653 91.6384 66.1692 91.7293 66.0514 91.7842C65.4014 92.1281 64.7585 92.472 64.1155 92.8709C63.8471 93.029 63.7411 92.9809 63.7481 92.6233C63.7434 90.6243 63.7364 88.6322 63.727 86.647ZM58.4845 133.763C59.29 133.309 60.0954 132.848 60.9008 132.387C60.9644 132.387 61.0775 132.484 61.0775 132.587C61.0775 133.504 61.0775 134.439 61.0775 135.393C61.0595 135.537 60.9952 135.672 60.8938 135.778C60.0954 136.246 59.3041 136.686 58.4845 137.153V133.763ZM61.0916 162.716C61.1091 162.843 61.085 162.971 61.0228 163.084C60.9607 163.196 60.8635 163.286 60.7454 163.342C60.0883 163.699 59.4313 164.071 58.7671 164.456C58.541 164.587 58.4421 164.539 58.4492 164.222C58.4492 163.782 58.4492 163.356 58.4492 162.915C58.4492 162.475 58.4492 162.021 58.4492 161.54C58.4868 161.356 58.5775 161.187 58.7106 161.052C59.4171 160.639 60.0813 160.275 60.7595 159.883C61.0068 159.738 61.0704 159.848 61.0704 160.137C61.0845 161.004 61.0845 161.856 61.0916 162.709V162.716ZM61.0916 152.4C61.0723 152.589 61.0016 152.77 60.8867 152.923C60.1025 153.391 59.3182 153.824 58.4704 154.298V151.981C58.4704 150.894 58.4704 150.887 59.297 150.426L61.1834 149.402C61.0924 150.403 61.057 151.409 61.0775 152.414L61.0916 152.4ZM63.2748 148.191C62.5682 148.549 61.8617 148.982 61.1552 149.381C61.055 148.392 61.0266 147.397 61.0704 146.403C61.0704 146.08 60.9927 145.997 60.7383 146.149C60.0813 146.534 59.4171 146.905 58.7601 147.249C58.6541 147.311 58.4562 147.249 58.4492 147.153C58.4492 146.149 58.4492 145.124 58.4492 144.024L60.491 142.882C61.1411 142.511 61.0845 142.628 61.0845 141.754V135.695L62.8085 134.726C63.7199 134.21 63.7199 134.21 63.7199 135.413C63.7199 139.382 63.7199 143.357 63.7199 147.325C63.734 147.792 63.6422 148.006 63.2606 148.205L63.2748 148.191ZM68.6585 155.467C65.7688 156.925 66.4612 157.531 66.3835 153.741C66.3835 153.411 66.2987 153.349 66.0514 153.501C63.084 155.062 63.8683 155.522 63.734 151.843C63.7096 151.694 63.7366 151.541 63.8107 151.408C63.8847 151.274 64.0018 151.169 64.1438 151.107C65.7759 150.206 67.408 149.278 69.0471 148.356C69.0471 150.475 69.0471 152.607 69.0471 154.718C69.0788 154.871 69.0563 155.029 68.9831 155.168C68.9099 155.307 68.7905 155.417 68.6444 155.481L68.6585 155.467ZM71.6825 146.864L69.033 148.35C69.033 146.197 69.033 144.044 69.033 141.892C69.0192 141.783 69.0403 141.672 69.0934 141.575C69.1464 141.477 69.229 141.398 69.3297 141.348C70.0363 140.977 70.7004 140.592 71.3857 140.2C71.5624 140.097 71.6754 140.09 71.6754 140.372C71.6613 142.511 71.6683 144.656 71.6683 146.878L71.6825 146.864ZM71.6825 136.108C71.6987 136.246 71.6716 136.386 71.6048 136.508C71.538 136.631 71.4345 136.731 71.308 136.796C70.6792 137.126 70.0433 137.483 69.4145 137.862C69.1319 138.027 69.0189 137.992 69.033 137.6C69.033 136.761 69.033 135.957 69.033 135.125C69.033 134.753 68.9623 134.664 68.6656 134.836C68.0226 135.228 67.3726 135.523 66.7297 135.943C66.4683 136.094 66.3552 136.053 66.3623 135.689C66.3623 134.829 66.3623 133.976 66.3623 133.123C66.3434 132.998 66.367 132.871 66.4296 132.761C66.4921 132.65 66.59 132.562 66.7085 132.511C67.3797 132.147 68.0509 131.755 68.7292 131.383C68.8321 131.337 68.9171 131.26 68.9717 131.164C69.0264 131.067 69.0479 130.956 69.033 130.847C69.033 129.87 69.033 128.873 69.033 127.828C67.4009 128.653 65.7759 129.63 64.1438 130.544C63.8259 130.723 63.7128 130.668 63.7199 130.242C63.7199 129.41 63.7199 128.591 63.7199 127.773C63.6923 127.635 63.7128 127.493 63.7781 127.368C63.8434 127.244 63.9498 127.144 64.0802 127.085C64.709 126.741 65.3449 126.397 65.9808 126.026C66.1135 125.969 66.223 125.87 66.292 125.745C66.361 125.621 66.3858 125.478 66.3623 125.338C66.3623 120.937 66.4118 116.467 66.3199 112.093C65.571 112.519 64.8503 112.904 64.1297 113.337C63.8047 113.53 63.7058 113.448 63.7128 113.028C63.7128 112.079 63.7128 111.151 63.7128 110.146L69.0188 107.169V104.418C69.0188 103.73 69.0189 103.73 69.5417 103.441C70.0645 103.152 70.7075 102.808 71.2868 102.458C71.5836 102.279 71.6613 102.375 71.6542 102.74C71.6542 104.878 71.6542 106.962 71.6542 109.101L74.2896 107.623V111.178C74.2049 111.189 74.1218 111.21 74.0423 111.24C72.3819 112.203 70.7216 113.042 69.0612 114.08V117.464L71.1172 116.308C71.6754 115.999 71.6754 115.999 71.6754 116.7V126.329C73.3146 125.4 74.9254 124.513 76.5646 123.578C76.8613 123.406 76.9744 123.44 76.9602 123.86C76.9602 124.657 76.9602 125.448 76.9602 126.225C76.9928 126.388 76.968 126.557 76.8898 126.704C76.8116 126.851 76.6845 126.969 76.5293 127.037C74.9042 127.924 73.3075 128.839 71.6754 129.753C71.6683 131.899 71.6613 134.004 71.6754 136.122L71.6825 136.108ZM82.2239 137.538C79.7157 138.955 77.2287 140.344 74.7205 141.768C74.4026 141.947 74.3037 141.899 74.3037 141.472C74.3037 138.396 74.3037 135.326 74.3037 132.264C74.2764 132.101 74.3052 131.933 74.3857 131.788C74.4662 131.642 74.5939 131.527 74.7488 131.459C77.1039 130.157 79.459 128.836 81.8141 127.498C82.1603 127.298 82.2521 127.374 82.2521 127.814C82.2168 131.067 82.2309 134.286 82.2239 137.538ZM37.649 148.886C37.3875 149.037 37.2816 149.003 37.2816 148.645C37.2816 146.644 37.2816 144.656 37.2816 142.669C37.264 142.532 37.289 142.394 37.3532 142.271C37.4175 142.149 37.518 142.048 37.6419 141.981C39.1821 141.128 40.7177 140.266 42.2485 139.395C42.524 139.237 42.5947 139.327 42.5947 139.67C42.5947 140.675 42.5947 141.665 42.5947 142.662C44.2126 141.754 45.8306 140.833 47.4485 139.946C47.5985 139.885 47.7226 139.776 47.7998 139.637C47.877 139.498 47.9026 139.337 47.8724 139.182C47.8724 138.233 47.8724 137.263 47.8724 136.301C46.1132 137.119 44.3398 138.302 42.5947 139.175C42.5947 138.157 42.5947 137.195 42.5947 136.218C42.5947 135.888 42.5099 135.819 42.2626 135.964C41.6126 136.342 40.9696 136.651 40.3267 137.064C40.03 137.236 39.9452 137.153 39.9452 136.782C39.9452 134.643 39.9452 132.566 39.9452 130.421C38.3131 131.342 36.7093 132.229 35.0772 133.171C34.7381 133.371 34.625 133.288 34.6392 132.841C34.6392 132.044 34.6392 131.253 34.6392 130.476C34.6067 130.32 34.6305 130.158 34.7064 130.018C34.7824 129.878 34.9059 129.767 35.056 129.705C37.5642 128.289 40.0724 126.954 42.5805 125.448C42.5805 123.248 42.5805 121.109 42.5805 118.963C42.5805 118.681 42.4604 118.695 42.2838 118.798C41.5773 119.183 40.9131 119.575 40.2278 119.947C40.1264 119.997 40.0439 120.077 39.9919 120.176C39.9399 120.275 39.9211 120.387 39.9381 120.497C39.9381 121.528 39.9381 122.491 39.9381 123.543L38.1859 124.534C37.2745 125.043 37.2745 125.043 37.2745 123.846V121.604C36.4973 122.044 35.7908 122.464 35.0843 122.828C34.7098 123.014 34.625 123.241 34.625 123.681C34.625 125.744 34.6745 127.807 34.625 129.953L29.4179 132.883C29.3402 133.942 29.4179 134.87 29.3755 135.902C29.3755 136.301 29.4886 136.321 29.7641 136.156C30.4141 135.778 31.057 135.468 31.7071 135.063C31.9402 134.925 32.025 134.994 32.025 135.297C32.025 136.156 32.025 137.016 32.025 137.862C32.0444 137.995 32.0183 138.132 31.9506 138.25C31.883 138.368 31.7776 138.461 31.6505 138.515C31.0358 138.852 30.4141 139.203 29.7924 139.547C29.6457 139.615 29.5257 139.727 29.4505 139.867C29.3753 140.008 29.349 140.168 29.3755 140.324C29.3755 142.387 29.3402 144.546 29.3755 146.616C30.1527 146.183 30.8875 145.757 31.6576 145.351C31.7636 145.289 31.9614 145.351 31.9614 145.406C31.9614 146.445 31.9614 147.469 31.9614 148.618L29.3755 150.069V153.507C30.1527 153.067 30.8875 152.668 31.6223 152.235C31.8978 152.077 31.9826 152.153 31.9755 152.496C31.9755 153.363 31.9755 154.209 31.9755 155.069C31.9755 155.364 32.0533 155.447 32.2935 155.309C32.9623 154.92 33.6335 154.541 34.3071 154.175C34.4157 154.118 34.5038 154.03 34.5594 153.923C34.615 153.816 34.6355 153.695 34.6179 153.576C34.6179 152.586 34.6179 151.596 34.6179 150.585L37.2109 149.127C37.2462 150.089 37.2109 151.059 37.2109 152.043C37.2109 152.38 37.2745 152.496 37.5571 152.331C38.2212 151.939 38.8783 151.568 39.5354 151.217C39.6662 151.159 39.7725 151.059 39.8368 150.934C39.9011 150.809 39.9194 150.666 39.8887 150.53C39.8887 149.553 39.8887 148.563 39.8887 147.572C39.1892 148.026 38.4191 148.446 37.649 148.886ZM34.6462 150.564C33.8054 151.039 33.0141 151.492 32.2158 151.939C32.1522 151.939 32.025 151.864 32.025 151.767C32.025 150.757 32.025 149.704 32.025 148.645C32.8658 148.171 33.6429 147.731 34.4131 147.318C34.4978 147.27 34.6392 147.366 34.6462 147.469C34.6533 148.453 34.6462 149.477 34.6462 150.564ZM36.9283 138.983C36.3984 139.265 35.8685 139.567 35.3386 139.87C34.5685 140.317 34.6321 140.138 34.6321 141.135C34.6321 141.823 34.6321 142.545 34.6321 143.24C34.6517 143.367 34.6295 143.496 34.5685 143.61C34.5076 143.724 34.4111 143.816 34.293 143.872C33.6359 144.23 32.9788 144.56 32.3217 144.98C32.0674 145.131 31.9897 145.042 31.9897 144.725C31.9897 143.714 31.9897 142.71 31.9897 141.706C31.9897 140.702 31.9897 139.794 31.9897 138.845C31.9603 138.696 31.9825 138.542 32.0528 138.406C32.1231 138.27 32.2375 138.161 32.3783 138.096C33.8832 137.27 35.3951 136.417 36.9 135.558C37.1615 135.407 37.2745 135.441 37.2674 135.805C37.2674 136.651 37.2674 137.49 37.2674 138.316C37.2906 138.447 37.2702 138.583 37.2093 138.703C37.1484 138.823 37.05 138.921 36.9283 138.983ZM77.4548 95.6561L95.443 85.5466V62.219C95.443 61.5313 95.443 61.5313 94.899 61.8201L77.4548 71.6202C76.9461 71.9022 76.9461 71.909 76.9461 72.5624V95.2573C76.9461 95.9106 76.9461 95.9106 77.4548 95.6286V95.6561ZM80.0336 73.5802C84.1315 71.2878 88.227 68.9954 92.3202 66.703C92.73 66.476 92.8147 66.6136 92.8077 67.1019C92.8077 69.7565 92.8077 72.4042 92.8077 75.0519C92.8077 77.6997 92.8077 80.3543 92.8077 82.9951C92.84 83.1739 92.8104 83.3581 92.7234 83.5187C92.6365 83.6793 92.4971 83.8072 92.3272 83.8823C88.2294 86.1747 84.1339 88.4671 80.0407 90.7595C79.6945 90.9521 79.5744 90.9108 79.5744 90.4363C79.5744 85.0996 79.5744 79.7674 79.5744 74.4399C79.5434 74.2674 79.5716 74.0898 79.6546 73.9344C79.7376 73.779 79.8708 73.6546 80.0336 73.5802ZM29.8701 122.409C35.7154 119.117 41.5561 115.832 47.392 112.553C47.9007 112.272 47.9007 112.272 47.9007 111.611V88.9164C47.9007 88.2631 47.9007 88.2631 47.392 88.5451C41.4006 91.9355 35.381 95.2297 29.425 98.6684C29.3684 106.495 29.425 114.245 29.425 122.051C29.3684 122.525 29.4674 122.601 29.8418 122.409H29.8701ZM32.0391 101.144C32.015 100.987 32.0431 100.826 32.1194 100.685C32.1956 100.544 32.316 100.43 32.463 100.36C36.5986 98.0677 40.7318 95.7455 44.8626 93.3935C45.1947 93.201 45.2653 93.3316 45.2653 93.7236C45.2653 96.4333 45.2653 99.1291 45.2653 101.825C45.2653 104.521 45.2653 107.127 45.2653 109.768C45.2931 109.932 45.2645 110.101 45.1841 110.247C45.1036 110.394 44.9757 110.511 44.8202 110.58C40.7035 112.872 36.5845 115.187 32.463 117.526C32.1522 117.705 32.0321 117.663 32.0321 117.237C32.0273 111.854 32.0203 106.483 32.0109 101.124L32.0391 101.144ZM47.4344 150.261C41.4289 153.65 35.4258 157.026 29.425 160.392C29.3614 168.232 29.425 175.989 29.425 183.809C29.425 184.29 29.5239 184.366 29.8983 184.152C35.9085 180.764 41.9188 177.385 47.929 174.015C47.929 166.221 47.929 158.427 47.929 150.633C47.8795 150.103 47.7806 150.028 47.4061 150.241L47.4344 150.261ZM44.8202 172.33C40.7082 174.623 36.6009 176.931 32.4984 179.256C32.131 179.462 32.0321 179.366 32.0391 178.912C32.0391 173.589 32.0391 168.273 32.0391 162.964C32.0045 162.785 32.0323 162.599 32.1181 162.437C32.2038 162.276 32.3426 162.146 32.5125 162.07C34.5756 160.928 36.6457 159.759 38.7088 158.597C40.7718 157.434 42.7925 156.313 44.8344 155.158C45.1806 154.959 45.2724 155.048 45.2653 155.488C45.2653 160.839 45.2653 166.187 45.2653 171.533C45.2806 171.694 45.243 171.856 45.158 171.996C45.073 172.135 44.9449 172.245 44.792 172.31L44.8202 172.33ZM95.443 92.3894L92.8359 93.8543C92.8359 92.8158 92.8359 91.853 92.8359 90.8764C92.8359 90.5532 92.7582 90.4707 92.4968 90.622C91.8397 91.0071 91.1827 91.3785 90.5256 91.7292C90.4075 91.7875 90.3116 91.881 90.2518 91.996C90.1921 92.1111 90.1717 92.2417 90.1935 92.3688C90.1935 93.2147 90.1935 94.0675 90.1935 94.934C90.1935 95.2641 90.2783 95.3191 90.5256 95.1747C91.1756 94.7896 91.8185 94.487 92.4685 94.0675C92.7653 93.8887 92.843 93.9918 92.8359 94.3563C92.8359 95.1885 92.8359 96.0137 92.8359 96.8184C92.8577 96.9586 92.8314 97.1019 92.7611 97.2262C92.6909 97.3505 92.5807 97.4488 92.4474 97.5061C90.8082 98.4139 89.2114 99.3217 87.5652 100.257C87.5652 101.364 87.5652 102.416 87.5652 103.455C87.5652 103.544 87.756 103.586 87.8549 103.531C88.4625 103.214 89.0701 102.843 89.6778 102.52C90.2854 102.196 90.1794 102.245 90.1794 102.912C90.1794 104.81 90.1794 106.701 90.1794 108.599C90.1794 108.97 90.2712 109.053 90.5609 108.881C91.1827 108.51 91.8044 108.193 92.4191 107.822C92.7229 107.643 92.8359 107.698 92.8289 108.104C92.8289 108.874 92.8289 109.631 92.8289 110.367C92.8716 110.553 92.8463 110.749 92.7574 110.919C92.6685 111.09 92.5214 111.225 92.3414 111.302C90.7376 112.148 89.1549 113.131 87.5511 113.956C87.5511 111.845 87.5511 109.782 87.5511 107.671C87.5511 107.244 87.4522 107.169 87.1343 107.368C86.5125 107.739 85.8908 108.056 85.269 108.413C85.131 108.477 85.0178 108.582 84.9465 108.714C84.8752 108.845 84.8495 108.996 84.8734 109.142C84.8734 111.247 84.831 113.386 84.8734 115.469C85.7495 114.954 86.5902 114.527 87.4593 114.094C87.4593 115.215 87.5228 116.274 87.5087 117.443C88.2718 117.01 88.9712 116.652 89.6283 116.212C90.0452 115.951 90.137 116.095 90.1158 116.597C90.1158 117.402 90.1158 118.172 90.1158 118.97C90.1158 119.259 90.1794 119.355 90.4267 119.211C91.1332 118.819 91.7691 118.44 92.4403 118.083C92.5496 118.028 92.639 117.942 92.6959 117.836C92.7528 117.73 92.7746 117.61 92.7582 117.491C92.7582 116.707 92.7582 115.916 92.7582 115.126C92.7582 114.479 92.7582 114.472 93.2669 114.19L95.3441 113.021C95.4642 109.658 95.3441 106.405 95.3936 103.077C95.3936 102.753 95.2876 102.74 95.0686 102.87C94.4186 103.242 93.7756 103.558 93.1256 103.964C92.8359 104.136 92.7441 104.046 92.7512 103.675C92.7512 102.843 92.7512 102.024 92.7512 101.213C92.7236 101.076 92.7441 100.933 92.8094 100.809C92.8747 100.684 92.9811 100.584 93.1115 100.525C93.7191 100.202 94.3267 99.8375 94.9343 99.5143C95.0976 99.4457 95.2324 99.3257 95.317 99.1735C95.4016 99.0213 95.4311 98.8458 95.4006 98.6752C95.4077 96.5846 95.4784 94.4526 95.4148 92.3688L95.443 92.3894ZM53.1361 133.336C53.1361 132.504 53.1361 131.672 53.1361 130.84C53.1361 129.863 53.1361 129.863 53.8921 129.465L55.7502 128.426V121.597L53.2209 123.021C53.1702 123.069 53.1273 123.125 53.0937 123.186C53.1161 123.236 53.1304 123.289 53.1361 123.344C53.1361 125.407 53.1361 127.47 53.1361 129.533C53.1521 129.643 53.1312 129.754 53.0764 129.851C53.0216 129.948 52.9359 130.025 52.8323 130.07C52.1257 130.441 51.4899 130.813 50.8187 131.205C50.5643 131.349 50.4866 131.266 50.4866 130.943C50.4866 130.097 50.4866 129.272 50.4866 128.426C50.4866 128.082 50.4159 127.993 50.1404 128.151C48.6143 129.018 47.0953 129.87 45.5691 130.716C45.4387 130.775 45.3324 130.875 45.2671 131C45.2018 131.124 45.1812 131.267 45.2088 131.404C45.2088 132.236 45.2088 133.075 45.2088 133.914C45.2088 134.272 45.2936 134.347 45.5621 134.182C46.205 133.804 46.855 133.495 47.498 133.089C47.7735 132.924 47.8583 133.013 47.8512 133.357C47.8512 134.361 47.8512 135.358 47.8512 136.356C49.6317 135.241 51.3698 134.299 53.1361 133.336ZM93.2104 141.658C93.8463 141.335 94.4751 140.97 95.111 140.606C95.2272 140.549 95.322 140.458 95.3816 140.345C95.4413 140.233 95.4628 140.105 95.443 139.98C95.443 139.12 95.443 138.247 95.443 137.367C95.443 137.085 95.3653 137.023 95.1534 137.153C94.4468 137.545 93.7827 137.93 93.0974 138.302C92.9899 138.359 92.9036 138.447 92.8503 138.555C92.7971 138.662 92.7797 138.783 92.8006 138.9C92.8006 139.739 92.8006 140.585 92.8006 141.41C92.8163 141.549 92.7881 141.689 92.72 141.812C92.6518 141.935 92.5469 142.035 92.4191 142.098C91.7832 142.435 91.1544 142.786 90.5185 143.157C90.3927 143.213 90.2889 143.306 90.2226 143.424C90.1563 143.542 90.1312 143.678 90.1511 143.811C90.1511 145.787 90.1511 147.765 90.1511 149.746C90.1511 150.138 90.2642 150.165 90.5397 150C91.2886 149.56 92.0376 149.154 92.7865 148.735L95.111 147.428C95.2221 147.381 95.3141 147.299 95.3729 147.196C95.4317 147.093 95.4538 146.974 95.436 146.857C95.436 145.991 95.436 145.117 95.436 144.237C95.436 143.9 95.3371 143.866 95.0968 144.01C94.4468 144.388 93.8039 144.698 93.1539 145.103C92.8925 145.262 92.7865 145.193 92.7936 144.842C92.7936 144.031 92.7936 143.226 92.7936 142.428C92.7691 142.274 92.7965 142.117 92.8717 141.979C92.9468 141.842 93.0656 141.731 93.2104 141.665V141.658ZM53.1502 116.515C53.1422 116.401 53.1256 116.289 53.1007 116.178L50.7621 117.491C50.5078 117.629 50.5078 117.835 50.5078 118.062C50.5078 120.063 50.5078 122.051 50.5078 124.052C50.5078 124.451 50.6279 124.465 50.8964 124.307C51.59 123.853 52.3313 123.473 53.1078 123.172C53.134 123.033 53.1505 122.893 53.1573 122.752L53.1502 116.515ZM55.4535 142.318L50.5078 145.069C50.5078 146.053 50.5078 147.029 50.5078 148.019C50.5078 148.405 50.6138 148.439 50.8893 148.281C52.5214 147.352 54.1535 146.438 55.7785 145.53C55.7785 144.526 55.7785 143.529 55.7785 142.518C55.7997 142.188 55.6937 142.167 55.4535 142.304V142.318ZM47.604 122.684C46.8974 123.089 46.1909 123.475 45.4844 123.86C45.3897 123.905 45.3116 123.977 45.261 124.067C45.2104 124.157 45.1897 124.26 45.2018 124.362C45.2018 125.276 45.2018 126.198 45.2018 127.113C45.2018 127.415 45.3148 127.422 45.5126 127.305C45.8588 127.099 46.2192 126.913 46.5583 126.714C46.8974 126.514 47.2648 126.363 47.5616 126.136C47.6964 126.004 47.7896 125.837 47.83 125.655C47.83 124.726 47.83 123.812 47.83 122.904C47.8724 122.629 47.8371 122.553 47.604 122.67V122.684ZM31.7353 124.747C31.0288 125.111 30.3223 125.503 29.6157 125.916C29.4881 126.033 29.3975 126.184 29.3543 126.349C29.3543 127.381 29.3543 128.412 29.3543 129.485C30.1951 129.011 30.9793 128.577 31.7636 128.11C31.878 127.995 31.9522 127.848 31.9755 127.69C31.9755 126.762 31.9755 125.84 31.9755 124.939C31.9967 124.829 31.8342 124.706 31.7353 124.754V124.747ZM53.1502 112.278C53.1502 112.567 53.1997 112.677 53.447 112.533C54.1535 112.141 54.8105 111.756 55.4959 111.384C55.5973 111.335 55.6804 111.256 55.7336 111.159C55.7868 111.062 55.8075 110.95 55.7926 110.841C55.7926 109.837 55.7926 108.819 55.7926 107.808L53.1714 109.287C53.1502 110.291 53.1573 111.281 53.1502 112.285V112.278ZM47.5757 115.827L45.5268 116.982C45.4248 117.033 45.3414 117.113 45.2882 117.211C45.235 117.31 45.2147 117.422 45.23 117.533C45.23 118.434 45.23 119.334 45.23 120.242C45.23 120.51 45.3219 120.538 45.5126 120.428C46.2192 120.029 46.9257 119.637 47.5969 119.252C47.691 119.207 47.7682 119.134 47.8176 119.044C47.867 118.954 47.8862 118.851 47.8724 118.75C47.8724 118.303 47.8724 117.849 47.8724 117.374C47.8724 116.9 47.8724 116.474 47.8724 115.999C47.8795 115.758 47.7877 115.71 47.5757 115.834V115.827ZM40.0017 144.154V147.559L42.63 146.087V142.648L40.0017 144.154ZM50.7975 100.346C50.6961 100.398 50.6134 100.478 50.5603 100.576C50.5073 100.675 50.4865 100.786 50.5007 100.897C50.5007 101.763 50.5007 102.623 50.5007 103.503C50.5007 103.874 50.6208 103.881 50.8681 103.737C51.6241 103.297 52.3801 102.884 53.1361 102.465V99.026C52.3589 99.4661 51.5747 99.9063 50.7975 100.326V100.346ZM50.8611 107.141C50.7298 107.199 50.6227 107.299 50.5572 107.424C50.4918 107.549 50.4719 107.691 50.5007 107.829C50.5007 108.659 50.5007 109.498 50.5007 110.346C50.5007 110.71 50.5996 110.759 50.8611 110.6C51.617 110.16 52.3801 109.741 53.1361 109.314V105.876C52.3801 106.302 51.617 106.735 50.8611 107.141ZM84.5766 95.0441C83.8701 95.4361 83.206 95.8212 82.5206 96.1926C82.4199 96.2425 82.3373 96.3215 82.2843 96.4187C82.2312 96.5159 82.2101 96.6266 82.2239 96.7359C82.2239 97.6368 82.2239 98.5514 82.2239 99.4455C82.2239 99.5624 82.344 99.6999 82.4076 99.6656C83.2059 99.246 84.0043 98.7853 84.8451 98.2901C84.8451 97.1966 84.8451 96.2269 84.8451 95.1885C84.8663 94.934 84.7603 94.9409 84.5766 95.0441ZM50.5078 155.681C50.5078 156.616 50.5078 157.558 50.5078 158.487C50.5078 158.583 50.635 158.686 50.7056 158.652C51.504 158.225 52.3024 157.764 53.1149 157.311V153.872L50.8399 155.179C50.7345 155.214 50.6445 155.282 50.5842 155.373C50.5239 155.465 50.497 155.573 50.5078 155.681ZM79.3271 132.298C78.9809 132.456 78.6206 132.676 78.2814 132.869C77.9423 133.061 77.5749 133.268 77.2358 133.453C77.1404 133.498 77.0615 133.57 77.0097 133.66C76.9578 133.75 76.9356 133.853 76.9461 133.955C76.9461 134.87 76.9461 135.799 76.9461 136.706C76.9461 136.816 77.1015 136.926 77.1863 136.885C77.8929 136.514 78.5994 136.115 79.3059 135.689C79.428 135.562 79.5112 135.405 79.5461 135.235C79.5461 134.306 79.5461 133.385 79.5461 132.484C79.5673 132.394 79.419 132.284 79.3271 132.326V132.298ZM52.7404 140.379C52.8877 140.317 53.0093 140.209 53.085 140.072C53.1607 139.934 53.1862 139.776 53.1573 139.622C53.1573 138.673 53.1573 137.704 53.1573 136.741L55.7785 135.248V131.851L53.1573 133.323C53.1573 134.457 53.1573 135.592 53.1573 136.761C52.4013 137.181 51.6453 137.621 50.8893 138.02C50.7642 138.085 50.6621 138.186 50.5966 138.309C50.5311 138.431 50.505 138.57 50.5219 138.708C50.5219 139.677 50.5219 140.668 50.5219 141.651L42.6229 146.101C42.6229 147.098 42.6229 148.102 42.6229 149.106C42.6229 149.45 42.7218 149.47 42.9621 149.333L50.5361 145.069C50.5361 143.927 50.5361 142.793 50.5361 141.63C51.2567 141.245 51.9986 140.805 52.7404 140.406V140.379ZM82.6761 85.8148C85.1701 84.3981 87.6218 83.0158 90.137 81.6128C90.2147 78.3324 90.137 75.1551 90.1794 71.8953C90.1794 71.4001 90.0593 71.3382 89.6919 71.5514C87.1978 73.0025 84.7462 74.3023 82.2239 75.7947C82.2239 79.0339 82.2239 82.2455 82.2239 85.4916C82.2168 85.9936 82.3299 86.0418 82.6761 85.8423V85.8148ZM34.6321 112.292C34.6321 112.684 34.7169 112.767 35.0277 112.588C36.2288 111.9 37.4299 111.212 38.631 110.525C39.8321 109.837 40.9838 109.191 42.1637 108.551C42.3123 108.491 42.4354 108.383 42.5125 108.245C42.5895 108.108 42.6161 107.949 42.5876 107.794C42.5876 104.7 42.5876 101.605 42.5876 98.4896C42.5876 98.1182 42.5028 98.0425 42.2131 98.2007C39.8109 99.5762 37.4087 100.926 35.0065 102.251C34.8814 102.317 34.7794 102.417 34.7138 102.54C34.6483 102.663 34.6223 102.802 34.6392 102.939C34.6533 106.116 34.6533 109.211 34.6462 112.32L34.6321 112.292ZM42.1849 160.048C39.6908 161.471 37.2392 162.854 34.7098 164.257C34.6391 167.537 34.7098 170.714 34.6745 173.967C34.6745 174.449 34.7734 174.545 35.1549 174.325C37.649 172.874 40.1006 171.574 42.6229 170.082C42.6229 166.842 42.6229 163.631 42.6229 160.392C42.6017 159.931 42.5099 159.841 42.1849 160.048Z" fill="#263238"/>
<path d="M37.4865 216.262C37.5091 215.569 37.5942 214.878 37.7409 214.199C37.8848 213.543 38.1028 212.904 38.3909 212.294C38.6747 211.706 39.0357 211.155 39.4648 210.657C39.8961 210.162 40.4124 209.743 40.9909 209.419C41.4404 209.129 41.9636 208.965 42.5029 208.945C42.7019 208.944 42.8992 208.981 43.0835 209.054C43.2678 209.127 43.4354 209.235 43.5768 209.371C43.8882 209.705 44.1134 210.105 44.2339 210.54C44.3919 211.11 44.4797 211.697 44.4953 212.287C44.4953 212.507 44.4953 212.755 44.4953 213.03C44.4953 213.305 44.4953 213.58 44.4953 213.876C44.4953 214.172 44.4953 214.447 44.4953 214.722C44.4953 214.997 44.4953 215.251 44.4953 215.485C44.468 216.141 44.3877 216.794 44.2551 217.438C44.1243 218.073 43.9205 218.691 43.6475 219.281L44.5447 220.705C44.5544 220.753 44.5544 220.802 44.5447 220.849C44.5536 220.961 44.5291 221.074 44.4741 221.173C44.4344 221.259 44.3708 221.333 44.2904 221.386L43.1599 222.018C43.0186 222.087 42.9127 222.087 42.842 222.018C42.7784 221.95 42.7219 221.888 42.6866 221.84L42.305 221.234C42.107 221.439 41.8945 221.63 41.6692 221.805C41.4477 221.98 41.2113 222.137 40.9626 222.273C40.5073 222.564 39.9807 222.733 39.4365 222.761C39.0352 222.761 38.6498 222.608 38.3626 222.335C38.0481 222.005 37.8245 221.603 37.7126 221.166C37.5587 220.597 37.4733 220.013 37.4583 219.426C37.4583 219.199 37.4583 218.951 37.4583 218.683C37.4583 218.415 37.4583 218.133 37.4583 217.837C37.4583 217.541 37.4583 217.259 37.4583 216.984C37.4583 216.709 37.4795 216.489 37.4865 216.262ZM42.8844 213.319C42.9359 212.708 42.7379 212.103 42.3333 211.634C41.9942 211.359 41.5491 211.373 40.9909 211.682C40.4045 212.027 39.9372 212.535 39.6485 213.14C39.2954 213.86 39.1073 214.646 39.0974 215.444C39.0974 215.905 39.0974 216.414 39.0974 216.971C39.0974 217.528 39.0974 218.023 39.0974 218.463C39.0691 218.763 39.1033 219.066 39.198 219.353C39.2926 219.64 39.4459 219.906 39.6485 220.134C39.9876 220.409 40.4327 220.389 40.9909 220.079C41.5754 219.735 42.0424 219.23 42.3333 218.628C42.6855 217.91 42.8735 217.126 42.8844 216.331C42.8844 215.87 42.8844 215.361 42.8844 214.811C42.8844 214.261 42.8915 213.759 42.8915 213.319H42.8844Z" fill="#FAFAFA"/>
<path d="M49.4763 204.86C50.4725 204.303 51.2214 204.227 51.7372 204.626C52.253 205.025 52.5144 205.836 52.5144 207.067C52.5191 207.899 52.3855 208.726 52.1187 209.516C51.8602 210.256 51.4598 210.942 50.9388 211.538L52.585 215.024C52.6104 215.081 52.6224 215.142 52.6204 215.203C52.6208 215.313 52.5942 215.422 52.5427 215.519C52.509 215.611 52.4442 215.689 52.359 215.74L51.3486 216.31C51.1861 216.4 51.0731 216.413 50.9954 216.31C50.9267 216.248 50.8715 216.173 50.8329 216.09L49.2502 212.83L47.6676 213.724V217.885C47.665 218.021 47.6312 218.155 47.5687 218.277C47.5246 218.388 47.4454 218.482 47.3426 218.545L46.3817 219.089C46.3506 219.116 46.3104 219.131 46.2687 219.131C46.227 219.131 46.1867 219.116 46.1556 219.089C46.1198 219.05 46.0926 219.004 46.0756 218.954C46.0586 218.905 46.0522 218.852 46.0567 218.8V207.253C46.0593 207.117 46.0931 206.983 46.1556 206.861C46.2017 206.75 46.2803 206.654 46.3817 206.586L49.4763 204.86ZM47.6888 211.489L49.4127 210.52C49.8471 210.285 50.2196 209.955 50.5008 209.557C50.793 209.078 50.9331 208.525 50.9035 207.968C50.9035 207.281 50.7693 206.93 50.5008 206.861C50.1161 206.81 49.726 206.906 49.4127 207.129L47.6888 208.099V211.489Z" fill="#FAFAFA"/>
<path d="M61.9041 206.414C61.9132 206.267 61.9566 206.123 62.0313 205.995C62.0813 205.897 62.1568 205.814 62.2503 205.754L63.2183 205.211C63.2517 205.185 63.2927 205.172 63.3349 205.172C63.377 205.172 63.418 205.185 63.4514 205.211C63.4877 205.25 63.5141 205.298 63.5288 205.349C63.5435 205.4 63.546 205.454 63.5362 205.506C63.5072 206.046 63.4268 206.583 63.296 207.109C63.1492 207.689 62.9359 208.252 62.6601 208.787C62.3646 209.353 61.9992 209.882 61.5721 210.362C61.1201 210.866 60.5853 211.293 59.9894 211.627C59.5543 211.901 59.052 212.058 58.534 212.081C58.134 212.08 57.7496 211.93 57.4601 211.661C57.1219 211.337 56.8781 210.931 56.7535 210.485C56.5776 209.895 56.4802 209.285 56.4639 208.67C56.4639 208.223 56.4639 207.728 56.4639 207.184C56.4639 206.641 56.4639 206.132 56.4639 205.664C56.4924 204.942 56.5894 204.224 56.7535 203.519C56.9128 202.846 57.1498 202.193 57.4601 201.572C57.7443 200.988 58.1053 200.443 58.534 199.949C58.9445 199.47 59.4369 199.063 59.9894 198.746C60.4634 198.446 61.0081 198.268 61.5721 198.23C61.9665 198.222 62.3515 198.348 62.6601 198.588C62.9602 198.847 63.1803 199.183 63.296 199.557C63.4342 199.986 63.515 200.429 63.5362 200.878C63.5436 201.016 63.5144 201.153 63.4514 201.277C63.3979 201.382 63.3176 201.472 63.2183 201.538L62.2503 202.081C62.2162 202.101 62.1771 202.112 62.1373 202.112C62.0975 202.112 62.0584 202.101 62.0242 202.081C61.9536 202.047 61.9112 201.951 61.8971 201.806C61.8736 201.597 61.8164 201.393 61.7275 201.201C61.6493 201.035 61.5243 200.895 61.3672 200.795C61.1935 200.699 60.9935 200.659 60.7949 200.678C60.509 200.72 60.2349 200.819 59.9894 200.967C59.6784 201.147 59.4032 201.38 59.1769 201.655C58.944 201.929 58.7492 202.232 58.5976 202.556C58.4357 202.894 58.3171 203.249 58.2443 203.615C58.1602 203.988 58.1105 204.368 58.0959 204.75C58.0959 205.211 58.0959 205.713 58.0959 206.263C58.0959 206.813 58.0959 207.308 58.0959 207.748C58.1039 208.081 58.1537 208.411 58.2443 208.732C58.3031 208.973 58.4247 209.196 58.5976 209.378C58.7515 209.529 58.9586 209.618 59.1769 209.626C59.4669 209.623 59.7496 209.537 59.9894 209.378C60.2897 209.214 60.5615 209.005 60.7949 208.759C61.016 208.526 61.2102 208.27 61.3742 207.996C61.5243 207.738 61.6474 207.466 61.7416 207.184C61.8221 206.933 61.8766 206.675 61.9041 206.414Z" fill="#FAFAFA"/>
<path d="M64.6455 200.995C64.674 200.313 64.7591 199.635 64.8998 198.966C65.0448 198.312 65.2628 197.676 65.5498 197.068C65.8337 196.479 66.1946 195.929 66.6238 195.431C67.0528 194.932 67.5695 194.51 68.1499 194.186C68.6023 193.902 69.1238 193.738 69.6618 193.712C69.8616 193.71 70.0598 193.747 70.2444 193.821C70.429 193.896 70.5962 194.006 70.7358 194.145C71.0536 194.474 71.2798 194.876 71.3928 195.314C71.5548 195.884 71.6427 196.47 71.6543 197.061C71.6543 197.281 71.6543 197.529 71.6543 197.797C71.6543 198.065 71.6543 198.354 71.6543 198.643C71.6543 198.932 71.6543 199.22 71.6543 199.496C71.6543 199.771 71.6543 200.025 71.6543 200.259C71.6327 200.939 71.5476 201.616 71.3999 202.281C71.256 202.937 71.038 203.576 70.7499 204.186C70.4652 204.773 70.1017 205.321 69.6689 205.816C69.2402 206.309 68.7261 206.726 68.1499 207.047C67.6942 207.337 67.1674 207.503 66.6238 207.528C66.4247 207.529 66.2274 207.492 66.0431 207.419C65.8588 207.346 65.6912 207.238 65.5498 207.102C65.2325 206.774 65.0084 206.371 64.8998 205.933C64.7488 205.364 64.6635 204.78 64.6455 204.193C64.6455 203.973 64.6455 203.725 64.6455 203.457C64.6455 203.189 64.6455 202.9 64.6455 202.611C64.6455 202.322 64.6455 202.033 64.6455 201.758C64.6455 201.483 64.6384 201.229 64.6455 200.995ZM70.0434 198.051C70.071 197.75 70.0366 197.446 69.9419 197.158C69.8473 196.87 69.6944 196.603 69.4923 196.373C69.1531 196.091 68.708 196.105 68.1499 196.421C67.5621 196.765 67.0943 197.273 66.8075 197.879C66.4573 198.6 66.2694 199.386 66.2564 200.183C66.2564 200.644 66.2564 201.153 66.2564 201.703C66.2564 202.253 66.2564 202.755 66.2564 203.202C66.2296 203.503 66.2646 203.805 66.3592 204.092C66.4538 204.379 66.6062 204.645 66.8075 204.874C67.1466 205.149 67.5917 205.128 68.1499 204.812C68.7355 204.472 69.2031 203.969 69.4923 203.367C69.8457 202.65 70.0338 201.866 70.0434 201.07C70.0434 200.61 70.0434 200.101 70.0434 199.551C70.0434 199 70.0575 198.498 70.0434 198.058V198.051Z" fill="#FAFAFA"/>
<path d="M76.494 189.675C76.955 189.387 77.4812 189.212 78.0271 189.166C78.225 189.153 78.4235 189.18 78.6098 189.247C78.796 189.313 78.9658 189.417 79.1081 189.551C79.4371 189.876 79.667 190.283 79.7723 190.727C79.944 191.34 80.0389 191.97 80.0549 192.605C80.0926 193.471 80.0926 194.351 80.0549 195.245C80.0281 195.983 79.9335 196.718 79.7723 197.439C79.6314 198.104 79.4109 198.75 79.1152 199.365C78.8359 199.942 78.4769 200.478 78.0483 200.96C77.6183 201.433 77.1125 201.835 76.5505 202.15L73.5477 203.835C73.516 203.861 73.476 203.875 73.4347 203.875C73.3934 203.875 73.3534 203.861 73.3217 203.835C73.2875 203.795 73.2617 203.749 73.246 203.7C73.2302 203.65 73.2247 203.598 73.2298 203.546V191.992C73.2297 191.857 73.2611 191.723 73.3217 191.6C73.3678 191.491 73.4465 191.398 73.5477 191.332L76.494 189.675ZM78.444 193.512C78.4361 193.18 78.3862 192.85 78.2956 192.529C78.2337 192.286 78.107 192.063 77.9282 191.882C77.8462 191.807 77.7497 191.748 77.6442 191.709C77.5387 191.67 77.4263 191.652 77.3135 191.656C76.9987 191.677 76.6948 191.777 76.4304 191.944L74.8336 192.838V200.878L76.494 199.949C76.8132 199.767 77.0996 199.534 77.3418 199.262C77.5768 198.986 77.7761 198.684 77.9353 198.361C78.0953 198.022 78.2162 197.667 78.2956 197.302C78.3806 196.922 78.4303 196.535 78.444 196.146C78.4817 195.252 78.4817 194.374 78.444 193.512Z" fill="#FAFAFA"/>
<path d="M87.1696 193.932C87.2007 193.905 87.2409 193.89 87.2827 193.89C87.3244 193.89 87.3646 193.905 87.3957 193.932C87.4317 193.969 87.4591 194.014 87.4761 194.063C87.4931 194.111 87.4995 194.163 87.4946 194.214V195.479C87.4921 195.618 87.4584 195.754 87.3957 195.878C87.3516 195.989 87.2724 196.083 87.1696 196.146L81.9413 199.083C81.9102 199.11 81.87 199.125 81.8282 199.125C81.7865 199.125 81.7463 199.11 81.7152 199.083C81.6794 199.044 81.6522 198.998 81.6352 198.948C81.6182 198.899 81.6117 198.846 81.6163 198.794V187.282C81.6189 187.145 81.6526 187.011 81.7152 186.89C81.7612 186.778 81.8399 186.683 81.9413 186.614L87.0778 183.733C87.1088 183.706 87.1491 183.691 87.1908 183.691C87.2325 183.691 87.2728 183.706 87.3038 183.733C87.338 183.773 87.3638 183.819 87.3795 183.868C87.3953 183.918 87.4008 183.97 87.3957 184.022V185.287C87.3958 185.423 87.3644 185.557 87.3038 185.679C87.2577 185.789 87.179 185.882 87.0778 185.947L83.2272 188.114V190.954L86.8163 188.939C86.8474 188.912 86.8877 188.897 86.9294 188.897C86.9711 188.897 87.0113 188.912 87.0424 188.939C87.0766 188.979 87.1023 189.025 87.1181 189.074C87.1339 189.124 87.1394 189.176 87.1343 189.228V190.493C87.1344 190.629 87.103 190.763 87.0424 190.885C86.9963 190.995 86.9176 191.088 86.8163 191.153L83.2272 193.168V196.139L87.1696 193.932Z" fill="#FAFAFA"/>
<path d="M66.4613 299.58L39.1752 284.244C38.6416 283.906 38.1976 283.45 37.8795 282.913C37.5615 282.377 37.3784 281.774 37.3453 281.156V277.545C37.3795 276.927 37.5631 276.325 37.881 275.788C38.199 275.252 38.6423 274.796 39.1752 274.457L69.9021 257.202C70.4701 256.921 71.0983 256.774 71.7356 256.774C72.3729 256.774 73.0011 256.921 73.569 257.202L100.827 272.525C101.36 272.863 101.803 273.319 102.121 273.856C102.439 274.392 102.623 274.994 102.657 275.613V279.209C102.624 279.828 102.441 280.43 102.123 280.967C101.805 281.504 101.361 281.96 100.827 282.297L70.1 299.566C69.5368 299.845 68.9143 299.992 68.2823 299.994C67.6504 299.996 67.0267 299.855 66.4613 299.58Z" fill="#37474F"/>
<path d="M69.9021 257.202L39.1752 274.471C38.1648 275.035 38.1648 275.963 39.1752 276.534L66.4613 291.87C67.0292 292.152 67.6575 292.299 68.2948 292.299C68.932 292.299 69.5603 292.152 70.1282 291.87L100.827 274.581C101.837 274.017 101.837 273.089 100.827 272.518L73.569 257.202C73.0011 256.921 72.3728 256.774 71.7356 256.774C71.0983 256.774 70.47 256.921 69.9021 257.202Z" fill="#455A64"/>
<path d="M68.3265 292.276V299.999C67.6893 300.011 67.0595 299.864 66.4966 299.573L39.2105 284.237C38.6781 283.899 38.235 283.444 37.9171 282.909C37.5992 282.374 37.4153 281.773 37.3806 281.156V277.538C37.4117 276.986 37.561 276.446 37.8189 275.954C38.0768 275.461 38.4377 275.026 38.8784 274.677C38.2143 275.241 38.3273 276.005 39.2105 276.507L66.4966 291.843C67.0576 292.14 67.6882 292.289 68.3265 292.276Z" fill="#263238"/>
<path d="M65.7265 275.771C65.9737 274.794 67.6977 273.825 69.4357 273.708L71.0537 273.577C71.958 273.501 72.7847 273.041 72.9119 272.532C73.039 272.023 72.4173 271.679 71.4988 271.755L69.8808 271.885C68.17 272.013 66.5086 272.504 65.0129 273.323C63.5998 274.107 62.7025 275.076 62.4552 276.073L60.9715 281.96C60.4557 283.975 62.9569 285.399 66.539 285.09L68.1569 284.959C69.8676 284.83 71.5287 284.339 73.0249 283.522C74.4379 282.731 75.3282 281.761 75.5755 280.771L76.282 277.965C76.4092 277.463 75.7874 277.112 74.8689 277.188C73.9504 277.263 73.1379 277.724 73.0108 278.226L72.3042 281.032C72.057 282.002 70.333 282.971 68.595 283.095L66.9699 283.226C65.1824 283.37 63.9319 282.662 64.1862 281.658L65.6982 275.73L65.7265 275.771ZM77.5537 273.02L79.0587 267.092C79.1745 266.61 79.1137 266.103 78.8866 265.66C78.6596 265.216 78.2806 264.864 77.8152 264.664C76.4741 264.028 74.9706 263.788 73.4912 263.976L71.8591 264.08C70.1507 264.209 68.4918 264.699 66.9982 265.517C65.5851 266.301 64.6879 267.277 64.4406 268.268L63.7906 270.833C63.6634 271.335 64.2851 271.686 65.2036 271.61C66.1221 271.534 66.9346 271.074 67.0618 270.572L67.7118 268.006C67.8212 267.706 67.9906 267.43 68.21 267.194C68.4295 266.958 68.6948 266.767 68.9906 266.631C69.7364 266.219 70.5662 265.973 71.4211 265.909L73.0461 265.778C73.7842 265.687 74.5337 265.809 75.201 266.129C75.4349 266.229 75.6253 266.405 75.739 266.628C75.8527 266.85 75.8823 267.105 75.8228 267.346L74.3178 273.274C74.0706 274.251 72.3396 275.221 70.6086 275.338C69.7113 275.413 68.8846 275.874 68.7504 276.383C68.6162 276.892 69.245 277.236 70.1635 277.16C71.8709 277.031 73.5293 276.543 75.0244 275.73C76.4374 274.939 77.3347 273.969 77.5891 272.979L77.5537 273.02Z" fill="white"/>
<path d="M92.5322 250.084V246.474C92.5654 245.855 92.7484 245.253 93.0665 244.716C93.3845 244.179 93.8285 243.724 94.3621 243.386L141.099 217.101C141.667 216.82 142.295 216.673 142.932 216.673C143.57 216.673 144.198 216.82 144.766 217.101L172.059 232.444C172.594 232.781 173.039 233.237 173.359 233.773C173.678 234.31 173.862 234.913 173.896 235.532V239.143C173.862 239.762 173.678 240.365 173.359 240.901C173.039 241.438 172.594 241.894 172.059 242.231L125.315 268.515C124.747 268.797 124.119 268.943 123.482 268.943C122.844 268.943 122.216 268.797 121.648 268.515L94.3621 253.179C93.8284 252.84 93.3844 252.383 93.0664 251.845C92.7484 251.307 92.5654 250.704 92.5322 250.084Z" fill="#E0E0E0"/>
<path d="M173.889 235.525V239.136C173.856 239.755 173.673 240.357 173.355 240.894C173.037 241.43 172.593 241.886 172.059 242.224L125.315 268.509C124.754 268.803 124.123 268.95 123.485 268.935V261.205C124.122 261.216 124.752 261.07 125.315 260.779L172.059 234.508C172.942 234.012 173.055 233.242 172.391 232.678C172.83 233.026 173.19 233.458 173.448 233.948C173.706 234.439 173.856 234.976 173.889 235.525Z" fill="#F0F0F0"/>
<path d="M102.869 257.952L95.8034 259.286V267.037C95.8064 267.173 95.8409 267.306 95.9045 267.428C95.9681 267.549 96.0591 267.654 96.1705 267.736C96.282 267.818 96.4112 267.875 96.5483 267.901C96.6854 267.928 96.8269 267.924 96.9621 267.89L113.212 263.763V256.013L102.869 257.952Z" fill="#F0F0F0"/>
<path d="M123.485 260.882C122.905 260.897 122.331 260.766 121.818 260.503L113.212 255.689L96.835 259.878H96.6725C96.5615 259.875 96.4536 259.842 96.3606 259.783C96.2676 259.724 96.1931 259.641 96.1456 259.544C96.098 259.446 96.0791 259.338 96.0911 259.23C96.103 259.123 96.1453 259.021 96.2132 258.935L103.342 250.119L94.5317 245.167C94.3598 245.124 94.2073 245.027 94.0985 244.891C93.9896 244.755 93.9305 244.587 93.9305 244.414C93.9305 244.241 93.9896 244.074 94.0985 243.937C94.2073 243.801 94.3598 243.704 94.5317 243.661L141.276 217.376C141.793 217.123 142.364 216.991 142.943 216.991C143.522 216.991 144.093 217.123 144.61 217.376L171.897 232.712C172.069 232.755 172.221 232.852 172.33 232.989C172.439 233.125 172.498 233.293 172.498 233.465C172.498 233.638 172.439 233.806 172.33 233.942C172.221 234.079 172.069 234.176 171.897 234.219L125.153 260.503C124.639 260.766 124.065 260.897 123.485 260.882Z" fill="#FAFAFA"/>
<path d="M142.943 217.314C143.465 217.305 143.982 217.42 144.448 217.651L171.734 232.988C171.996 233.139 172.165 233.318 172.165 233.462C172.165 233.607 171.996 233.792 171.734 233.944L124.99 260.221C124.522 260.447 124.007 260.565 123.485 260.565C122.963 260.565 122.448 260.447 121.98 260.221L113.502 255.456L113.269 255.325L113.007 255.394L96.7572 259.52H96.6795C96.6299 259.519 96.5816 259.504 96.5403 259.477C96.4991 259.451 96.4665 259.413 96.4464 259.369C96.424 259.326 96.4154 259.277 96.4217 259.229C96.428 259.181 96.4489 259.137 96.4817 259.1L103.37 250.573L103.844 249.995L103.187 249.624L94.7083 244.858C94.4398 244.706 94.2773 244.521 94.2773 244.376C94.2773 244.232 94.4398 244.053 94.7083 243.902L141.452 217.617C141.917 217.384 142.435 217.269 142.957 217.28M142.957 216.64C142.317 216.626 141.685 216.773 141.12 217.067L94.3762 243.352C93.3659 243.916 93.3659 244.837 94.3762 245.415L102.855 250.181L95.9659 258.708C95.8595 258.84 95.7929 258.998 95.7735 259.164C95.7541 259.33 95.7827 259.499 95.856 259.65C95.9294 259.801 96.0447 259.93 96.1889 260.021C96.3331 260.112 96.5005 260.163 96.6724 260.166C96.7546 260.176 96.8376 260.176 96.9197 260.166L113.17 256.04L121.648 260.806C122.214 261.097 122.846 261.243 123.485 261.232C124.123 261.244 124.752 261.097 125.315 260.806L172.059 234.507C173.077 233.937 173.077 233.015 172.059 232.444L144.773 217.108C144.211 216.814 143.581 216.667 142.943 216.682L142.957 216.64Z" fill="#E0E0E0"/>
<path d="M124.517 250.366C124.243 250.352 123.978 250.269 123.747 250.126L111.425 243.193C111.001 242.96 111.17 242.63 111.933 242.203L112.718 241.763C113.471 241.337 114.058 241.24 114.477 241.474L125.033 247.409L127.951 245.772C128.164 245.651 128.414 245.607 128.657 245.649C128.971 245.709 129.27 245.825 129.54 245.992L130.148 246.329C130.391 246.441 130.6 246.611 130.755 246.825C130.819 246.962 130.755 247.093 130.536 247.21L125.287 250.16C125.055 250.297 124.788 250.369 124.517 250.366Z" fill="#F54748"/>
<path d="M120.61 239.322L119.437 238.634C119.02 238.4 119.246 238.036 120.143 237.547C121.041 237.059 121.719 236.86 122.143 237.128L123.316 237.815C123.733 238.049 123.506 238.414 122.609 238.909C121.712 239.404 121.048 239.562 120.61 239.322ZM131.829 245.786L122.786 240.697C122.371 240.463 122.555 240.126 123.337 239.686L123.881 239.377C124.668 238.918 125.268 238.815 125.683 239.067L134.74 244.136C135.159 244.369 134.976 244.706 134.189 245.147L133.645 245.456C132.875 245.924 132.274 246.027 131.851 245.793L131.829 245.786Z" fill="#F54748"/>
<path d="M136.768 243.028L130.522 239.521C129.852 239.128 129.159 238.774 128.445 238.462C127.986 238.276 127.739 238.159 127.625 238.111C127.385 237.974 127.491 237.726 127.929 237.355C128.318 237.018 128.739 236.719 129.187 236.461C129.395 236.327 129.646 236.271 129.893 236.302C130.137 236.35 130.373 236.424 130.6 236.522C130.861 236.632 131.066 236.722 131.222 236.777C131.074 236.386 131.074 235.957 131.222 235.567C131.436 235.102 131.811 234.724 132.282 234.501C132.987 234.1 133.799 233.916 134.613 233.971C135.53 234.045 136.415 234.328 137.199 234.796L144.264 238.778C144.681 239.019 144.512 239.342 143.756 239.769L143.091 240.147C142.335 240.573 141.749 240.669 141.325 240.429L134.903 236.818C134.624 236.651 134.315 236.538 133.991 236.488C133.708 236.458 133.422 236.521 133.179 236.667C133.01 236.742 132.879 236.878 132.813 237.047C132.747 237.215 132.751 237.403 132.826 237.568L139.686 241.385C139.898 241.502 139.961 241.639 139.884 241.804C139.705 242.049 139.46 242.242 139.177 242.361L138.471 242.746C137.771 243.173 137.185 243.262 136.768 243.028Z" fill="#F54748"/>
<path d="M154.297 233.531C154.509 233.648 154.297 233.895 153.59 234.281L152.495 234.893C152.315 235.01 152.114 235.094 151.902 235.14C151.722 235.177 151.537 235.177 151.358 235.14L145.133 233.6L144.914 233.723L149.153 236.103C149.573 236.337 149.403 236.667 148.645 237.093L148.016 237.444C147.258 237.87 146.671 237.967 146.257 237.733L132.705 230.113C132.282 229.879 132.451 229.549 133.214 229.123L133.836 228.772C134.599 228.345 135.185 228.249 135.602 228.483L143.748 233.063L143.847 233.008L141.594 229.872C141.502 229.735 141.481 229.625 141.523 229.556C141.658 229.423 141.816 229.314 141.989 229.233L143.007 228.662C143.713 228.263 144.172 228.125 144.42 228.256C144.531 228.337 144.622 228.44 144.688 228.559L147.02 231.942L153.817 233.407C153.981 233.429 154.143 233.47 154.297 233.531Z" fill="#F54748"/>
<path d="M186.628 263.082C186.691 266.48 186.967 271.425 186.628 272.834C186.289 274.244 180.467 275.585 175.917 275.819C171.367 276.053 165.891 275.338 165.566 278.446C165.241 281.555 168.081 283.673 170.173 284.636C173.705 286.231 177.683 285.887 181.166 285.385C184.649 284.883 186.501 285.255 190.182 286.128C193.863 287.001 195.933 286.465 197.501 285.695C199.833 284.56 199.211 280.688 198.391 278.164C197.572 275.64 197.685 273.35 197.967 269.836C198.25 266.322 199.296 261.232 199.296 261.232L186.628 263.082Z" fill="#FFBDA7"/>
<path d="M198.391 278.143C198.391 278.143 198.391 279.216 196.003 279.705C193.615 280.193 189.645 280.062 186.889 280.241C182.735 280.502 179.577 280.963 174.815 280.241C170.632 279.601 170.809 276.376 174.553 275.86C170.314 275.929 165.863 275.647 165.566 278.446C165.234 281.589 168.081 283.673 170.173 284.636C173.705 286.231 177.683 285.887 181.166 285.385C184.649 284.883 186.501 285.255 190.182 286.128C193.863 287.001 195.933 286.465 197.501 285.695C199.833 284.539 199.211 280.667 198.391 278.143Z" fill="#455A64"/>
<path d="M229.846 254.651C231.796 257.402 235.025 262.615 235.498 263.915C235.972 265.214 236.346 270.063 235.498 271.479C234.276 272.346 232.361 272.855 230.722 273.632C228.362 274.767 227.854 276.651 229.401 278.088C231.521 280.104 235.053 280.337 237.123 280.22C240.176 279.767 240.387 276.438 240.826 273.494C241.264 270.551 240.72 264.767 243.037 261.212C245.354 257.656 249.396 257.319 249.926 258.502C249.678 256.714 248.661 256.659 246.464 255.449C244.266 254.238 242.345 254.273 241.129 251.46C239.716 248.138 238.374 244.163 238.374 244.163L229.846 254.651Z" fill="#FFBDA7"/>
<path d="M234.142 280.296C236.332 280.654 237.872 280.647 241.765 278.79C245.121 277.188 246.004 276.514 246.485 275.62C247.297 274.244 246.421 270.744 247.128 267.745C247.648 265.638 248.392 263.589 249.346 261.631C250.102 259.816 250.053 259.032 249.926 258.502C249.664 257.367 247.29 257.223 245.029 258.502C242.769 259.781 241.306 262.216 240.564 268.013C239.822 273.811 240.967 280.152 234.142 280.296Z" fill="#263238"/>
<path d="M249.904 258.502C249.657 256.714 249.021 256.439 246.817 255.236C246.004 254.789 245.199 254.465 244.45 254.087C242.33 253.695 238.96 255.325 238.798 259.678C238.635 264.032 239.391 269.547 238.049 271.596C236.904 273.336 235.018 273.219 235.456 271.493C232.432 272.573 231.393 272.587 229.691 273.495C227.727 274.54 227.062 277.277 228.878 278.377C231.279 279.969 234.205 280.631 237.081 280.234C240.133 279.78 240.345 276.452 240.783 273.508C241.221 270.565 240.72 264.767 243.037 261.212C245.354 257.656 249.396 257.319 249.904 258.502Z" fill="#455A64"/>
<path d="M230.425 256.377C230.425 256.377 219.34 240.525 213.412 230.244C209.032 222.679 208.636 221.179 207.562 216.214C205.252 205.541 204.736 203.037 204.736 203.037L201.295 224.597C201.846 226.936 202.956 231.571 202.998 234.294C202.968 239.617 202.524 244.93 201.67 250.188C200.872 256.113 199.747 261.992 198.3 267.8C197.438 268.385 194.936 268.488 192.76 268.426C190.648 268.303 188.559 267.924 186.543 267.298C186.543 267.298 184.734 241.894 184.31 234.9C183.809 226.516 183.604 223.208 183.364 218.614C182.933 211.283 181.908 200.658 182.198 187.185C182.784 160.364 188.917 148.143 188.917 148.143L220.004 143.941C222.583 152.971 227.946 154.023 228.482 166.347C228.617 169.146 227.069 174.703 227.069 179.043C226.907 193.127 225.614 215.251 225.614 215.251C229.027 218.319 231.528 221.083 233.88 228.194C235.293 232.506 238.494 243.427 239.829 247.863C235.88 247.87 230.376 254.651 230.425 256.377Z" fill="#455A64"/>
<path d="M199.034 163.603L199.854 163.479C200.56 168.335 201.769 173.843 202.426 174.284C203.57 175.04 207.795 175.659 208.749 175.425C209.703 175.191 210.537 174.442 212.225 172.207C213.412 170.639 213.285 169.662 213.002 167.523C212.904 166.725 212.783 165.818 212.706 164.676L213.539 164.621C213.61 165.735 213.73 166.629 213.829 167.42C214.112 169.573 214.281 170.859 212.889 172.709C211.067 175.123 210.141 175.948 208.94 176.23C208.766 176.267 208.588 176.29 208.41 176.299C206.736 176.367 203.097 175.721 201.966 174.971C200.659 174.132 199.366 166.058 199.034 163.603Z" fill="#37474F"/>
<path d="M186.274 162.888L187.073 163.115C184.72 171.368 185.236 178.884 189.447 181.175C190.217 175.618 191.298 169.875 192.789 163.727L193.594 163.92C188.804 183.712 188.224 199.303 188.839 218.043C189.313 232.321 190.252 256.858 190.676 268.247L189.835 268.11C189.397 256.652 188.479 232.279 188.012 218.071C187.589 205.389 187.73 194.131 189.334 182.048C184.508 179.662 183.745 171.718 186.274 162.888Z" fill="#37474F"/>
<path d="M228.129 170.274C227.611 170.756 226.984 171.114 226.299 171.319C224.985 171.381 222.816 169.559 222.194 168.19C221.897 167.4 221.711 166.574 221.643 165.735C221.516 164.491 221.28 163.26 220.937 162.056L221.735 161.822C222.077 163.071 222.313 164.345 222.442 165.632C222.493 166.4 222.648 167.158 222.901 167.888C223.424 169.043 225.324 170.563 226.2 170.529C226.993 170.133 227.696 169.589 228.271 168.926C228.271 169.298 228.193 169.861 228.129 170.274Z" fill="#37474F"/>
<path d="M233.032 252.113C233.23 251.893 233.421 251.68 233.626 251.474C228.32 242.464 216.924 222.754 215.906 217.975C214.599 211.847 212.374 191.318 212.268 180.274H211.434C211.526 191.36 213.78 211.984 215.094 218.14C216.154 223.153 227.762 243.173 233.032 252.113Z" fill="#37474F"/>
<path d="M216.775 160.385C218.895 163.651 220.167 169.38 217.439 175.659L216.698 175.363C219.291 169.373 218.111 163.947 216.097 160.859L216.775 160.385Z" fill="#37474F"/>
<path d="M204.687 203.044L208.064 180.439C208.064 180.439 216.804 179.249 218.012 171.271C218.224 176.003 216.281 180.074 210.855 182.275L206.516 203.14L207.534 216.207L204.687 203.044Z" fill="#37474F"/>
<path d="M147.408 100.635V77.3145C147.449 77.0978 147.422 76.8742 147.33 76.6729C147.238 76.4717 147.085 76.3022 146.893 76.1866C146.695 76.0776 146.467 76.031 146.24 76.0532C146.014 76.0753 145.8 76.1652 145.628 76.3104L135.157 82.1973C134.948 82.3386 134.775 82.5251 134.653 82.7423C134.53 82.9595 134.461 83.2014 134.451 83.449V106.77C134.407 106.986 134.434 107.21 134.528 107.411C134.621 107.612 134.777 107.779 134.973 107.89C135.169 108 135.396 108.049 135.621 108.028C135.847 108.007 136.06 107.918 136.231 107.774L146.709 101.887C146.932 101.76 147.115 101.577 147.238 101.356C147.361 101.135 147.42 100.886 147.408 100.635Z" fill="#37474F"/>
<path d="M146.751 100.869L135.984 106.921V83.4972L134.634 82.7407C134.504 82.9485 134.431 83.1853 134.422 83.4284V106.749C134.387 106.966 134.418 107.189 134.511 107.389C134.603 107.589 134.755 107.759 134.945 107.877C135.144 107.98 135.369 108.023 135.593 108.001C135.817 107.979 136.029 107.893 136.203 107.753L146.681 101.866C146.968 101.715 147.192 101.472 147.316 101.179H147.274L146.751 100.869Z" fill="#263238"/>
<path d="M146.652 77.1013L136.153 83.002C136.003 83.0998 135.877 83.2301 135.786 83.3827C135.696 83.5354 135.642 83.7063 135.63 83.8823V107.004C135.63 107.499 135.991 107.691 136.436 107.451L146.659 101.708C146.83 101.598 146.972 101.45 147.074 101.277C147.176 101.104 147.235 100.91 147.246 100.711V77.4314C147.239 77.0669 146.977 76.9225 146.652 77.1013Z" fill="#455A64"/>
<path d="M146.751 78.6006V100.126C146.74 100.316 146.684 100.5 146.585 100.664C146.487 100.828 146.35 100.966 146.186 101.068L136.718 106.391C136.408 106.57 136.16 106.391 136.16 106.082V84.3843C136.178 84.0718 136.32 83.7783 136.556 83.5659L136.605 83.5178L136.718 83.4421L139.382 81.9498L139.559 81.8466C139.651 81.7985 139.728 81.8466 139.728 81.9498C139.728 82.0529 139.813 82.0942 139.919 82.0392L143.021 80.2923C143.073 80.26 143.116 80.2165 143.148 80.1653C143.18 80.114 143.199 80.0563 143.204 79.9966C143.208 79.9414 143.223 79.8876 143.25 79.8389C143.277 79.7901 143.314 79.7477 143.36 79.7147L145.967 78.2498H146.016C146.412 77.9885 146.751 78.1673 146.751 78.6006Z" fill="#263238"/>
<path d="M145.967 78.236V99.6173C145.956 99.8066 145.899 99.9906 145.8 100.154C145.702 100.318 145.566 100.457 145.402 100.56L136.153 105.766V84.3843C136.171 84.0718 136.313 83.7782 136.549 83.5659L136.598 83.5177L136.711 83.4421L139.375 81.9497L139.552 81.8466C139.644 81.7984 139.721 81.8466 139.721 81.9497C139.721 82.0529 139.806 82.0942 139.912 82.0391L143.014 80.2923C143.065 80.26 143.109 80.2165 143.141 80.1652C143.173 80.114 143.192 80.0563 143.197 79.9966C143.201 79.9414 143.216 79.8875 143.243 79.8388C143.27 79.7901 143.307 79.7477 143.353 79.7146L145.967 78.236Z" fill="white"/>
<path d="M140.392 81.1451L141.805 80.3473C141.89 80.2992 141.954 80.3473 141.954 80.423C141.951 80.4727 141.936 80.521 141.91 80.564C141.884 80.6071 141.848 80.6436 141.805 80.6705L140.392 81.4683C140.308 81.5164 140.244 81.4683 140.244 81.3926C140.247 81.3429 140.262 81.2946 140.288 81.2516C140.314 81.2085 140.349 81.1721 140.392 81.1451Z" fill="#263238"/>
<path d="M142.512 79.8385C142.611 79.7903 142.689 79.8385 142.689 79.9347C142.686 79.9942 142.668 80.0521 142.637 80.1036C142.607 80.155 142.564 80.1986 142.512 80.2305C142.42 80.2855 142.342 80.2305 142.342 80.1342C142.346 80.0756 142.363 80.0185 142.392 79.9672C142.421 79.916 142.462 79.8719 142.512 79.8385Z" fill="#263238"/>
<path d="M135.383 86.4131C135.381 86.3178 135.356 86.2245 135.309 86.1407C135.262 86.057 135.196 85.9853 135.115 85.9317C135.086 85.9154 135.053 85.9068 135.019 85.9068C134.986 85.9068 134.953 85.9154 134.924 85.9317L134.719 86.0486C134.69 86.0698 134.666 86.098 134.652 86.1306C134.637 86.1631 134.631 86.1988 134.634 86.2343V88.2493C134.637 88.3452 134.664 88.4389 134.712 88.5227C134.76 88.6065 134.828 88.6778 134.91 88.7307C134.937 88.7452 134.967 88.7527 134.998 88.7527C135.029 88.7527 135.059 88.7452 135.086 88.7307L135.298 88.6138C135.329 88.592 135.353 88.5626 135.368 88.5288C135.383 88.4949 135.388 88.4578 135.383 88.4212V86.4131Z" fill="#455A64"/>
<path d="M135.178 86.5231V88.5381C135.178 88.717 135.058 88.7926 134.91 88.7101C134.828 88.6572 134.76 88.5859 134.712 88.5021C134.664 88.4183 134.637 88.3245 134.634 88.2287V86.2136C134.634 86.0348 134.754 85.9592 134.91 86.0417C134.99 86.0961 135.056 86.168 135.102 86.2515C135.149 86.3351 135.175 86.4281 135.178 86.5231Z" fill="#37474F"/>
<path d="M135.383 89.9342C135.38 89.8383 135.354 89.7443 135.307 89.6596C135.261 89.5749 135.195 89.5018 135.115 89.446C135.085 89.4309 135.053 89.423 135.019 89.423C134.986 89.423 134.953 89.4309 134.924 89.446L134.719 89.5629C134.69 89.5841 134.666 89.6123 134.652 89.6449C134.637 89.6774 134.631 89.7131 134.634 89.7486V91.7636C134.637 91.8595 134.664 91.9532 134.712 92.037C134.76 92.1208 134.828 92.1921 134.91 92.245C134.937 92.2594 134.967 92.267 134.998 92.267C135.029 92.267 135.059 92.2594 135.086 92.245L135.298 92.1281C135.329 92.1063 135.353 92.0769 135.368 92.043C135.383 92.0092 135.388 91.9721 135.383 91.9355V89.9342Z" fill="#455A64"/>
<path d="M135.178 90.0443V92.0593C135.178 92.2381 135.058 92.3138 134.91 92.2312C134.828 92.1784 134.76 92.107 134.712 92.0233C134.664 91.9395 134.637 91.8457 134.634 91.7498V89.7348C134.634 89.556 134.754 89.4804 134.91 89.5629C134.99 89.6173 135.056 89.6892 135.102 89.7727C135.149 89.8563 135.175 89.9493 135.178 90.0443Z" fill="#37474F"/>
<path d="M222.611 107.43C228.263 108.737 231.33 110.263 233.661 117.746C235.866 124.829 239.554 136.789 240.522 141.864C240.995 144.333 241.228 146.678 237.696 148.143C229.712 151.43 222.018 153.734 222.018 153.734L218.902 144.56L227.437 140.434L225.317 133.749L222.611 107.43Z" fill="#FFBDA7"/>
<path d="M227.423 140.42C228.144 142.012 229.386 143.328 230.955 144.161C228.878 144.409 226.85 142.291 226.32 140.963L227.423 140.42Z" fill="#F0997A"/>
<path d="M195.134 80.0241C194.145 78.7381 194.286 76.8124 194.993 75.3682C195.7 73.924 197.07 72.4316 200.857 70.843C205.365 68.9518 217.651 67.7001 222.364 75.7052C223.07 76.9018 210.219 98.07 210.473 102.568C207.647 99.2391 198.398 87.5753 198.398 87.5753C196.088 86.4268 194.71 85.5121 194.364 83.2633C194.263 82.1315 194.533 80.9977 195.134 80.0241Z" fill="#263238"/>
<path d="M196.477 86.2274C196.477 86.2274 192.888 91.124 193.213 91.5641C193.918 92.1949 194.679 92.7633 195.488 93.2628L196.477 86.2274Z" fill="#F0997A"/>
<path d="M201.154 77.177C198.921 78.0229 196.915 79.5015 195.926 84.0542C195.657 85.244 196.505 86.9633 195.926 88.5382C193.545 95.271 195.353 101.151 196.632 102.506C197.501 103.421 202.284 104.136 204.906 103.627C208.149 102.98 215.277 100.422 218.923 95.8143C223.219 90.3882 224.681 82.7957 220.591 79.4258C214.868 74.6943 203.542 76.2761 201.154 77.177Z" fill="#FFBDA7"/>
<path d="M216.599 99.5624L217.008 106.405C220.909 108.627 212.833 111.522 204.291 107.953L203.669 101.763L216.599 99.5624Z" fill="#FFBDA7"/>
<path d="M203.938 104.596C204.093 106.178 204.256 108.544 201.733 109.197C199.366 109.816 195.537 110.195 191.799 111.556C191.799 111.556 205.259 113.619 212.289 112.492C219.319 111.364 220.576 106.935 220.576 106.935C218.033 106.605 216.973 106.192 216.874 104.596H203.938Z" fill="#FFBDA7"/>
<path d="M196.915 102.712C197.996 103.4 200.447 104.019 203.86 103.792L203.705 102.079C202.634 102.407 201.534 102.638 200.419 102.767C199.255 102.917 198.074 102.899 196.915 102.712Z" fill="#F0997A"/>
<path d="M197.784 79.4189C197.452 82.3967 199.31 83.4765 200.61 84.1573C200.002 85.2206 199.716 86.4292 199.783 87.6441C199.981 89.1777 200.49 90.4637 201.981 91.0827C202.892 91.4541 203.203 91.0827 203.584 90.395C204.135 89.4046 204.849 87.8779 207.082 88.3318C209.646 88.8613 210.056 92.6988 208.361 95.0784C208.032 95.5823 207.582 96.0013 207.051 96.2995C206.519 96.5977 205.921 96.7663 205.308 96.7908C204.973 96.7628 204.648 96.6655 204.354 96.5054C204.06 96.3453 203.805 96.1261 203.606 95.8624C203.606 95.8624 203.535 99.1841 207.767 101.447C207.767 101.447 212.006 104.198 216.627 103.187C218.832 101.129 220.922 98.9575 222.887 96.6808C228.157 90.2987 229.246 78.1672 221.283 75.4026C220.901 75.2719 214.352 73.6558 210.685 74.1716C199.543 75.6983 197.84 78.9031 197.784 79.4189Z" fill="#263238"/>
<path d="M222.35 75.7052C223.607 75.7052 227.409 77.5964 227.401 85.8216C227.401 91.3715 225.988 98.8058 224.166 102.286C219.276 107.533 205.089 108.537 198.858 106.336C202.913 104.528 203.641 99.6242 203.62 95.828C205.471 98.5789 208.862 99.2047 212.96 97.2034C217.058 95.2022 222.35 75.7052 222.35 75.7052Z" fill="#263238"/>
<path d="M228.094 114.238C226.921 108.682 223.855 107.478 222.442 107.237C220.244 106.859 218.909 106.639 218.909 106.639C218.951 107.327 219.397 108.86 213.087 109.631C209.025 110.126 202.03 109.115 202.03 109.115L195.777 109.94C193.467 111.316 187.801 116.639 185.13 122.78C183.01 127.635 183.809 132.58 187.574 136.191C187.864 139.237 187.355 145.275 187.355 145.275C185.186 156.279 183.978 160.921 183.978 160.921C183.978 160.921 186.939 165.426 206.107 165.006C220.944 164.683 227.797 158.225 227.797 158.225C227.366 156.066 225.819 151.444 223.014 144.258C223.367 137.229 230.63 126.246 228.094 114.238Z" fill="#F54748"/>
<path d="M163.906 117.677C163.906 117.677 149.577 109.115 148.715 107.966C147.959 106.983 148.009 105.759 147.839 104.603C147.625 103.281 147.216 101.995 146.624 100.786C146.25 99.9887 145.734 99.2391 145.409 98.4276C145.084 97.6161 145.14 96.8527 144.858 96.0962C144.575 95.3397 143.784 95.5804 143.289 96.0962C142.687 96.8497 142.408 97.8014 142.512 98.7508C142.512 99.1703 142.554 99.5898 142.583 100.009C142.653 100.395 142.681 100.787 142.667 101.178C142.656 101.383 142.577 101.578 142.441 101.736C142.116 102.018 141.509 101.577 141.24 101.364C139.468 99.9448 138.007 98.1931 136.945 96.2131C136.492 95.3603 136.238 94.4732 135.694 93.6479C135.234 92.8781 134.655 92.1822 133.977 91.5847C133.532 91.1678 132.973 90.8838 132.366 90.7664C131.391 90.8214 131.928 92.465 132.006 92.9877C132.136 93.5739 132.095 94.184 131.886 94.7483C131.605 95.4088 131.605 96.1509 131.886 96.8114C132.098 97.4992 132.515 98.3244 132.38 99.0534C132.315 99.3128 132.233 99.5678 132.133 99.8168C131.962 100.614 132.051 101.444 132.387 102.189C132.723 102.879 132.788 103.664 132.571 104.397C132.218 106.109 133.603 107.836 134.691 109.074C135.954 110.43 137.377 111.638 138.93 112.67C139.75 113.241 140.527 113.867 141.36 114.417C142.194 114.967 142.908 115.325 143.621 115.868C145.303 117.168 151.718 123.234 159.165 129.107C161.631 131.046 162.387 131.72 167.163 130.881C175.754 129.375 177.69 128.956 182.827 128.027C190.662 126.611 191.63 126.377 191.63 126.377C196.512 124.314 197.197 118.612 197.325 115.765C197.452 113.717 196.916 111.682 195.791 109.947C191.319 110.146 187.461 111.164 180.304 113.2C171.847 115.6 163.906 117.677 163.906 117.677Z" fill="#FFBDA7"/>
<path d="M208.29 64.4541L205.577 59.4887L207.76 53.3542V49.5992L201.076 53.3542V57.1092L203.952 61.9233C203.997 61.9958 204.063 62.0533 204.143 62.0883L208.29 64.4541Z" fill="#F54748"/>
<path opacity="0.2" d="M208.29 64.4541L205.577 59.4887L207.76 53.3542V49.5992L201.076 53.3542V57.1092L203.952 61.9233C203.997 61.9958 204.063 62.0533 204.143 62.0883L208.29 64.4541Z" fill="black"/>
<path d="M222.64 16.7742C222.602 16.0972 222.401 15.4384 222.053 14.8515C221.704 14.2647 221.217 13.7664 220.633 13.3975L219.001 12.476C218.38 12.1707 217.694 12.0117 216.998 12.0117C216.302 12.0117 215.616 12.1707 214.995 12.476L191.969 25.4808C191.38 25.851 190.89 26.3521 190.539 26.9427C190.187 27.5333 189.985 28.1966 189.949 28.8782V59.5369C189.986 60.2139 190.187 60.8727 190.536 61.4596C190.884 62.0464 191.371 62.5447 191.955 62.9136L193.587 63.8283C194.207 64.1367 194.894 64.2976 195.59 64.2976C196.287 64.2976 196.973 64.1367 197.593 63.8283L205.273 59.4956L208.142 64.3097C208.182 64.3789 208.242 64.4354 208.314 64.4724C208.386 64.5093 208.468 64.525 208.55 64.5178C208.631 64.5105 208.708 64.4805 208.773 64.4314C208.837 64.3823 208.885 64.3161 208.912 64.2409L211.943 55.6994L220.633 50.789C221.216 50.4189 221.702 49.9203 222.05 49.3337C222.399 48.7471 222.601 48.0889 222.64 47.4123V16.7742Z" fill="#F54748"/>
<path opacity="0.2" d="M189.948 59.5162C189.986 60.1932 190.187 60.8521 190.535 61.4389C190.884 62.0258 191.371 62.524 191.955 62.893L193.587 63.8076C194.151 64.0848 194.769 64.2423 195.399 64.2695C196.03 64.2968 196.66 64.1933 197.247 63.9658C196.307 64.3166 195.586 63.7939 195.586 62.6867V32.0279C195.611 31.3502 195.813 30.6899 196.173 30.1092L190.521 26.9388C190.162 27.5198 189.96 28.18 189.934 28.8575L189.948 59.5162Z" fill="black"/>
<path opacity="0.3" d="M222.576 16.2172C222.336 15.3919 221.566 15.1237 220.64 15.6464L197.621 28.6512C197.027 29.0076 196.539 29.5105 196.208 30.1092L190.556 26.9457C190.891 26.35 191.378 25.848 191.969 25.4877L215.009 12.476C215.631 12.1739 216.317 12.0166 217.012 12.0166C217.707 12.0166 218.393 12.1739 219.015 12.476L220.654 13.3975C221.152 13.718 221.579 14.1328 221.909 14.6172C222.24 15.1016 222.466 15.6458 222.576 16.2172Z" fill="white"/>
<path d="M215.172 26.2579C213.335 25.2263 210.996 25.3983 208.594 26.7462C203.274 29.7516 198.893 37.8186 198.893 44.7508C198.893 48.4645 200.158 51.3048 202.362 52.5427C203.156 52.9921 204.058 53.2293 204.976 53.2305C206.375 53.1786 207.736 52.7733 208.926 52.0544C214.274 49.0491 218.619 40.9683 218.619 34.0498C218.633 30.3361 217.404 27.5027 215.172 26.2579ZM199.628 44.1387C199.828 40.5475 200.89 37.052 202.73 33.9329C203.159 34.132 203.616 34.2709 204.086 34.3456C203.039 36.9812 202.468 39.7732 202.397 42.5982L199.628 44.1387ZM209.131 39.5791L214.451 36.5875C214.326 39.2515 213.751 41.8772 212.748 44.3588C211.485 44.3489 210.24 44.6518 209.131 45.2391V39.5791ZM209.131 38.7951V33.1764C210.577 32.297 211.867 31.1962 212.953 29.9166C213.997 31.7137 214.52 33.7534 214.465 35.8173L209.131 38.7951ZM209.131 32.358V27.4133C209.803 27.4978 210.451 27.7123 211.037 28.0442C211.623 28.376 212.135 28.8186 212.543 29.3458C211.56 30.5132 210.406 31.5328 209.117 32.3718L209.131 32.358ZM208.424 32.7707C207.406 33.3543 206.256 33.6849 205.075 33.7335C205.939 31.6899 207.064 29.7605 208.424 27.991V32.7707ZM204.8 34.4143H204.983C206.187 34.3795 207.365 34.0709 208.424 33.5134V39.194L203.097 42.1925C203.22 39.5312 203.793 36.908 204.793 34.4281L204.8 34.4143ZM208.424 39.9711V45.6036C206.976 46.4857 205.683 47.5887 204.595 48.8703C203.548 47.0743 203.025 45.0339 203.083 42.9696L208.424 39.9711ZM208.424 46.4082V51.3736C207.751 51.29 207.101 51.0759 206.514 50.744C205.926 50.4121 205.413 49.9691 205.005 49.4411C205.985 48.278 207.134 47.2609 208.417 46.422L208.424 46.4082ZM209.131 45.9956C210.148 45.4152 211.295 45.0847 212.473 45.0328C211.61 47.0756 210.487 49.0048 209.131 50.7753V45.9956ZM215.157 36.1887L217.934 34.6344C217.727 38.2254 216.663 41.7198 214.825 44.8402C214.395 44.6411 213.939 44.5022 213.469 44.4276C214.505 41.7988 215.071 39.017 215.143 36.2024L215.157 36.1887ZM217.948 33.8435L215.122 35.4184C215.127 33.2781 214.528 31.1776 213.391 29.3458C213.996 28.5998 214.551 27.8165 215.051 27.0007C216.853 28.1904 217.892 30.6387 217.934 33.8573L217.948 33.8435ZM214.479 26.6568C214.025 27.3927 213.527 28.1022 212.988 28.7819C212.2 27.8309 211.117 27.1531 209.901 26.8494C210.738 26.4766 211.644 26.2752 212.564 26.2579C213.221 26.2608 213.869 26.4015 214.465 26.6706L214.479 26.6568ZM207.152 28.5618C206.025 30.1689 205.078 31.8889 204.326 33.6922C203.883 33.6406 203.451 33.5198 203.047 33.3346C204.138 31.5439 205.52 29.9368 207.138 28.5756L207.152 28.5618ZM199.614 44.9296L202.405 43.3547C202.394 45.4957 202.994 47.5975 204.136 49.4273C203.531 50.1733 202.976 50.9567 202.475 51.7725C200.674 50.6171 199.642 48.1344 199.6 44.9434L199.614 44.9296ZM203.083 52.1095C203.535 51.3759 204.03 50.6687 204.566 49.9913C205.348 50.9421 206.427 51.6183 207.64 51.9169C206.938 52.2698 206.166 52.4709 205.377 52.5065C204.588 52.5421 203.801 52.4114 203.069 52.1232L203.083 52.1095ZM210.381 50.1976C211.513 48.5903 212.46 46.8677 213.207 45.0603C213.65 45.1152 214.081 45.2358 214.486 45.4179C213.398 47.2207 212.011 48.8357 210.381 50.1976Z" fill="white"/>
</svg>
