<svg width="257" height="317" viewBox="0 0 257 317" fill="none" xmlns="http://www.w3.org/2000/svg">
<path opacity="0.1" d="M114.614 1.86833C114.614 1.75933 114.614 1.65032 114.563 1.54858C114.512 1.44685 114.563 1.40325 114.512 1.33058C114.515 1.3137 114.515 1.29658 114.512 1.27971C114.5 1.22983 114.483 1.18119 114.461 1.13437C114.466 1.10788 114.466 1.08092 114.461 1.05443C114.442 0.999236 114.417 0.945767 114.389 0.89456C114.335 0.779554 114.267 0.672057 114.186 0.574813C114.156 0.532775 114.122 0.493826 114.084 0.458542C114.051 0.416706 114.012 0.379981 113.968 0.34954C113.907 0.29776 113.842 0.25155 113.772 0.211466L113.656 0.146063C113.308 0.0144929 112.932 -0.0291377 112.563 0.0190197C112.194 0.067177 111.842 0.205644 111.538 0.422208L3.06613 63.0851C2.12996 63.6684 1.36036 64.4846 0.832138 65.4541C0.752061 65.5843 0.681752 65.7204 0.621793 65.861C0.563767 65.9701 0.512994 66.0791 0.462221 66.1881C0.396759 66.3254 0.338652 66.466 0.288145 66.6095C0.230119 66.7549 0.186596 66.9002 0.143077 67.0456C0.0995573 67.1909 0.0850503 67.2563 0.0632906 67.3653C0.056814 67.3891 0.056814 67.4142 0.0632906 67.438C0.0632906 67.5324 0.0197753 67.6269 0.00526886 67.7214C0.00177386 67.7843 0.00177386 67.8474 0.00526886 67.9103C0.00526886 67.9975 0.00526886 68.0775 0.00526886 68.1647C-0.00175629 68.3002 -0.00175629 68.4361 0.00526886 68.5716V259.692C0.00526886 259.809 0.00526886 259.91 0.00526886 260.019C0.00526886 260.128 0.00526886 260.208 0.00526886 260.303C0.0193072 260.404 0.0411297 260.503 0.0705454 260.601L0.114063 260.746C0.133828 260.811 0.158069 260.874 0.1866 260.935C0.274241 261.145 0.402425 261.335 0.563766 261.494L0.679821 261.611L0.759601 261.662L0.875656 261.727C1.00416 261.796 1.14053 261.85 1.28184 261.887H1.44866H1.65901C2.17256 261.873 2.67317 261.722 3.10966 261.451L111.488 198.861C112.408 198.26 113.175 197.45 113.724 196.497C114.274 195.543 114.591 194.473 114.65 193.374V2.25348C114.628 2.10814 114.621 1.9846 114.614 1.86833Z" fill="black"/>
<path d="M121.417 5.74891C121.417 5.63991 121.417 5.5309 121.367 5.42917C121.316 5.32743 121.367 5.28383 121.316 5.21116C121.318 5.19429 121.318 5.17716 121.316 5.16029C121.303 5.11042 121.286 5.06177 121.265 5.01495C121.269 4.98846 121.269 4.9615 121.265 4.93501C121.245 4.87982 121.221 4.82635 121.193 4.77514C121.139 4.66014 121.071 4.55264 120.99 4.4554C120.96 4.41336 120.926 4.37441 120.888 4.33913C120.855 4.29729 120.816 4.26056 120.772 4.23012C120.711 4.17834 120.645 4.13213 120.576 4.09205L120.46 4.02665C119.785 3.62696 118.088 2.64593 117.595 2.36252C117.24 2.19729 116.847 2.13101 116.458 2.17066C116.069 2.21031 115.697 2.35441 115.383 2.58779L6.91052 65.2507C5.97397 65.8359 5.20243 66.6514 4.66927 67.6197C4.52392 67.8649 4.39548 68.1199 4.28485 68.3827C4.17605 68.6443 4.07451 68.9059 3.99472 69.1675L3.88592 69.5672C3.79804 69.9511 3.75183 70.3434 3.74811 70.7372V261.858C3.74811 261.952 3.74811 262.047 3.74811 262.134C3.74811 262.221 3.74811 262.308 3.74811 262.388L3.79163 262.628C3.80326 262.705 3.8227 262.78 3.84965 262.853C3.90891 263.034 3.98925 263.207 4.08901 263.369C4.18397 263.52 4.30422 263.653 4.44442 263.762C4.50254 263.812 4.56575 263.856 4.633 263.893L5.177 264.205L6.13443 264.765L7.12087 265.331L7.39649 265.491L7.47627 265.542L7.59233 265.608C7.72084 265.677 7.85721 265.731 7.99851 265.767H8.16534H8.37568C8.88923 265.753 9.38983 265.603 9.82632 265.331L118.27 202.741C119.19 202.14 119.957 201.33 120.506 200.377C121.055 199.424 121.373 198.354 121.432 197.255V6.13406C121.432 5.98872 121.425 5.86518 121.417 5.74891ZM24.0644 70.0032C24.0604 69.9282 24.0604 69.853 24.0644 69.778C24.0644 69.6835 24.0644 69.589 24.0644 69.4873C24.1231 68.372 24.4441 67.2863 25.0012 66.3189C25.5584 65.3515 26.3359 64.5298 27.2704 63.9208L27.4952 63.8045C27.6682 63.7199 27.8477 63.6494 28.032 63.5938H28.1335C28.2146 63.8972 28.256 64.2099 28.2568 64.524C28.1953 65.6376 27.8731 66.7212 27.3161 67.6869C26.7592 68.6527 25.9832 69.4736 25.0509 70.0832C24.7778 70.2417 24.4852 70.3639 24.1805 70.4465C24.1281 70.3027 24.0893 70.1543 24.0644 70.0032ZM96.3068 27.6806C96.3657 26.5661 96.6861 25.4813 97.2419 24.5142C97.7976 23.547 98.5731 22.7248 99.5054 22.1141C99.5967 22.0599 99.6912 22.0114 99.7883 21.9687L99.9479 21.8961L100.165 21.8161L100.376 21.7653C100.455 22.064 100.494 22.3719 100.492 22.6809C100.433 23.7962 100.112 24.8819 99.5551 25.8493C98.9979 26.8166 98.2204 27.6384 97.2859 28.2474C97.0174 28.4083 96.7265 28.5283 96.4228 28.6035C96.344 28.3022 96.305 27.9919 96.3068 27.6806Z" fill="#37474F"/>
<path d="M6.70722 72.4595V263.58C6.67734 263.935 6.72696 264.292 6.85245 264.625C6.97794 264.958 7.17613 265.259 7.43254 265.506L4.65455 263.9C4.32957 263.676 4.07152 263.367 3.90799 263.008C3.74445 262.648 3.68159 262.251 3.72613 261.858V70.7372C3.7651 69.6357 4.0847 68.5625 4.65455 67.6197L7.62113 69.3347C7.05339 70.2802 6.73862 71.3565 6.70722 72.4595Z" fill="#263238"/>
<path d="M121.417 5.74888C121.417 5.63988 121.417 5.53088 121.366 5.42914C121.316 5.3274 121.366 5.2838 121.316 5.21113C121.318 5.19426 121.318 5.17713 121.316 5.16026C121.303 5.11039 121.286 5.06175 121.265 5.01492C121.269 4.98843 121.269 4.96147 121.265 4.93499C121.245 4.87979 121.221 4.82632 121.192 4.77511C121.139 4.66011 121.071 4.55261 120.989 4.45537C120.959 4.41333 120.925 4.37438 120.888 4.3391C120.855 4.29726 120.815 4.26053 120.772 4.23009C120.711 4.17831 120.645 4.1321 120.576 4.09202L120.46 4.02662C120.111 3.89505 119.736 3.85142 119.366 3.89957C118.997 3.94773 118.645 4.0862 118.342 4.30276L9.8696 66.9656C8.93343 67.549 8.16382 68.3651 7.6356 69.3347C7.55553 69.4649 7.48522 69.6009 7.42526 69.7416C7.36723 69.8506 7.31646 69.9596 7.26569 70.0686C7.20023 70.2059 7.14212 70.3466 7.09161 70.4901C7.03359 70.6354 6.99007 70.7808 6.94655 70.9261C6.90303 71.0715 6.88852 71.1369 6.86676 71.2459C6.86029 71.2697 6.86029 71.2947 6.86676 71.3185C6.86676 71.413 6.82324 71.5075 6.80874 71.6019C6.80524 71.6649 6.80524 71.728 6.80874 71.7909C6.80874 71.8781 6.80874 71.958 6.80874 72.0452C6.80171 72.1808 6.80171 72.3166 6.80874 72.4522V263.573C6.80874 263.689 6.80874 263.791 6.80874 263.9C6.80874 264.009 6.80874 264.089 6.80874 264.183C6.82277 264.284 6.8446 264.384 6.87401 264.481L6.91754 264.627C6.9373 264.691 6.96154 264.754 6.99007 264.815C7.07771 265.025 7.20589 265.215 7.36723 265.375L7.48329 265.491L7.56307 265.542L7.67912 265.608C7.80763 265.677 7.94401 265.731 8.08531 265.767H8.25213H8.46247C8.97603 265.753 9.47663 265.603 9.91312 265.331L118.269 202.741C119.19 202.14 119.956 201.33 120.506 200.377C121.055 199.424 121.372 198.354 121.432 197.255V6.13403C121.432 5.98869 121.424 5.86515 121.417 5.74888ZM24.0642 70.0032C24.0602 69.9282 24.0602 69.853 24.0642 69.7779C24.0642 69.6835 24.0642 69.589 24.0642 69.4873C24.1229 68.3719 24.4438 67.2863 25.001 66.3189C25.5581 65.3515 26.3357 64.5298 27.2701 63.9208L27.495 63.8045C27.6679 63.7198 27.8474 63.6494 28.0317 63.5938H28.1333C28.2143 63.8972 28.2558 64.2098 28.2566 64.5239C28.1951 65.6376 27.8728 66.7212 27.3159 67.6869C26.759 68.6527 25.9829 69.4736 25.0506 70.0832C24.7775 70.2417 24.4849 70.3638 24.1803 70.4465C24.1279 70.3027 24.089 70.1543 24.0642 70.0032ZM96.3065 27.6805C96.3655 26.5661 96.6859 25.4813 97.2416 24.5142C97.7974 23.547 98.5729 22.7247 99.5052 22.114C99.5964 22.0599 99.6909 22.0113 99.7881 21.9687L99.9476 21.896L100.165 21.8161L100.376 21.7652C100.454 22.064 100.493 22.3719 100.492 22.6809C100.433 23.7962 100.112 24.8818 99.5548 25.8492C98.9977 26.8166 98.2201 27.6383 97.2857 28.2473C97.0172 28.4083 96.7263 28.5283 96.4225 28.6034C96.3437 28.3022 96.3047 27.9919 96.3065 27.6805Z" fill="#455A64"/>
<path d="M8.55682 228.728L119.582 164.51V31.1178L8.55682 95.3358V228.728Z" fill="white"/>
<path d="M27.4587 63.8045C27.6302 63.7166 27.81 63.646 27.9955 63.5938C27.8112 63.6493 27.6317 63.7198 27.4587 63.8045Z" fill="#263238"/>
<path d="M30.4399 65.7811C30.3784 66.8948 30.0561 67.9784 29.4992 68.9441C28.9422 69.9099 28.1662 70.7308 27.2339 71.3404C25.7833 72.1906 24.5212 71.7618 24.144 70.4175C24.4487 70.3348 24.7413 70.2127 25.0144 70.0541C25.9467 69.4445 26.7227 68.6237 27.2797 67.6579C27.8366 66.6921 28.1589 65.6086 28.2204 64.4949C28.2196 64.1808 28.1781 63.8681 28.0971 63.5647H27.9955C29.3954 63.2159 30.4399 64.0371 30.4399 65.7811Z" fill="#263238"/>
<path d="M102.711 23.9744C102.653 25.0897 102.332 26.1754 101.774 27.1428C101.217 28.1101 100.44 28.9319 99.5052 29.5409C98.0546 30.3911 96.7998 29.9551 96.4226 28.6107C96.7263 28.5355 97.0172 28.4155 97.2857 28.2546C98.2202 27.6456 98.9977 26.8239 99.5549 25.8565C100.112 24.8891 100.433 23.8035 100.492 22.6881C100.493 22.3791 100.454 22.0713 100.376 21.7725C101.725 21.4237 102.711 22.2667 102.711 23.9744Z" fill="#263238"/>
<path d="M23.2664 126.438C23.1629 126.439 23.0602 126.42 22.9644 126.381C22.8685 126.342 22.7813 126.284 22.7078 126.211C22.6343 126.138 22.5759 126.051 22.5361 125.955C22.4963 125.86 22.4758 125.757 22.4758 125.653V99.0492C22.4759 98.9101 22.5129 98.7736 22.583 98.6536C22.6531 98.5335 22.7538 98.4343 22.8747 98.3661L42.8211 86.8262C42.9107 86.7747 43.0094 86.7413 43.1119 86.728C43.2143 86.7147 43.3183 86.7218 43.4179 86.7488C43.5176 86.7758 43.611 86.8222 43.6928 86.8853C43.7746 86.9485 43.8432 87.0272 43.8946 87.1169C43.946 87.2066 43.9793 87.3056 43.9926 87.4081C44.0058 87.5107 43.9988 87.615 43.9719 87.7148C43.9449 87.8147 43.8986 87.9083 43.8356 87.9902C43.7725 88.0721 43.694 88.1408 43.6045 88.1924L24.0207 99.4997V125.661C24.019 125.863 23.9396 126.056 23.7991 126.201C23.6586 126.346 23.4678 126.431 23.2664 126.438Z" fill="#F54748"/>
<path d="M23.2664 208.751C23.1281 208.753 22.9922 208.715 22.8747 208.642C22.7538 208.574 22.6531 208.475 22.583 208.355C22.5129 208.234 22.4759 208.098 22.4758 207.959V181.369C22.4946 181.173 22.5856 180.991 22.7311 180.859C22.8766 180.726 23.0662 180.653 23.2628 180.653C23.4593 180.653 23.6489 180.726 23.7944 180.859C23.9399 180.991 24.0309 181.173 24.0497 181.369V206.593L42.8211 195.743C42.9101 195.691 43.0085 195.657 43.1107 195.643C43.2129 195.629 43.3169 195.635 43.4166 195.661C43.5164 195.688 43.6099 195.734 43.6919 195.796C43.774 195.859 43.8428 195.937 43.8946 196.027C43.9466 196.117 43.9803 196.216 43.9939 196.32C44.0075 196.423 44.0006 196.528 43.9736 196.628C43.9467 196.729 43.9002 196.823 43.8369 196.906C43.7735 196.988 43.6945 197.057 43.6045 197.109L23.6581 208.642C23.5405 208.715 23.4046 208.753 23.2664 208.751Z" fill="#F54748"/>
<path d="M104.873 79.2031C104.665 79.2031 104.466 79.1205 104.319 78.9733C104.172 78.8261 104.089 78.6265 104.089 78.4183V53.2093L85.3251 64.0588C85.1443 64.1629 84.9296 64.1907 84.7283 64.1362C84.527 64.0817 84.3555 63.9493 84.2517 63.7682C84.1478 63.587 84.12 63.3719 84.1744 63.1702C84.2288 62.9685 84.361 62.7967 84.5418 62.6926L104.481 51.16C104.6 51.0918 104.735 51.056 104.873 51.056C105.01 51.056 105.145 51.0918 105.264 51.16C105.385 51.2282 105.486 51.3275 105.556 51.4475C105.626 51.5675 105.663 51.704 105.663 51.8431V78.4328C105.659 78.6397 105.574 78.8367 105.426 78.981C105.278 79.1253 105.079 79.2051 104.873 79.2031Z" fill="#F54748"/>
<path d="M84.9335 173.078C84.7953 173.079 84.6592 173.043 84.5393 172.974C84.4195 172.905 84.3202 172.805 84.2517 172.685C84.1999 172.596 84.1663 172.497 84.1528 172.394C84.1393 172.291 84.1463 172.187 84.1732 172.087C84.2002 171.987 84.2467 171.893 84.3099 171.811C84.3732 171.729 84.452 171.661 84.5418 171.61L104.126 160.302V134.141C104.144 133.945 104.235 133.763 104.381 133.631C104.526 133.498 104.716 133.425 104.913 133.425C105.109 133.425 105.299 133.498 105.444 133.631C105.59 133.763 105.681 133.945 105.7 134.141V160.731C105.699 160.87 105.662 161.007 105.592 161.127C105.522 161.247 105.422 161.346 105.301 161.414L85.3252 172.947C85.2073 173.022 85.0728 173.067 84.9335 173.078Z" fill="#F54748"/>
<path d="M92.6291 144.213L97.982 141.118V126.714C97.9313 126.714 97.9022 126.714 97.8805 126.714L92.8685 129.621C92.6146 129.767 92.6001 129.977 92.6001 130.232C92.6001 132.339 92.6001 134.446 92.6001 136.561C92.6001 136.903 92.6799 136.983 92.941 136.823C93.5866 136.423 94.2393 136.096 94.8921 135.682C95.1895 135.493 95.3201 135.522 95.3128 135.965C95.3128 136.845 95.3128 137.709 95.3128 138.567C95.3357 138.714 95.3097 138.865 95.239 138.996C95.1683 139.127 95.0567 139.232 94.9212 139.294C94.2539 139.657 93.5938 140.064 92.9265 140.434C92.8134 140.489 92.7206 140.578 92.6619 140.689C92.6032 140.801 92.5815 140.928 92.6001 141.052C92.6001 142.106 92.6001 143.16 92.6001 144.213L89.8874 145.783V127.695C89.1621 128.11 88.5093 128.502 87.8492 128.873C87.0514 129.331 87.1674 129.418 87.1239 128.349C87.1239 127.47 87.1239 126.591 87.1239 125.668L84.4112 127.238V123.604C83.6859 123.975 82.9606 124.418 82.2352 124.832C81.7057 125.137 81.7057 125.137 81.7057 124.454V122.274C81.7057 121.548 81.7057 121.548 82.2788 121.199L84.3967 119.971V116.337C83.6061 116.802 82.8518 117.217 82.0684 117.689C81.7928 117.863 81.6985 117.791 81.7057 117.413C81.7057 116.606 81.7057 115.814 81.7057 115.022C81.7057 114.23 81.7057 114.295 82.2788 113.954L84.4185 112.711C84.4185 111.592 84.4185 110.531 84.4185 109.506C84.4185 109.107 84.3024 109.099 84.0413 109.259C83.3812 109.666 82.7139 109.986 82.0539 110.422C81.771 110.596 81.6912 110.509 81.6985 110.139C81.6985 109.245 81.6985 108.373 81.6985 107.472C81.6985 107.094 81.6042 107.043 81.3286 107.21C80.6685 107.617 80.0012 108.002 79.3412 108.358C79.2091 108.422 79.1023 108.528 79.0378 108.66C78.9734 108.792 78.955 108.941 78.9858 109.085C78.9858 109.979 78.9858 110.894 78.9858 111.795C79.0056 111.91 78.9889 112.028 78.9382 112.132C78.8874 112.236 78.8051 112.322 78.7029 112.377C77.8978 112.827 77.0927 113.292 76.2876 113.75C76.2876 108.067 76.2876 102.385 76.2876 96.7019C76.2876 95.6773 76.2876 95.6773 75.5042 96.1278L73.6039 97.2252V93.5917C74.4017 93.1339 75.1633 92.6761 75.9322 92.2546C76.0639 92.1902 76.1708 92.0841 76.2363 91.9527C76.3019 91.8214 76.3224 91.6721 76.2948 91.5279C76.2948 89.4423 76.2948 87.3567 76.2948 85.2565C76.2948 84.8641 76.2078 84.7696 75.9104 84.9513C75.3011 85.3292 74.6919 85.6344 74.0826 86.0268C73.6982 86.2739 73.5531 86.2375 73.5604 85.6635C73.5604 83.665 73.5604 81.6957 73.5604 79.6973C73.5604 79.2249 73.4806 79.1014 73.1034 79.3267C70.6857 80.7413 68.2679 82.139 65.8502 83.5197C65.6833 83.5947 65.5463 83.7234 65.4609 83.8853C65.3754 84.0473 65.3465 84.2332 65.3787 84.4135C65.3787 86.4047 65.3787 88.4176 65.3787 90.4088C65.4108 90.591 65.3811 90.7787 65.2943 90.942C65.2076 91.1053 65.0687 91.2348 64.9 91.3099C64.2762 91.6369 63.6524 92.0366 63.0287 92.3854C62.753 92.5525 62.6515 92.4871 62.6587 92.1092C62.6587 91.2517 62.6587 90.416 62.6587 89.5513C62.6587 89.1225 62.579 88.9917 62.238 89.2097C61.5998 89.6094 60.9615 89.9727 60.3304 90.3143C60.1942 90.375 60.0818 90.4792 60.0109 90.6107C59.9401 90.7422 59.9147 90.8935 59.9388 91.041C59.9388 91.913 59.9388 92.8069 59.9388 93.7007C59.92 93.9039 59.8446 94.0978 59.7212 94.2602C58.9016 94.7617 58.0819 95.2268 57.2188 95.7136V88.4903C56.3484 88.9917 55.5288 89.4568 54.7092 89.9437C54.6005 90.0931 54.5329 90.2685 54.5133 90.4524C54.5133 91.368 54.5133 92.2764 54.5133 93.1702C54.543 93.3154 54.5225 93.4664 54.4553 93.5984C54.3881 93.7304 54.2781 93.8357 54.1434 93.8969C53.4834 94.2675 52.8161 94.6745 52.156 95.0378C52.023 95.1011 51.9145 95.2066 51.8476 95.3381C51.7807 95.4695 51.7591 95.6195 51.7861 95.7645C51.7861 96.5566 51.7861 97.356 51.7861 98.1553C51.7861 98.9547 51.7861 98.882 52.3591 98.5623C53.8098 97.7048 55.3257 96.84 56.8126 95.997C56.9432 95.9244 57.1825 95.9462 57.1825 96.0406C57.1825 97.1162 57.1825 98.2207 57.1825 99.3762C56.3774 99.834 55.6231 100.292 54.876 100.699C54.7316 100.767 54.6135 100.88 54.5401 101.022C54.4667 101.164 54.442 101.326 54.4698 101.484C54.4698 102.515 54.4698 103.562 54.4698 104.601L57.168 103.061V106.694L54.5641 108.271V111.904C55.3402 111.461 56.1163 111.025 56.8924 110.56C57.1825 110.386 57.2841 110.429 57.2768 110.836C57.2768 111.89 57.2768 112.914 57.2768 113.954L60.0911 112.377C60.0911 113.583 59.975 114.811 60.0476 115.974C61.7231 115.007 63.355 114.048 65.0233 113.111C65.1539 113.031 65.4005 113.06 65.4077 113.154C65.4077 114.23 65.4077 115.334 65.4077 116.49C62.8183 117.994 60.2434 119.469 57.6612 120.981C57.5089 121.068 57.2696 121.09 57.2696 121.468C57.2696 122.565 57.2696 123.648 57.2696 124.818C58.0674 124.353 58.8218 123.938 59.5689 123.473C59.8952 123.277 60.0186 123.328 60.004 123.786C60.004 124.651 60.004 125.479 60.004 126.344C60.004 126.809 60.1128 126.845 60.4392 126.656C61.9624 125.755 63.4856 124.89 65.0088 123.997C65.3134 123.815 65.4367 123.851 65.4295 124.295C65.4295 125.152 65.4295 126.002 65.4295 126.838C65.4557 126.998 65.4278 127.162 65.3503 127.304C65.2727 127.446 65.15 127.558 65.0015 127.623C64.356 127.979 63.7032 128.386 63.0577 128.742C62.9376 128.799 62.839 128.894 62.7764 129.012C62.7137 129.129 62.6903 129.264 62.7095 129.396C62.7095 130.224 62.7095 131.075 62.7095 131.888C62.7485 132.08 62.7218 132.279 62.6335 132.453C62.5453 132.627 62.4008 132.766 62.2235 132.848C61.6143 133.16 61.005 133.574 60.3957 133.887C60.2527 133.954 60.1356 134.067 60.0622 134.207C59.9889 134.348 59.9634 134.508 59.9895 134.664C59.9895 136.932 59.9895 139.126 59.9895 141.43L57.2768 143C57.2768 144.039 57.2768 145.078 57.2768 146.124C57.2768 146.502 57.3711 146.56 57.6467 146.393C58.4083 145.935 59.1772 145.499 59.9823 145.034C60.0911 147.214 59.9823 149.511 60.0258 151.72C60.052 151.876 60.0264 152.037 59.9531 152.177C59.8798 152.317 59.7627 152.43 59.6196 152.498C58.8435 152.926 58.0602 153.391 57.2841 153.849C57.2841 154.867 57.2841 155.898 57.2841 156.909C57.3133 157.072 57.2861 157.24 57.2069 157.385C57.1278 157.53 57.0015 157.644 56.8489 157.708C56.2541 158.028 55.6594 158.435 55.0646 158.725C54.6367 158.929 54.5496 159.19 54.5641 159.706C54.5641 160.658 54.5641 161.639 54.5641 162.613C55.3475 162.177 56.1236 161.763 56.8997 161.298C57.2188 161.102 57.2986 161.196 57.2986 161.61C57.2986 163.652 57.2986 165.694 57.2986 167.722C57.3323 167.901 57.3058 168.087 57.2232 168.25C57.1405 168.413 57.0064 168.544 56.8416 168.623C55.1734 169.582 53.5342 170.476 51.8732 171.53C51.8732 172.583 51.8732 173.586 51.8732 174.596C51.8732 174.996 51.9602 175.083 52.2576 174.902C52.9031 174.502 53.5559 174.175 54.2087 173.761C54.4916 173.586 54.6076 173.63 54.6004 174.044C54.6004 174.923 54.6004 175.788 54.6004 176.646C54.6164 176.792 54.5876 176.94 54.5176 177.07C54.4476 177.2 54.3399 177.305 54.2087 177.372C53.5487 177.736 52.8814 178.099 52.2213 178.528C52.0689 178.653 51.9557 178.819 51.8949 179.007C51.8949 180.097 51.8949 181.187 51.8949 182.285L57.3131 179.153C57.3131 178.114 57.3131 177.118 57.3131 176.137C57.2829 175.979 57.3057 175.816 57.3779 175.673C57.4501 175.529 57.5676 175.414 57.712 175.345C58.3721 174.989 59.0394 174.618 59.6994 174.197C59.9823 174.022 60.0693 174.109 60.0621 174.48C60.0621 175.374 60.0621 176.246 60.0621 177.14C60.0621 177.467 60.1128 177.598 60.3885 177.43C61.9842 176.493 63.5726 175.577 65.1611 174.669C65.2735 174.612 65.3649 174.521 65.4223 174.409C65.4796 174.296 65.4999 174.169 65.4802 174.044C65.4802 173.165 65.4802 172.264 65.4802 171.392C65.4636 171.246 65.4913 171.098 65.56 170.969C65.6286 170.839 65.7348 170.733 65.8647 170.665C66.5175 170.309 67.163 169.938 67.8158 169.539C68.1204 169.35 68.2002 169.48 68.193 169.858C68.193 170.679 68.193 171.479 68.193 172.307C68.193 172.845 68.3018 172.896 68.6862 172.678C71.2466 171.145 73.7997 169.771 76.3601 168.187C76.3601 164.786 76.3601 161.4 76.3601 158.013C76.3601 157.548 76.4326 157.286 76.8171 157.112C77.4263 156.8 78.0356 156.385 78.6449 156.073C78.8003 156.009 78.9287 155.893 79.0081 155.744C79.0875 155.596 79.1129 155.424 79.0801 155.259C79.0801 154.387 79.0801 153.486 79.0801 152.607C79.0603 152.475 79.0826 152.341 79.1439 152.224C79.2052 152.106 79.3022 152.011 79.421 151.953C80.1028 151.582 80.7773 151.189 81.4519 150.783C81.7203 150.615 81.7928 150.717 81.7928 151.051C81.7928 151.982 81.7928 152.89 81.7928 153.82C81.7928 154.147 81.8798 154.213 82.1119 154.067C82.9243 153.588 83.6859 153.159 84.5055 152.679C84.5055 155.048 84.5055 157.316 84.5055 159.576C84.5141 159.683 84.4886 159.791 84.4327 159.884C84.3767 159.977 84.293 160.049 84.1936 160.091C83.5045 160.491 82.8155 160.876 82.1264 161.291C81.8581 161.45 81.7783 161.363 81.7855 161.022C81.7855 160.128 81.7855 159.256 81.7855 158.362C81.7855 158.006 81.7275 157.875 81.4301 158.057C80.7701 158.464 80.11 158.849 79.4427 159.212C79.3142 159.281 79.2095 159.388 79.1422 159.517C79.0749 159.647 79.0482 159.794 79.0656 159.939C79.0656 160.746 79.0656 161.552 79.0656 162.388C79.0656 162.904 79.1671 163.006 79.5515 162.766C80.2769 162.301 81.0022 161.908 81.7783 161.465V164.953L84.491 163.383C84.491 162.468 84.491 161.603 84.491 160.731C84.491 159.714 84.3749 159.881 85.1583 159.43C86.6089 158.587 88.0596 157.737 89.5102 156.923C89.6694 156.849 89.7993 156.723 89.8794 156.567C89.9595 156.41 89.9853 156.231 89.9527 156.058C89.8439 152.054 90.5402 152.934 87.5446 154.423C87.4286 154.481 87.2255 154.423 87.2255 154.307C87.2255 153.246 87.2255 152.163 87.2255 151.044C88.8647 150.02 90.4749 149.155 92.1141 148.181C92.6654 147.861 92.6654 147.861 92.6654 147.098C92.5711 146.132 92.5493 145.231 92.6291 144.213ZM57.3131 103.061V99.427C58.2197 98.9111 59.0829 98.3588 59.9823 97.8138C59.9823 96.7673 60.0476 95.6991 60.0476 94.6599C60.0261 94.536 60.0448 94.4085 60.1009 94.2961C60.1571 94.1836 60.2477 94.0921 60.3595 94.035C61.0848 93.6498 61.7448 93.2501 62.4339 92.8432C62.6805 92.6979 62.753 92.7851 62.753 93.0975C62.753 96.4306 62.753 99.7638 62.753 103.097C62.7705 103.23 62.7463 103.365 62.684 103.483C62.6216 103.601 62.5241 103.698 62.4049 103.758C61.7376 104.121 61.0775 104.485 60.4102 104.906C60.1346 105.073 60.0331 105.015 60.0403 104.637C60.0403 103.576 60.0403 102.566 60.0403 101.52L57.3131 103.061ZM62.3396 111.011C61.6143 111.418 60.8889 111.868 60.1274 112.304C60.0675 112.176 60.0213 112.042 59.9895 111.904C59.9895 110.989 59.9895 110.066 59.9895 109.157C59.9675 109.026 59.988 108.891 60.048 108.772C60.108 108.653 60.2045 108.556 60.3232 108.496C60.9977 108.133 61.6723 107.769 62.3468 107.326C62.6297 107.159 62.7095 107.268 62.7023 107.624C62.7023 108.496 62.7023 109.368 62.7023 110.218C62.7324 110.376 62.7096 110.539 62.6374 110.683C62.5653 110.826 62.4478 110.941 62.3033 111.011H62.3396ZM81.9959 128.618L84.404 127.245V130.835C83.5408 131.336 82.7139 131.823 81.8798 132.288C81.8218 132.288 81.713 132.179 81.713 132.063C81.713 131.104 81.713 130.123 81.713 129.156C81.6984 129.048 81.7178 128.938 81.7685 128.842C81.8192 128.745 81.8987 128.667 81.9959 128.618ZM76.5632 117.267C77.2885 116.853 77.9631 116.461 78.6666 116.039C78.8987 115.901 79.0003 115.945 79.0003 116.272C79.0003 117.202 79.0003 118.125 79.0003 119.041C79.0149 119.165 78.9907 119.292 78.931 119.402C78.8713 119.513 78.779 119.602 78.6666 119.658C77.9921 120.036 77.3103 120.385 76.6357 120.835C76.3456 121.01 76.2803 120.886 76.2803 120.53C76.2803 119.52 76.2803 118.525 76.2803 117.522C76.3661 117.43 76.4609 117.347 76.5632 117.275V117.267ZM76.2876 125.072C76.2683 124.947 76.2905 124.819 76.3508 124.707C76.411 124.596 76.506 124.507 76.6212 124.454C76.9694 124.265 77.3103 124.062 77.6584 123.859C78.0066 123.655 78.3475 123.473 78.6884 123.263C78.9132 123.125 79.0003 123.197 78.993 123.495C78.993 124.44 78.993 125.377 78.993 126.307C79.0088 126.424 78.987 126.542 78.931 126.646C78.8749 126.749 78.7874 126.832 78.6811 126.882C77.9558 127.274 77.303 127.666 76.6067 128.081C76.3746 128.226 76.2803 128.161 76.2876 127.834C76.2948 126.918 76.2948 125.995 76.2876 125.079V125.072ZM73.5749 104.042C73.5947 104.164 73.5752 104.29 73.5191 104.401C73.4631 104.512 73.3734 104.602 73.263 104.659C72.5377 105.052 71.8558 105.459 71.1595 105.873C70.9709 105.982 70.8622 105.982 70.8622 105.684C70.8622 104.594 70.8622 103.504 70.8622 102.406C71.6383 101.956 72.4143 101.52 73.1904 101.055C73.4661 100.888 73.5531 100.96 73.5459 101.338C73.5604 102.254 73.5676 103.184 73.5749 104.049V104.042ZM68.1349 107.13C68.1625 107.274 68.142 107.424 68.0764 107.555C68.0109 107.686 67.904 107.792 67.7723 107.857C67.1122 108.22 66.4449 108.583 65.7849 109.005C65.502 109.172 65.415 109.085 65.4222 108.721C65.4222 106.621 65.4222 104.536 65.4222 102.45C65.4222 102.218 65.4222 101.978 65.6688 101.825L70.8694 98.8239V102.457C70.1441 102.901 69.339 103.38 68.5774 103.787C68.4091 103.864 68.2716 103.995 68.1873 104.16C68.1031 104.325 68.0769 104.514 68.1132 104.696C68.1494 105.459 68.1204 106.309 68.1349 107.137V107.13ZM65.4222 91.5569C65.3939 91.4118 65.415 91.2614 65.482 91.1296C65.5491 90.9979 65.6583 90.8925 65.7921 90.8302C66.3579 90.5178 66.9309 90.1762 67.5039 89.8492C68.2292 89.435 68.1277 89.5876 68.1277 88.6211C68.1277 87.8944 68.1277 87.1241 68.1277 86.3901C68.111 86.2443 68.1388 86.0968 68.2074 85.9671C68.276 85.8373 68.3823 85.7315 68.5121 85.6635C69.1649 85.3074 69.8104 84.9368 70.4632 84.5371C70.7679 84.3481 70.8839 84.4063 70.8767 84.8423C70.8767 85.9033 70.8767 86.8625 70.8767 87.9235L73.5749 86.3611C73.5749 87.5238 73.5749 88.6066 73.5749 89.7111C73.5087 89.894 73.3901 90.0533 73.234 90.169C71.5585 91.1573 69.8757 92.0947 68.2002 93.1775C68.2002 94.2239 68.1494 95.2922 68.1494 96.3241C68.1721 96.4564 68.1511 96.5926 68.0896 96.7119C68.028 96.8312 67.9294 96.9272 67.8085 96.9854C67.1412 97.3487 66.4812 97.712 65.8211 98.1335C65.5455 98.3007 65.4367 98.2498 65.444 97.8719C65.4391 95.7597 65.4319 93.6547 65.4222 91.5569ZM60.0403 141.343C60.8672 140.863 61.6941 140.376 62.5209 139.889C62.5862 139.889 62.7023 139.991 62.7023 140.1C62.7023 141.069 62.7023 142.057 62.7023 143.065C62.6838 143.217 62.6178 143.36 62.5137 143.472C61.694 143.966 60.8817 144.431 60.0403 144.925V141.343ZM62.7168 171.937C62.7347 172.07 62.71 172.206 62.6462 172.325C62.5823 172.444 62.4826 172.539 62.3614 172.598C61.6868 172.976 61.0122 173.368 60.3304 173.775C60.0983 173.913 59.9968 173.862 60.004 173.528C60.004 173.063 60.004 172.612 60.004 172.147C60.004 171.682 60.004 171.203 60.004 170.694C60.0426 170.5 60.1357 170.321 60.2724 170.178C60.9977 169.742 61.6795 169.357 62.3759 168.943C62.6297 168.79 62.695 168.906 62.695 169.212C62.7095 170.127 62.7095 171.028 62.7168 171.929V171.937ZM62.7168 161.036C62.697 161.236 62.6244 161.426 62.5064 161.588C61.7013 162.083 60.8962 162.54 60.0258 163.042V160.593C60.0258 159.445 60.0258 159.437 60.8744 158.951L62.8111 157.868C62.7176 158.926 62.6813 159.989 62.7023 161.051L62.7168 161.036ZM64.958 156.589C64.2327 156.967 63.5074 157.425 62.782 157.846C62.6791 156.801 62.65 155.749 62.695 154.699C62.695 154.358 62.6152 154.271 62.3541 154.431C61.6795 154.837 60.9977 155.23 60.3232 155.593C60.2144 155.659 60.0113 155.593 60.004 155.492C60.004 154.431 60.004 153.348 60.004 152.185L62.1002 150.979C62.7675 150.586 62.7095 150.71 62.7095 149.787V143.385L64.4793 142.36C65.415 141.815 65.415 141.815 65.415 143.087C65.415 147.28 65.415 151.48 65.415 155.673C65.4295 156.167 65.3352 156.393 64.9435 156.603L64.958 156.589ZM70.485 164.277C67.5184 165.818 68.2292 166.457 68.1494 162.453C68.1494 162.104 68.0624 162.039 67.8085 162.199C64.7622 163.849 65.5673 164.335 65.4295 160.448C65.4044 160.29 65.4321 160.128 65.5082 159.987C65.5842 159.847 65.7044 159.735 65.8502 159.67C67.5257 158.718 69.2012 157.737 70.8839 156.763C70.8839 159.001 70.8839 161.254 70.8839 163.485C70.9165 163.647 70.8933 163.814 70.8182 163.961C70.7431 164.108 70.6204 164.224 70.4705 164.292L70.485 164.277ZM73.5894 155.186L70.8694 156.756C70.8694 154.481 70.8694 152.207 70.8694 149.932C70.8553 149.817 70.8769 149.7 70.9314 149.597C70.9859 149.494 71.0706 149.411 71.174 149.358C71.8994 148.966 72.5812 148.559 73.2847 148.145C73.4661 148.036 73.5821 148.028 73.5821 148.326C73.5676 150.586 73.5749 152.854 73.5749 155.201L73.5894 155.186ZM73.5894 143.821C73.6061 143.967 73.5783 144.114 73.5096 144.244C73.441 144.374 73.3348 144.479 73.2049 144.547C72.5594 144.896 71.9066 145.274 71.2611 145.674C70.9709 145.848 70.8549 145.812 70.8694 145.398C70.8694 144.511 70.8694 143.661 70.8694 142.782C70.8694 142.389 70.7969 142.295 70.4922 142.476C69.8322 142.891 69.1649 143.203 68.5049 143.646C68.2365 143.806 68.1204 143.763 68.1277 143.378C68.1277 142.469 68.1277 141.568 68.1277 140.667C68.1083 140.535 68.1326 140.4 68.1967 140.284C68.2609 140.167 68.3615 140.074 68.4831 140.02C69.1721 139.635 69.8612 139.221 70.5575 138.828C70.6631 138.78 70.7504 138.698 70.8065 138.596C70.8627 138.494 70.8847 138.377 70.8694 138.262C70.8694 137.23 70.8694 136.176 70.8694 135.071C69.1939 135.943 67.5257 136.975 65.8502 137.942C65.5238 138.131 65.4077 138.073 65.415 137.622C65.415 136.743 65.415 135.878 65.415 135.013C65.3866 134.868 65.4077 134.718 65.4748 134.586C65.5418 134.454 65.651 134.349 65.7849 134.287C66.4304 133.923 67.0832 133.56 67.736 133.167C67.8723 133.107 67.9847 133.003 68.0555 132.871C68.1264 132.74 68.1518 132.588 68.1277 132.441C68.1277 127.79 68.1785 123.066 68.0842 118.445C67.3153 118.895 66.5755 119.302 65.8357 119.76C65.502 119.963 65.4005 119.876 65.4077 119.433C65.4077 118.43 65.4077 117.449 65.4077 116.388L70.8549 113.242V110.335C70.8549 109.608 70.8549 109.608 71.3916 109.303C71.9284 108.998 72.5884 108.634 73.1832 108.264C73.4878 108.075 73.5676 108.176 73.5604 108.562C73.5604 110.822 73.5604 113.023 73.5604 115.284L76.2658 113.721V117.478C76.1789 117.49 76.0936 117.512 76.0119 117.544C74.3074 118.561 72.6029 119.447 70.8984 120.545V124.12L73.0091 122.899C73.5821 122.572 73.5821 122.572 73.5821 123.313V133.487C75.2649 132.506 76.9186 131.569 78.6014 130.58C78.906 130.399 79.022 130.435 79.0075 130.878C79.0075 131.721 79.0075 132.557 79.0075 133.378C79.041 133.55 79.0155 133.728 78.9352 133.884C78.8549 134.04 78.7245 134.164 78.5651 134.236C76.8968 135.173 75.2576 136.14 73.5821 137.106C73.5749 139.373 73.5676 141.597 73.5821 143.835L73.5894 143.821ZM84.4112 145.332C81.8363 146.829 79.2832 148.297 76.7083 149.801C76.3819 149.99 76.2803 149.94 76.2803 149.489C76.2803 146.238 76.2803 142.995 76.2803 139.759C76.2523 139.586 76.2819 139.409 76.3645 139.256C76.4472 139.102 76.5782 138.98 76.7373 138.908C79.155 137.532 81.5728 136.137 83.9905 134.723C84.3459 134.512 84.4402 134.592 84.4402 135.057C84.404 138.494 84.4185 141.895 84.4112 145.332ZM38.6505 157.323C38.3821 157.483 38.2733 157.446 38.2733 157.068C38.2733 154.954 38.2733 152.854 38.2733 150.753C38.2553 150.609 38.281 150.463 38.3469 150.333C38.4129 150.204 38.5161 150.097 38.6433 150.027C40.2245 149.126 41.8008 148.215 43.3724 147.294C43.6552 147.127 43.7278 147.222 43.7278 147.585C43.7278 148.646 43.7278 149.692 43.7278 150.746C45.3888 149.787 47.0498 148.813 48.7107 147.876C48.8648 147.812 48.9921 147.697 49.0714 147.55C49.1506 147.403 49.177 147.233 49.1459 147.069C49.1459 146.066 49.1459 145.042 49.1459 144.024C47.3399 144.889 45.5193 146.139 43.7278 147.062C43.7278 145.986 43.7278 144.969 43.7278 143.937C43.7278 143.588 43.6407 143.516 43.3869 143.668C42.7196 144.068 42.0595 144.395 41.3995 144.831C41.0948 145.013 41.0078 144.925 41.0078 144.533C41.0078 142.273 41.0078 140.078 41.0078 137.811C39.3323 138.785 37.6858 139.722 36.0103 140.718C35.6622 140.929 35.5461 140.841 35.5606 140.369C35.5606 139.526 35.5606 138.69 35.5606 137.869C35.5273 137.705 35.5517 137.534 35.6297 137.386C35.7077 137.237 35.8345 137.121 35.9886 137.055C38.5635 135.558 41.1384 134.149 43.7133 132.557C43.7133 130.232 43.7133 127.972 43.7133 125.704C43.7133 125.406 43.59 125.421 43.4086 125.53C42.6833 125.937 42.0015 126.351 41.2979 126.743C41.1938 126.797 41.1091 126.882 41.0558 126.986C41.0024 127.09 40.9831 127.209 41.0006 127.325C41.0006 128.415 41.0006 129.432 41.0006 130.544L39.2017 131.591C38.2661 132.128 38.2661 132.128 38.2661 130.864V128.495C37.4682 128.96 36.7429 129.403 36.0176 129.788C35.6332 129.985 35.5461 130.224 35.5461 130.689C35.5461 132.87 35.5969 135.05 35.5461 137.317L30.2005 140.413C30.1207 141.532 30.2005 142.513 30.157 143.603C30.157 144.024 30.273 144.046 30.5559 143.872C31.2232 143.472 31.8832 143.145 32.5505 142.716C32.7899 142.571 32.8769 142.644 32.8769 142.963C32.8769 143.872 32.8769 144.78 32.8769 145.674C32.8968 145.815 32.87 145.959 32.8006 146.084C32.7312 146.208 32.623 146.307 32.4925 146.364C31.8615 146.72 31.2232 147.091 30.5849 147.454C30.4343 147.526 30.3111 147.645 30.2339 147.793C30.1568 147.941 30.1297 148.111 30.157 148.275C30.157 150.456 30.1207 152.737 30.157 154.925C30.9548 154.467 31.7092 154.016 32.4998 153.588C32.6086 153.522 32.8116 153.588 32.8116 153.646C32.8116 154.743 32.8116 155.826 32.8116 157.039L30.157 158.573V162.206C30.9548 161.741 31.7092 161.32 32.4635 160.862C32.7464 160.695 32.8334 160.775 32.8262 161.138C32.8262 162.054 32.8262 162.947 32.8262 163.856C32.8262 164.168 32.9059 164.255 33.1525 164.11C33.8392 163.698 34.5282 163.299 35.2197 162.911C35.3312 162.851 35.4217 162.758 35.4787 162.645C35.5358 162.532 35.5568 162.404 35.5389 162.279C35.5389 161.232 35.5389 160.186 35.5389 159.118L38.2008 157.577C38.2371 158.595 38.2008 159.619 38.2008 160.658C38.2008 161.014 38.2661 161.138 38.5562 160.964C39.238 160.549 39.9126 160.157 40.5871 159.786C40.7214 159.725 40.8306 159.619 40.8966 159.487C40.9625 159.355 40.9813 159.204 40.9498 159.06C40.9498 158.028 40.9498 156.981 40.9498 155.935C40.2317 156.414 39.4411 156.858 38.6505 157.323ZM35.5679 159.096C34.7047 159.597 33.8924 160.077 33.0728 160.549C33.0075 160.549 32.8769 160.469 32.8769 160.368C32.8769 159.299 32.8769 158.188 32.8769 157.068C33.7401 156.567 34.5379 156.102 35.3285 155.666C35.4156 155.615 35.5606 155.717 35.5679 155.826C35.5751 156.865 35.5679 157.948 35.5679 159.096ZM37.9107 146.858C37.3667 147.156 36.8227 147.476 36.2787 147.796C35.4881 148.268 35.5534 148.079 35.5534 149.133C35.5534 149.86 35.5534 150.623 35.5534 151.357C35.5735 151.491 35.5507 151.628 35.4881 151.748C35.4255 151.868 35.3265 151.965 35.2052 152.025C34.5307 152.403 33.8561 152.752 33.1816 153.195C32.9204 153.355 32.8407 153.261 32.8407 152.926C32.8407 151.858 32.8407 150.797 32.8407 149.736C32.8407 148.675 32.8407 147.716 32.8407 146.713C32.8105 146.555 32.8333 146.392 32.9055 146.249C32.9776 146.106 33.0951 145.99 33.2396 145.921C34.7845 145.049 36.3367 144.148 37.8817 143.239C38.15 143.08 38.2661 143.116 38.2588 143.501C38.2588 144.395 38.2588 145.281 38.2588 146.153C38.2826 146.293 38.2617 146.436 38.1991 146.563C38.1366 146.689 38.0356 146.793 37.9107 146.858ZM79.5153 101.077L97.982 90.3942V65.7448C97.982 65.0181 97.982 65.0181 97.4235 65.3233L79.5153 75.6787C78.993 75.9766 78.993 75.9839 78.993 76.6742V100.655C78.993 101.346 78.993 101.346 79.5153 101.048V101.077ZM82.1627 77.7497C86.3696 75.3274 90.574 72.9051 94.7761 70.4828C95.1968 70.243 95.2838 70.3883 95.2766 70.9043C95.2766 73.7093 95.2766 76.5071 95.2766 79.3049C95.2766 82.1026 95.2766 84.9077 95.2766 87.6982C95.3098 87.8871 95.2794 88.0818 95.1901 88.2515C95.1008 88.4212 94.9577 88.5563 94.7833 88.6356C90.5765 91.0579 86.372 93.4803 82.17 95.9026C81.8145 96.106 81.6912 96.0624 81.6912 95.561C81.6912 89.9219 81.6912 84.2876 81.6912 78.6581C81.6594 78.4759 81.6884 78.2882 81.7736 78.124C81.8588 77.9598 81.9955 77.8283 82.1627 77.7497ZM30.6647 129.345C36.6655 125.867 42.6615 122.395 48.6527 118.932C49.175 118.634 49.175 118.634 49.175 117.936V93.955C49.175 93.2647 49.175 93.2647 48.6527 93.5626C42.502 97.1452 36.3222 100.626 30.2077 104.26C30.1497 112.529 30.2077 120.719 30.2077 128.967C30.1497 129.469 30.2512 129.549 30.6357 129.345H30.6647ZM32.8914 106.876C32.8667 106.709 32.8956 106.539 32.9738 106.39C33.0521 106.241 33.1756 106.121 33.3266 106.047C37.5722 103.625 41.8153 101.171 46.0561 98.6858C46.397 98.4823 46.4695 98.6204 46.4695 99.0346C46.4695 101.898 46.4695 104.746 46.4695 107.595C46.4695 110.444 46.4695 113.198 46.4695 115.988C46.498 116.162 46.4687 116.34 46.3861 116.495C46.3035 116.65 46.1722 116.773 46.0125 116.846C41.7863 119.268 37.5577 121.715 33.3266 124.186C33.0075 124.374 32.8842 124.331 32.8842 123.88C32.8793 118.193 32.8721 112.517 32.8624 106.854L32.8914 106.876ZM48.6962 158.776C42.531 162.356 36.3681 165.924 30.2077 169.48C30.1425 177.765 30.2077 185.962 30.2077 194.224C30.2077 194.733 30.3093 194.813 30.6937 194.588C36.8638 191.008 43.0339 187.437 49.204 183.876C49.204 175.64 49.204 167.404 49.204 159.169C49.1532 158.609 49.0517 158.529 48.6672 158.754L48.6962 158.776ZM46.0125 182.096C41.7912 184.518 37.5746 186.957 33.3629 189.414C32.9857 189.632 32.8842 189.53 32.8914 189.05C32.8914 183.426 32.8914 177.808 32.8914 172.198C32.8559 172.009 32.8844 171.813 32.9725 171.642C33.0605 171.471 33.203 171.334 33.3774 171.254C35.4953 170.047 37.6205 168.812 39.7385 167.584C41.8564 166.356 43.9309 165.171 46.027 163.95C46.3825 163.74 46.4768 163.834 46.4695 164.299C46.4695 169.953 46.4695 175.604 46.4695 181.253C46.4851 181.424 46.4466 181.595 46.3593 181.742C46.272 181.89 46.1405 182.006 45.9835 182.074L46.0125 182.096ZM97.982 97.6248L95.3056 99.1727C95.3056 98.0754 95.3056 97.058 95.3056 96.0261C95.3056 95.6846 95.2258 95.5974 94.9574 95.7572C94.2829 96.1642 93.6083 96.5566 92.9338 96.9272C92.8125 96.9888 92.7141 97.0876 92.6527 97.2091C92.5914 97.3307 92.5704 97.4687 92.5929 97.603C92.5929 98.4969 92.5929 99.398 92.5929 100.314C92.5929 100.662 92.6799 100.721 92.9338 100.568C93.6011 100.161 94.2611 99.8413 94.9284 99.398C95.233 99.209 95.3128 99.318 95.3056 99.7032C95.3056 100.582 95.3056 101.455 95.3056 102.305C95.3279 102.453 95.3009 102.604 95.2288 102.736C95.1567 102.867 95.0435 102.971 94.9066 103.031C93.2239 103.991 91.5847 104.95 89.8947 105.938C89.8947 107.108 89.8947 108.22 89.8947 109.317C89.8947 109.412 90.0905 109.455 90.192 109.397C90.8158 109.063 91.4396 108.671 92.0634 108.329C92.6872 107.988 92.5784 108.038 92.5784 108.743C92.5784 110.749 92.5784 112.747 92.5784 114.753C92.5784 115.145 92.6727 115.233 92.97 115.051C93.6083 114.659 94.2466 114.324 94.8776 113.932C95.1895 113.743 95.3056 113.801 95.2983 114.23C95.2983 115.044 95.2983 115.843 95.2983 116.621C95.3422 116.818 95.3162 117.024 95.2249 117.205C95.1336 117.385 94.9827 117.528 94.7979 117.609C93.1514 118.503 91.5266 119.542 89.8802 120.414C89.8802 118.183 89.8802 116.003 89.8802 113.772C89.8802 113.321 89.7786 113.242 89.4522 113.452C88.8139 113.845 88.1756 114.179 87.5374 114.557C87.3957 114.624 87.2795 114.735 87.2063 114.874C87.1331 115.013 87.1067 115.172 87.1312 115.327C87.1312 117.551 87.0877 119.811 87.1312 122.013C88.0306 121.468 88.8937 121.017 89.7859 120.559C89.7859 121.744 89.8511 122.863 89.8366 124.098C90.62 123.641 91.338 123.263 92.0126 122.798C92.4405 122.521 92.5348 122.674 92.5131 123.204C92.5131 124.055 92.5131 124.869 92.5131 125.712C92.5131 126.017 92.5784 126.119 92.8322 125.966C93.5575 125.552 94.2103 125.152 94.8994 124.774C95.0117 124.717 95.1033 124.626 95.1618 124.514C95.2203 124.402 95.2426 124.274 95.2258 124.149C95.2258 123.321 95.2258 122.485 95.2258 121.649C95.2258 120.966 95.2258 120.959 95.748 120.661L97.8805 119.426C98.0038 115.872 97.8805 112.435 97.9312 108.918C97.9312 108.576 97.8225 108.562 97.5976 108.7C96.9303 109.092 96.2703 109.426 95.603 109.855C95.3056 110.037 95.2113 109.942 95.2185 109.55C95.2185 108.671 95.2185 107.806 95.2185 106.948C95.1902 106.803 95.2113 106.653 95.2783 106.521C95.3454 106.389 95.4546 106.284 95.5885 106.222C96.2122 105.88 96.836 105.495 97.4598 105.153C97.6274 105.081 97.7658 104.954 97.8526 104.793C97.9395 104.632 97.9697 104.447 97.9385 104.267C97.9458 102.058 98.0183 99.8049 97.953 97.603L97.982 97.6248ZM54.5496 140.892C54.5496 140.013 54.5496 139.134 54.5496 138.254C54.5496 137.222 54.5496 137.222 55.3257 136.801L57.2333 135.704V128.488L54.6366 129.992C54.5846 130.043 54.5406 130.102 54.5061 130.166C54.5291 130.219 54.5438 130.276 54.5496 130.333C54.5496 132.513 54.5496 134.694 54.5496 136.874C54.5661 136.989 54.5446 137.107 54.4883 137.209C54.432 137.312 54.3441 137.393 54.2377 137.44C53.5124 137.833 52.8596 138.225 52.1705 138.639C51.9094 138.792 51.8296 138.705 51.8296 138.363C51.8296 137.469 51.8296 136.597 51.8296 135.704C51.8296 135.34 51.7571 135.246 51.4742 135.413C49.9075 136.329 48.3481 137.23 46.7814 138.124C46.6475 138.186 46.5383 138.291 46.4713 138.423C46.4042 138.555 46.3832 138.705 46.4115 138.85C46.4115 139.73 46.4115 140.616 46.4115 141.503C46.4115 141.881 46.4985 141.96 46.7741 141.786C47.4342 141.386 48.1015 141.059 48.7615 140.631C49.0444 140.456 49.1314 140.551 49.1242 140.914C49.1242 141.975 49.1242 143.029 49.1242 144.082C50.952 142.905 52.7363 141.91 54.5496 140.892ZM95.69 149.685C96.3428 149.344 96.9883 148.959 97.6411 148.573C97.7605 148.513 97.8577 148.417 97.919 148.298C97.9803 148.18 98.0023 148.044 97.982 147.912C97.982 147.004 97.982 146.081 97.982 145.151C97.982 144.853 97.9022 144.787 97.6846 144.925C96.9593 145.34 96.2775 145.747 95.5739 146.139C95.4637 146.199 95.375 146.293 95.3204 146.406C95.2657 146.519 95.2479 146.647 95.2693 146.771C95.2693 147.658 95.2693 148.552 95.2693 149.424C95.2854 149.57 95.2565 149.718 95.1865 149.848C95.1166 149.978 95.0088 150.083 94.8776 150.15C94.2248 150.506 93.5793 150.877 92.9265 151.269C92.7974 151.328 92.6907 151.427 92.6227 151.551C92.5546 151.676 92.5289 151.819 92.5493 151.96C92.5493 154.048 92.5493 156.138 92.5493 158.231C92.5493 158.645 92.6654 158.674 92.9483 158.5C93.7171 158.035 94.486 157.606 95.2548 157.163L97.6411 155.782C97.7552 155.732 97.8497 155.646 97.91 155.537C97.9703 155.428 97.9931 155.302 97.9748 155.179C97.9748 154.263 97.9748 153.341 97.9748 152.41C97.9748 152.054 97.8732 152.018 97.6266 152.171C96.9593 152.57 96.2993 152.897 95.632 153.326C95.3636 153.493 95.2548 153.42 95.2621 153.05C95.2621 152.192 95.2621 151.342 95.2621 150.499C95.237 150.336 95.2651 150.17 95.3422 150.025C95.4194 149.879 95.5414 149.763 95.69 149.692V149.685ZM54.5641 123.117C54.5559 122.998 54.5389 122.878 54.5133 122.761L52.1125 124.149C51.8514 124.295 51.8514 124.513 51.8514 124.752C51.8514 126.867 51.8514 128.967 51.8514 131.082C51.8514 131.503 51.9747 131.518 52.2503 131.351C52.9624 130.871 53.7234 130.469 54.5206 130.152C54.5474 130.005 54.5644 129.857 54.5714 129.708L54.5641 123.117ZM56.9287 150.383L51.8514 153.29C51.8514 154.329 51.8514 155.361 51.8514 156.407C51.8514 156.814 51.9602 156.85 52.2431 156.683C53.9186 155.702 55.5941 154.736 57.2623 153.777C57.2623 152.716 57.2623 151.662 57.2623 150.594C57.2841 150.245 57.1753 150.223 56.9287 150.368V150.383ZM48.8703 129.636C48.145 130.064 47.4197 130.471 46.6943 130.878C46.5971 130.926 46.517 131.002 46.465 131.097C46.413 131.192 46.3918 131.301 46.4042 131.409C46.4042 132.375 46.4042 133.349 46.4042 134.316C46.4042 134.635 46.5203 134.643 46.7234 134.519C47.0788 134.301 47.4487 134.105 47.7968 133.894C48.145 133.683 48.5222 133.524 48.8268 133.284C48.9652 133.144 49.0609 132.967 49.1024 132.775C49.1024 131.794 49.1024 130.828 49.1024 129.868C49.1459 129.578 49.1097 129.498 48.8703 129.621V129.636ZM32.5795 131.816C31.8542 132.201 31.1289 132.615 30.4036 133.051C30.2726 133.175 30.1795 133.334 30.1352 133.509C30.1352 134.599 30.1352 135.689 30.1352 136.823C30.9983 136.321 31.8034 135.863 32.6086 135.369C32.726 135.248 32.8022 135.093 32.8262 134.926C32.8262 133.945 32.8262 132.971 32.8262 132.019C32.8479 131.903 32.6811 131.772 32.5795 131.823V131.816ZM54.5641 118.641C54.5641 118.946 54.6149 119.062 54.8688 118.91C55.5941 118.496 56.2686 118.089 56.9722 117.696C57.0763 117.644 57.1617 117.561 57.2163 117.458C57.2709 117.355 57.2921 117.238 57.2768 117.122C57.2768 116.061 57.2768 114.986 57.2768 113.917L54.5859 115.48C54.5641 116.541 54.5714 117.587 54.5641 118.648V118.641ZM48.8413 122.391L46.7379 123.611C46.6331 123.665 46.5476 123.749 46.493 123.853C46.4384 123.958 46.4175 124.076 46.4332 124.193C46.4332 125.145 46.4332 126.097 46.4332 127.056C46.4332 127.339 46.5275 127.368 46.7234 127.252C47.4487 126.831 48.174 126.416 48.8631 126.01C48.9597 125.962 49.0389 125.885 49.0896 125.79C49.1404 125.695 49.1601 125.586 49.1459 125.479C49.1459 125.007 49.1459 124.527 49.1459 124.026C49.1459 123.524 49.1459 123.074 49.1459 122.572C49.1532 122.318 49.0589 122.267 48.8413 122.398V122.391ZM41.0658 152.323V155.92L43.764 154.365V150.732L41.0658 152.323ZM52.1488 106.033C52.0448 106.087 51.9598 106.171 51.9053 106.275C51.8509 106.379 51.8295 106.498 51.8442 106.614C51.8442 107.53 51.8442 108.438 51.8442 109.368C51.8442 109.761 51.9674 109.768 52.2213 109.615C52.9974 109.15 53.7735 108.714 54.5496 108.271V104.637C53.7518 105.103 52.9466 105.568 52.1488 106.011V106.033ZM52.2141 113.212C52.0793 113.274 51.9694 113.379 51.9022 113.511C51.835 113.643 51.8145 113.794 51.8442 113.939C51.8442 114.816 51.8442 115.703 51.8442 116.599C51.8442 116.984 51.9457 117.035 52.2141 116.868C52.9902 116.403 53.7735 115.959 54.5496 115.509V111.875C53.7735 112.326 52.9902 112.784 52.2141 113.212ZM86.8265 100.43C86.1012 100.844 85.4194 101.251 84.7158 101.643C84.6124 101.696 84.5277 101.78 84.4732 101.882C84.4187 101.985 84.3971 102.102 84.4112 102.218C84.4112 103.17 84.4112 104.136 84.4112 105.081C84.4112 105.204 84.5345 105.35 84.5998 105.313C85.4194 104.87 86.239 104.383 87.1022 103.86C87.1022 102.704 87.1022 101.68 87.1022 100.582C87.1239 100.314 87.0151 100.321 86.8265 100.43ZM51.8514 164.503C51.8514 165.491 51.8514 166.486 51.8514 167.467C51.8514 167.569 51.982 167.678 52.0545 167.642C52.8741 167.191 53.6937 166.704 54.5278 166.225V162.591L52.1923 163.972C52.0842 164.009 51.9917 164.082 51.9298 164.178C51.868 164.274 51.8403 164.389 51.8514 164.503ZM81.4374 139.795C81.082 139.962 80.7121 140.195 80.3639 140.398C80.0157 140.602 79.6386 140.82 79.2904 141.016C79.1925 141.063 79.1115 141.139 79.0583 141.234C79.0051 141.329 78.9823 141.438 78.993 141.546C78.993 142.513 78.993 143.494 78.993 144.453C78.993 144.569 79.1526 144.686 79.2396 144.642C79.965 144.25 80.6903 143.828 81.4156 143.378C81.5409 143.244 81.6264 143.078 81.6622 142.898C81.6622 141.917 81.6622 140.943 81.6622 139.991C81.684 139.897 81.5317 139.78 81.4374 139.824V139.795ZM54.1434 148.334C54.2947 148.269 54.4194 148.154 54.4972 148.009C54.5749 147.864 54.6011 147.696 54.5714 147.534C54.5714 146.531 54.5714 145.507 54.5714 144.489L57.2623 142.912V139.323L54.5714 140.878C54.5714 142.077 54.5714 143.276 54.5714 144.511C53.7953 144.954 53.0192 145.42 52.2431 145.841C52.1146 145.91 52.0098 146.016 51.9426 146.146C51.8753 146.276 51.8486 146.423 51.8659 146.568C51.8659 147.592 51.8659 148.639 51.8659 149.678L43.7568 154.38C43.7568 155.433 43.7568 156.494 43.7568 157.555C43.7568 157.919 43.8583 157.94 44.1049 157.795L51.8804 153.29C51.8804 152.083 51.8804 150.884 51.8804 149.656C52.6203 149.249 53.3818 148.784 54.1434 148.363V148.334ZM84.8754 90.6776C87.4358 89.1806 89.9527 87.72 92.5348 86.2375C92.6146 82.7712 92.5348 79.4139 92.5784 75.9693C92.5784 75.4461 92.4551 75.3807 92.0779 75.606C89.5175 77.1393 87.0006 78.5128 84.4112 80.0897C84.4112 83.5124 84.4112 86.9061 84.4112 90.3361C84.404 90.8666 84.52 90.9175 84.8754 90.7067V90.6776ZM35.5534 118.655C35.5534 119.07 35.6404 119.157 35.9595 118.968C37.1926 118.241 38.4257 117.514 39.6587 116.788C40.8918 116.061 42.074 115.378 43.2853 114.702C43.4379 114.639 43.5642 114.525 43.6434 114.379C43.7225 114.234 43.7497 114.066 43.7205 113.903C43.7205 110.633 43.7205 107.363 43.7205 104.071C43.7205 103.678 43.6335 103.598 43.3361 103.765C40.87 105.219 38.4039 106.646 35.9378 108.046C35.8093 108.115 35.7046 108.221 35.6373 108.351C35.57 108.48 35.5433 108.627 35.5606 108.772C35.5751 112.13 35.5751 115.4 35.5679 118.684L35.5534 118.655ZM43.3071 169.117C40.7467 170.621 38.2298 172.082 35.6332 173.564C35.5606 177.031 35.6331 180.388 35.5969 183.825C35.5969 184.334 35.6984 184.436 36.0901 184.203C38.6505 182.67 41.1674 181.296 43.7568 179.72C43.7568 176.297 43.7568 172.903 43.7568 169.48C43.735 168.994 43.6407 168.899 43.3071 169.117Z" fill="#263238"/>
<path d="M38.4837 228.517C38.5069 227.784 38.5943 227.055 38.7448 226.337C38.8926 225.643 39.1164 224.968 39.4121 224.324C39.7035 223.702 40.0741 223.121 40.5146 222.594C40.9574 222.071 41.4875 221.628 42.0813 221.286C42.5428 220.979 43.0799 220.806 43.6335 220.785C43.8378 220.784 44.0404 220.823 44.2296 220.9C44.4188 220.977 44.5909 221.091 44.736 221.236C45.0557 221.588 45.2869 222.011 45.4106 222.471C45.5728 223.073 45.6629 223.693 45.6789 224.317C45.6789 224.549 45.6789 224.811 45.6789 225.102C45.6789 225.392 45.6789 225.683 45.6789 225.995C45.6789 226.308 45.6789 226.599 45.6789 226.889C45.6789 227.18 45.6789 227.449 45.6789 227.696C45.6509 228.389 45.5685 229.079 45.4323 229.76C45.2981 230.43 45.0888 231.084 44.8086 231.707L45.7297 233.211C45.7397 233.262 45.7397 233.314 45.7297 233.364C45.7388 233.483 45.7137 233.601 45.6572 233.706C45.6164 233.797 45.5511 233.875 45.4686 233.931L44.3081 234.599C44.163 234.672 44.0542 234.672 43.9817 234.599C43.9164 234.527 43.8584 234.461 43.8221 234.411L43.4304 233.771C43.2271 233.987 43.009 234.189 42.7776 234.374C42.5503 234.559 42.3076 234.725 42.0523 234.868C41.5848 235.176 41.0442 235.354 40.4856 235.384C40.0736 235.384 39.678 235.222 39.3831 234.934C39.0602 234.585 38.8307 234.16 38.7158 233.698C38.5578 233.098 38.4702 232.481 38.4547 231.86C38.4547 231.62 38.4547 231.358 38.4547 231.075C38.4547 230.792 38.4547 230.494 38.4547 230.181C38.4547 229.869 38.4547 229.571 38.4547 229.28C38.4547 228.989 38.4765 228.757 38.4837 228.517ZM44.0252 225.407C44.0781 224.762 43.8748 224.122 43.4595 223.626C43.1113 223.336 42.6543 223.35 42.0813 223.677C41.4793 224.042 40.9996 224.579 40.7032 225.218C40.3407 225.979 40.1476 226.809 40.1375 227.652C40.1375 228.139 40.1375 228.677 40.1375 229.266C40.1375 229.854 40.1375 230.377 40.1375 230.842C40.1084 231.16 40.1435 231.48 40.2407 231.783C40.3379 232.087 40.4952 232.367 40.7032 232.608C41.0514 232.899 41.5083 232.877 42.0813 232.55C42.6814 232.186 43.1608 231.653 43.4595 231.017C43.821 230.258 44.014 229.43 44.0252 228.59C44.0252 228.103 44.0252 227.565 44.0252 226.984C44.0252 226.402 44.0325 225.872 44.0325 225.407H44.0252Z" fill="#FAFAFA"/>
<path d="M50.7925 216.468C51.8152 215.88 52.584 215.8 53.1135 216.221C53.643 216.643 53.9114 217.5 53.9114 218.801C53.9162 219.68 53.7791 220.553 53.5052 221.388C53.2398 222.171 52.8288 222.896 52.2939 223.525L53.9839 227.209C54.0099 227.268 54.0223 227.333 54.0202 227.398C54.0206 227.514 53.9933 227.629 53.9404 227.732C53.9059 227.829 53.8393 227.911 53.7518 227.965L52.7146 228.568C52.5478 228.662 52.4317 228.677 52.3519 228.568C52.2815 228.502 52.2248 228.423 52.1851 228.335L50.5604 224.891L48.9356 225.836V230.232C48.933 230.376 48.8983 230.517 48.8341 230.646C48.7888 230.763 48.7075 230.862 48.602 230.93L47.6156 231.504C47.5836 231.532 47.5423 231.548 47.4995 231.548C47.4567 231.548 47.4154 231.532 47.3835 231.504C47.3467 231.462 47.3188 231.414 47.3013 231.362C47.2838 231.309 47.2772 231.254 47.2819 231.199V218.997C47.2845 218.853 47.3192 218.712 47.3835 218.583C47.4307 218.466 47.5114 218.364 47.6156 218.292L50.7925 216.468ZM48.9574 223.474L50.7272 222.449C51.1731 222.201 51.5555 221.853 51.8442 221.432C52.1442 220.925 52.288 220.341 52.2576 219.753C52.2576 219.026 52.1198 218.656 51.8442 218.583C51.4493 218.529 51.0488 218.631 50.7272 218.867L48.9574 219.891V223.474Z" fill="#FAFAFA"/>
<path d="M63.5509 218.111C63.5602 217.955 63.6048 217.803 63.6815 217.668C63.7328 217.564 63.8103 217.477 63.9063 217.413L64.9 216.839C64.9343 216.813 64.9764 216.798 65.0197 216.798C65.063 216.798 65.1051 216.813 65.1394 216.839C65.1766 216.881 65.2038 216.931 65.2189 216.985C65.2339 217.039 65.2365 217.096 65.2264 217.152C65.1966 217.722 65.1141 218.289 64.9798 218.845C64.8291 219.458 64.6102 220.053 64.327 220.618C64.0236 221.216 63.6485 221.775 63.21 222.282C62.7461 222.815 62.197 223.267 61.5853 223.619C61.1386 223.909 60.6229 224.075 60.0911 224.099C59.6805 224.098 59.2859 223.939 58.9886 223.656C58.6415 223.313 58.3912 222.884 58.2633 222.413C58.0827 221.789 57.9827 221.144 57.9659 220.494C57.9659 220.022 57.9659 219.499 57.9659 218.925C57.9659 218.351 57.9659 217.813 57.9659 217.319C57.9953 216.555 58.0948 215.796 58.2633 215.051C58.4268 214.341 58.6701 213.651 58.9886 212.995C59.2804 212.378 59.651 211.801 60.0911 211.28C60.5126 210.773 61.018 210.343 61.5853 210.008C62.0719 209.691 62.631 209.504 63.21 209.463C63.615 209.455 64.0102 209.588 64.327 209.841C64.6351 210.115 64.8611 210.47 64.9798 210.866C65.1217 211.318 65.2046 211.787 65.2264 212.261C65.234 212.407 65.204 212.552 65.1394 212.682C65.0844 212.793 65.002 212.888 64.9 212.959L63.9063 213.533C63.8713 213.554 63.8312 213.565 63.7903 213.565C63.7494 213.565 63.7093 213.554 63.6742 213.533C63.6017 213.496 63.5582 213.395 63.5437 213.242C63.5196 213.021 63.4608 212.805 63.3696 212.602C63.2893 212.427 63.161 212.279 62.9997 212.174C62.8214 212.072 62.6161 212.029 62.4122 212.05C62.1187 212.094 61.8373 212.198 61.5853 212.355C61.266 212.546 60.9835 212.792 60.7512 213.082C60.5121 213.372 60.3121 213.692 60.1564 214.034C59.9903 214.391 59.8685 214.767 59.7938 215.153C59.7074 215.548 59.6564 215.949 59.6414 216.352C59.6414 216.839 59.6414 217.37 59.6414 217.951C59.6414 218.532 59.6414 219.056 59.6414 219.521C59.6496 219.872 59.7007 220.221 59.7938 220.56C59.8541 220.815 59.979 221.05 60.1564 221.243C60.3144 221.402 60.527 221.496 60.7512 221.504C61.0489 221.502 61.3391 221.411 61.5853 221.243C61.8936 221.07 62.1726 220.849 62.4122 220.589C62.6391 220.342 62.8386 220.072 63.0069 219.782C63.161 219.51 63.2874 219.222 63.3841 218.925C63.4668 218.66 63.5226 218.387 63.5509 218.111Z" fill="#FAFAFA"/>
<path d="M66.3652 212.385C66.3945 211.664 66.4818 210.947 66.6263 210.241C66.7751 209.55 66.9989 208.877 67.2936 208.235C67.585 207.613 67.9555 207.032 68.3961 206.506C68.8365 205.978 69.367 205.532 69.9628 205.19C70.4272 204.889 70.9626 204.716 71.515 204.689C71.7201 204.686 71.9236 204.726 72.1131 204.804C72.3026 204.883 72.4742 205 72.6175 205.147C72.9438 205.494 73.176 205.919 73.292 206.382C73.4583 206.984 73.5485 207.604 73.5604 208.228C73.5604 208.46 73.5604 208.722 73.5604 209.005C73.5604 209.289 73.5604 209.594 73.5604 209.899C73.5604 210.204 73.5604 210.51 73.5604 210.8C73.5604 211.091 73.5604 211.36 73.5604 211.607C73.5383 212.326 73.4509 213.041 73.2993 213.743C73.1515 214.437 72.9277 215.112 72.632 215.756C72.3397 216.377 71.9665 216.956 71.5222 217.479C71.0822 218 70.5544 218.44 69.9628 218.779C69.495 219.086 68.9542 219.261 68.3961 219.288C68.1918 219.289 67.9892 219.25 67.8 219.173C67.6108 219.096 67.4387 218.982 67.2936 218.838C66.9678 218.491 66.7378 218.065 66.6263 217.602C66.4713 217.001 66.3837 216.384 66.3652 215.764C66.3652 215.531 66.3652 215.27 66.3652 214.986C66.3652 214.703 66.3652 214.397 66.3652 214.092C66.3652 213.787 66.3652 213.482 66.3652 213.191C66.3652 212.9 66.3579 212.632 66.3652 212.385ZM71.9066 209.274C71.9351 208.956 71.8997 208.635 71.8025 208.33C71.7053 208.026 71.5484 207.744 71.3409 207.501C70.9927 207.203 70.5358 207.218 69.9628 207.552C69.3594 207.915 68.8791 208.452 68.5847 209.093C68.2252 209.854 68.0323 210.684 68.0189 211.527C68.0189 212.014 68.0189 212.552 68.0189 213.133C68.0189 213.714 68.0189 214.245 68.0189 214.717C67.9915 215.034 68.0274 215.354 68.1245 215.657C68.2216 215.96 68.3781 216.241 68.5847 216.483C68.9328 216.774 69.3898 216.752 69.9628 216.418C70.564 216.058 71.044 215.527 71.3409 214.892C71.7037 214.134 71.8968 213.305 71.9066 212.464C71.9066 211.978 71.9066 211.44 71.9066 210.858C71.9066 210.277 71.9211 209.747 71.9066 209.282V209.274Z" fill="#FAFAFA"/>
<path d="M78.5289 200.423C79.0022 200.119 79.5424 199.934 80.1028 199.885C80.3059 199.871 80.5097 199.9 80.7009 199.97C80.8921 200.041 81.0664 200.15 81.2126 200.292C81.5503 200.635 81.7863 201.065 81.8944 201.535C82.0707 202.182 82.1681 202.848 82.1845 203.519C82.2232 204.434 82.2232 205.365 82.1845 206.309C82.157 207.089 82.0599 207.865 81.8944 208.627C81.7498 209.33 81.5234 210.013 81.2198 210.662C80.9331 211.272 80.5646 211.839 80.1246 212.348C79.6831 212.848 79.1638 213.272 78.5869 213.605L75.5043 215.386C75.4717 215.413 75.4306 215.428 75.3882 215.428C75.3458 215.428 75.3047 215.413 75.2722 215.386C75.2371 215.344 75.2106 215.295 75.1944 215.243C75.1783 215.19 75.1726 215.135 75.1779 215.081V202.872C75.1777 202.729 75.21 202.587 75.2722 202.458C75.3195 202.342 75.4003 202.244 75.5043 202.174L78.5289 200.423ZM80.5308 204.478C80.5226 204.127 80.4714 203.778 80.3784 203.439C80.3149 203.182 80.1848 202.946 80.0013 202.756C79.9171 202.676 79.818 202.614 79.7097 202.573C79.6014 202.531 79.486 202.512 79.3702 202.516C79.047 202.539 78.735 202.644 78.4636 202.821L76.8243 203.766V212.261L78.5289 211.28C78.8566 211.087 79.1506 210.841 79.3992 210.553C79.6405 210.262 79.8451 209.942 80.0085 209.601C80.1728 209.243 80.2969 208.868 80.3784 208.482C80.4657 208.081 80.5167 207.672 80.5308 207.261C80.5694 206.317 80.5694 205.389 80.5308 204.478Z" fill="#FAFAFA"/>
<path d="M89.4885 204.921C89.5204 204.893 89.5617 204.877 89.6046 204.877C89.6474 204.877 89.6887 204.893 89.7206 204.921C89.7575 204.961 89.7857 205.008 89.8032 205.059C89.8207 205.111 89.8271 205.165 89.8222 205.219V206.556C89.8196 206.703 89.785 206.846 89.7206 206.978C89.6753 207.095 89.594 207.194 89.4885 207.261L84.1211 210.364C84.0892 210.393 84.0479 210.409 84.0051 210.409C83.9622 210.409 83.9209 210.393 83.889 210.364C83.8523 210.323 83.8243 210.275 83.8069 210.222C83.7894 210.17 83.7828 210.114 83.7875 210.059V197.894C83.7901 197.75 83.8248 197.609 83.889 197.48C83.9363 197.362 84.017 197.261 84.1211 197.189L89.3942 194.144C89.4261 194.116 89.4675 194.1 89.5103 194.1C89.5531 194.1 89.5944 194.116 89.6263 194.144C89.6614 194.186 89.6878 194.235 89.704 194.288C89.7202 194.34 89.7259 194.395 89.7206 194.45V195.787C89.7207 195.93 89.6885 196.072 89.6263 196.201C89.579 196.317 89.4981 196.415 89.3942 196.484L85.4412 198.773V201.775L89.1259 199.645C89.1578 199.617 89.1991 199.601 89.2419 199.601C89.2847 199.601 89.326 199.617 89.358 199.645C89.3931 199.688 89.4195 199.736 89.4357 199.789C89.4518 199.841 89.4575 199.896 89.4522 199.951V201.288C89.4524 201.431 89.4201 201.573 89.358 201.702C89.3106 201.818 89.2298 201.916 89.1259 201.985L85.4412 204.115V207.254L89.4885 204.921Z" fill="#FAFAFA"/>
<path d="M68.2294 316.556L40.2173 300.351C39.6695 299.994 39.2137 299.512 38.8872 298.945C38.5607 298.378 38.3728 297.742 38.3387 297.088V293.273C38.3739 292.619 38.5623 291.983 38.8887 291.416C39.2151 290.849 39.6703 290.368 40.2173 290.01L71.7617 271.777C72.3447 271.48 72.9897 271.325 73.6439 271.325C74.2981 271.325 74.9431 271.48 75.5261 271.777L103.509 287.968C104.056 288.326 104.511 288.807 104.838 289.374C105.164 289.941 105.353 290.577 105.388 291.231V295.031C105.354 295.685 105.166 296.322 104.839 296.889C104.513 297.456 104.057 297.937 103.509 298.294L71.9648 316.541C71.3866 316.836 70.7475 316.991 70.0988 316.994C69.4501 316.996 68.8098 316.846 68.2294 316.556Z" fill="#37474F"/>
<path d="M71.7616 271.777L40.2173 290.024C39.1801 290.62 39.1801 291.601 40.2173 292.204L68.2293 308.41C68.8124 308.707 69.4573 308.862 70.1115 308.862C70.7658 308.862 71.4107 308.707 71.9938 308.41L103.509 290.141C104.546 289.545 104.546 288.564 103.509 287.961L75.5261 271.777C74.9431 271.48 74.2981 271.325 73.6439 271.325C72.9896 271.325 72.3447 271.48 71.7616 271.777Z" fill="#455A64"/>
<path d="M70.1441 308.838V316.999C69.4899 317.011 68.8434 316.856 68.2656 316.549L40.2535 300.343C39.707 299.987 39.2522 299.506 38.9258 298.941C38.5994 298.375 38.4107 297.74 38.3749 297.088V293.265C38.4069 292.682 38.5601 292.112 38.8249 291.591C39.0897 291.07 39.4602 290.611 39.9126 290.242C39.2308 290.838 39.3469 291.645 40.2535 292.175L68.2656 308.381C68.8414 308.694 69.4889 308.852 70.1441 308.838Z" fill="#263238"/>
<path d="M67.4749 291.398C67.7288 290.366 69.4986 289.341 71.2829 289.218L72.9439 289.08C73.8723 289 74.7209 288.513 74.8515 287.975C74.982 287.437 74.3437 287.074 73.4008 287.154L71.7398 287.292C69.9835 287.427 68.2778 287.946 66.7423 288.811C65.2917 289.639 64.3705 290.664 64.1167 291.718L62.5935 297.938C62.064 300.067 64.6316 301.572 68.309 301.245L69.97 301.106C71.7262 300.97 73.4315 300.452 74.9675 299.588C76.4182 298.752 77.3321 297.727 77.5859 296.681L78.3113 293.716C78.4418 293.185 77.8035 292.815 76.8606 292.895C75.9177 292.975 75.0836 293.462 74.953 293.992L74.2277 296.957C73.9738 297.982 72.204 299.006 70.4197 299.137L68.7515 299.275C66.9164 299.428 65.6326 298.679 65.8937 297.618L67.4459 291.354L67.4749 291.398ZM79.6168 288.491L81.1618 282.227C81.2807 281.717 81.2183 281.182 80.9852 280.714C80.7521 280.245 80.363 279.873 79.8852 279.662C78.5085 278.989 76.965 278.736 75.4462 278.935L73.7707 279.044C72.0168 279.181 70.3138 279.699 68.7805 280.563C67.3298 281.391 66.4087 282.423 66.1548 283.47L65.4875 286.18C65.357 286.711 65.9953 287.081 66.9382 287.001C67.8811 286.921 68.7152 286.435 68.8458 285.904L69.5131 283.193C69.6254 282.876 69.7993 282.585 70.0246 282.335C70.2499 282.086 70.5222 281.884 70.8259 281.74C71.5915 281.305 72.4434 281.044 73.321 280.977L74.9893 280.839C75.747 280.742 76.5165 280.871 77.2015 281.21C77.4416 281.315 77.6371 281.501 77.7538 281.737C77.8705 281.972 77.9009 282.24 77.8398 282.496L76.2949 288.76C76.041 289.792 74.2639 290.816 72.4869 290.94C71.5657 291.02 70.7171 291.507 70.5793 292.045C70.4415 292.582 71.087 292.946 72.03 292.866C73.7829 292.729 75.4854 292.213 77.0202 291.354C78.4708 290.519 79.392 289.494 79.6531 288.447L79.6168 288.491Z" fill="white"/>
<path d="M94.9938 264.256V260.441C95.0278 259.787 95.2157 259.15 95.5422 258.583C95.8687 258.016 96.3245 257.535 96.8724 257.178L144.853 229.404C145.436 229.106 146.081 228.951 146.735 228.951C147.389 228.951 148.034 229.106 148.617 229.404L176.636 245.616C177.185 245.972 177.643 246.453 177.97 247.021C178.298 247.588 178.487 248.225 178.522 248.879V252.694C178.487 253.349 178.298 253.985 177.97 254.553C177.643 255.12 177.185 255.601 176.636 255.957L128.649 283.731C128.066 284.029 127.421 284.184 126.767 284.184C126.112 284.184 125.467 284.029 124.884 283.731L96.8724 267.526C96.3244 267.168 95.8686 266.685 95.5422 266.116C95.2157 265.548 95.0278 264.911 94.9938 264.256Z" fill="#E0E0E0"/>
<path d="M178.515 248.872V252.687C178.481 253.341 178.293 253.977 177.966 254.544C177.64 255.111 177.184 255.593 176.636 255.95L128.649 283.724C128.072 284.035 127.425 284.19 126.77 284.175V276.007C127.424 276.019 128.071 275.864 128.649 275.556L176.636 247.796C177.543 247.273 177.659 246.459 176.977 245.863C177.428 246.23 177.797 246.687 178.062 247.205C178.327 247.723 178.481 248.291 178.515 248.872Z" fill="#F0F0F0"/>
<path d="M105.605 272.569L98.352 273.979V282.169C98.355 282.313 98.3905 282.454 98.4558 282.582C98.5211 282.71 98.6144 282.821 98.7289 282.908C98.8434 282.995 98.9759 283.054 99.1167 283.082C99.2574 283.11 99.4027 283.106 99.5415 283.07L116.224 278.71V270.52L105.605 272.569Z" fill="#F0F0F0"/>
<path d="M126.77 275.665C126.175 275.681 125.585 275.543 125.058 275.265L116.224 270.178L99.411 274.604H99.2442C99.1303 274.601 99.0194 274.566 98.924 274.504C98.8285 274.442 98.7521 274.354 98.7032 274.251C98.6544 274.148 98.635 274.033 98.6473 273.92C98.6596 273.806 98.703 273.699 98.7727 273.608L106.091 264.292L97.0464 259.06C96.8699 259.015 96.7134 258.912 96.6017 258.768C96.4899 258.624 96.4292 258.447 96.4292 258.264C96.4292 258.082 96.4899 257.904 96.6017 257.76C96.7134 257.616 96.8699 257.514 97.0464 257.468L145.034 229.694C145.565 229.426 146.151 229.287 146.746 229.287C147.34 229.287 147.926 229.426 148.457 229.694L176.469 245.899C176.646 245.945 176.802 246.047 176.914 246.191C177.026 246.335 177.087 246.513 177.087 246.695C177.087 246.878 177.026 247.055 176.914 247.199C176.802 247.343 176.646 247.446 176.469 247.491L128.482 275.265C127.955 275.543 127.366 275.681 126.77 275.665Z" fill="#FAFAFA"/>
<path d="M146.746 229.629C147.282 229.619 147.813 229.741 148.291 229.985L176.303 246.19C176.571 246.35 176.745 246.539 176.745 246.692C176.745 246.844 176.571 247.04 176.303 247.2L128.315 274.967C127.835 275.206 127.306 275.33 126.77 275.33C126.234 275.33 125.705 275.206 125.225 274.967L116.521 269.931L116.282 269.793L116.014 269.866L99.3312 274.226H99.2514C99.2005 274.225 99.1509 274.209 99.1085 274.181C99.0661 274.153 99.0327 274.113 99.012 274.066C98.9891 274.021 98.9802 273.969 98.9867 273.919C98.9932 273.868 99.0146 273.821 99.0483 273.783L106.12 264.772L106.606 264.161L105.932 263.769L97.2277 258.733C96.9521 258.573 96.7853 258.377 96.7853 258.224C96.7853 258.072 96.9521 257.883 97.2277 257.723L145.215 229.949C145.693 229.703 146.224 229.58 146.76 229.593M146.76 228.917C146.103 228.902 145.454 229.057 144.874 229.367L96.8868 257.142C95.8496 257.737 95.8496 258.711 96.8868 259.322L105.591 264.358L98.5188 273.369C98.4096 273.508 98.3412 273.674 98.3213 273.85C98.3014 274.026 98.3307 274.204 98.406 274.364C98.4813 274.524 98.5996 274.659 98.7477 274.756C98.8957 274.852 99.0676 274.905 99.2441 274.909C99.3284 274.919 99.4137 274.919 99.498 274.909L116.18 270.549L124.884 275.585C125.465 275.892 126.114 276.047 126.77 276.036C127.424 276.048 128.071 275.893 128.649 275.585L176.636 247.796C177.681 247.193 177.681 246.219 176.636 245.616L148.624 229.411C148.048 229.1 147.4 228.945 146.746 228.96L146.76 228.917Z" fill="#E0E0E0"/>
<path d="M127.829 264.554C127.548 264.538 127.276 264.45 127.039 264.299L114.389 256.974C113.954 256.727 114.128 256.378 114.911 255.928L115.716 255.463C116.49 255.012 117.092 254.911 117.522 255.158L128.359 261.429L131.354 259.699C131.573 259.571 131.83 259.525 132.08 259.569C132.402 259.632 132.709 259.755 132.986 259.932L133.61 260.288C133.859 260.406 134.074 260.586 134.234 260.811C134.299 260.957 134.234 261.095 134.009 261.218L128.62 264.336C128.382 264.481 128.108 264.556 127.829 264.554Z" fill="#F54748"/>
<path d="M123.818 252.883L122.614 252.156C122.186 251.909 122.418 251.524 123.339 251.008C124.261 250.492 124.957 250.282 125.392 250.565L126.596 251.292C127.024 251.539 126.792 251.924 125.871 252.447C124.95 252.97 124.268 253.137 123.818 252.883ZM135.336 259.714L126.052 254.336C125.627 254.089 125.815 253.733 126.618 253.268L127.176 252.941C127.984 252.457 128.6 252.348 129.026 252.614L138.325 257.97C138.755 258.217 138.566 258.573 137.759 259.038L137.2 259.365C136.41 259.859 135.793 259.968 135.358 259.721L135.336 259.714Z" fill="#F54748"/>
<path d="M140.406 256.8L133.994 253.094C133.307 252.679 132.594 252.305 131.862 251.975C131.391 251.778 131.137 251.655 131.021 251.604C130.774 251.459 130.883 251.197 131.332 250.805C131.732 250.449 132.164 250.133 132.624 249.86C132.837 249.719 133.095 249.659 133.349 249.693C133.598 249.744 133.842 249.822 134.074 249.925C134.343 250.042 134.553 250.136 134.713 250.194C134.56 249.782 134.56 249.328 134.713 248.915C134.933 248.424 135.318 248.025 135.8 247.789C136.524 247.366 137.358 247.171 138.194 247.229C139.135 247.307 140.044 247.606 140.849 248.101L148.102 252.309C148.53 252.563 148.356 252.905 147.58 253.355L146.898 253.755C146.122 254.206 145.52 254.307 145.085 254.053L138.491 250.238C138.206 250.061 137.888 249.942 137.556 249.889C137.265 249.858 136.971 249.924 136.722 250.078C136.549 250.157 136.414 250.302 136.346 250.48C136.278 250.658 136.283 250.855 136.359 251.03L143.402 255.063C143.62 255.187 143.685 255.332 143.605 255.506C143.421 255.765 143.17 255.969 142.88 256.095L142.154 256.502C141.436 256.953 140.834 257.047 140.406 256.8Z" fill="#F54748"/>
<path d="M158.402 246.764C158.619 246.888 158.402 247.149 157.676 247.556L156.552 248.203C156.367 248.327 156.16 248.416 155.943 248.465C155.759 248.503 155.568 248.503 155.384 248.465L148.994 246.837L148.769 246.968L153.121 249.482C153.552 249.729 153.378 250.078 152.599 250.529L151.953 250.899C151.175 251.35 150.573 251.451 150.147 251.204L136.236 243.153C135.8 242.905 135.975 242.557 136.758 242.106L137.396 241.736C138.18 241.285 138.782 241.183 139.21 241.43L147.572 246.27L147.674 246.212L145.36 242.898C145.266 242.753 145.244 242.637 145.288 242.564C145.427 242.424 145.589 242.308 145.766 242.222L146.811 241.619C147.536 241.198 148.008 241.052 148.262 241.191C148.376 241.276 148.47 241.385 148.537 241.51L150.931 245.086L157.908 246.633C158.078 246.656 158.243 246.7 158.402 246.764Z" fill="#F54748"/>
<path d="M191.592 277.99C191.658 281.58 191.941 286.805 191.592 288.295C191.244 289.785 185.268 291.202 180.596 291.449C175.925 291.696 170.304 290.94 169.97 294.225C169.637 297.509 172.553 299.748 174.7 300.765C178.326 302.451 182.41 302.088 185.986 301.557C189.561 301.027 191.462 301.419 195.241 302.342C199.02 303.265 201.145 302.698 202.755 301.884C205.149 300.685 204.51 296.594 203.669 293.927C202.828 291.26 202.944 288.84 203.234 285.126C203.524 281.413 204.597 276.036 204.597 276.036L191.592 277.99Z" fill="#FFBDA7"/>
<path d="M203.669 293.905C203.669 293.905 203.669 295.039 201.217 295.555C198.766 296.07 194.69 295.932 191.861 296.121C187.596 296.397 184.354 296.884 179.465 296.121C175.171 295.446 175.352 292.037 179.197 291.492C174.845 291.565 170.275 291.267 169.97 294.225C169.63 297.546 172.553 299.748 174.7 300.765C178.326 302.451 182.41 302.088 185.986 301.557C189.561 301.027 191.462 301.419 195.241 302.342C199.02 303.265 201.145 302.698 202.755 301.884C205.149 300.663 204.51 296.572 203.669 293.905Z" fill="#455A64"/>
<path d="M235.96 269.081C237.962 271.988 241.277 277.496 241.763 278.87C242.249 280.243 242.633 285.366 241.763 286.863C240.508 287.779 238.543 288.317 236.86 289.138C234.437 290.337 233.915 292.328 235.504 293.847C237.68 295.976 241.306 296.223 243.431 296.1C246.565 295.62 246.782 292.103 247.232 288.992C247.682 285.882 247.123 279.771 249.502 276.014C251.881 272.257 256.03 271.901 256.574 273.151C256.32 271.261 255.276 271.203 253.02 269.924C250.764 268.645 248.791 268.681 247.544 265.709C246.093 262.199 244.715 257.999 244.715 257.999L235.96 269.081Z" fill="#FFBDA7"/>
<path d="M240.37 296.18C242.619 296.557 244.2 296.55 248.197 294.588C251.642 292.895 252.549 292.183 253.042 291.238C253.876 289.785 252.977 286.086 253.702 282.917C254.236 280.691 254.999 278.526 255.979 276.457C256.756 274.539 256.705 273.71 256.574 273.151C256.306 271.952 253.869 271.799 251.548 273.151C249.227 274.502 247.725 277.075 246.964 283.201C246.202 289.327 247.377 296.027 240.37 296.18Z" fill="#263238"/>
<path d="M256.552 273.151C256.299 271.261 255.646 270.971 253.383 269.699C252.549 269.226 251.722 268.885 250.953 268.485C248.777 268.071 245.317 269.793 245.15 274.393C244.984 278.993 245.76 284.821 244.382 286.987C243.207 288.825 241.27 288.702 241.72 286.878C238.615 288.019 237.549 288.033 235.801 288.993C233.785 290.097 233.103 292.989 234.967 294.152C237.432 295.834 240.435 296.534 243.388 296.114C246.521 295.635 246.739 292.117 247.189 289.007C247.638 285.897 247.123 279.771 249.502 276.014C251.881 272.257 256.03 271.901 256.552 273.151Z" fill="#455A64"/>
<path d="M236.555 270.905C236.555 270.905 225.175 254.155 219.089 243.291C214.592 235.297 214.186 233.713 213.084 228.466C210.712 217.188 210.182 214.543 210.182 214.543L206.65 237.325C207.216 239.795 208.355 244.693 208.398 247.571C208.367 253.195 207.912 258.809 207.035 264.365C206.215 270.626 205.06 276.839 203.575 282.976C202.69 283.593 200.122 283.702 197.888 283.637C195.719 283.507 193.575 283.107 191.505 282.445C191.505 282.445 189.649 255.601 189.213 248.21C188.698 239.352 188.488 235.857 188.241 231.002C187.799 223.256 186.747 212.028 187.045 197.792C187.647 169.451 193.942 156.538 193.942 156.538L225.857 152.098C228.504 161.639 234.009 162.751 234.561 175.774C234.698 178.731 233.11 184.603 233.11 189.188C232.943 204.071 231.616 227.449 231.616 227.449C235.119 230.69 237.687 233.611 240.102 241.125C241.553 245.682 244.838 257.221 246.209 261.909C242.155 261.916 236.504 269.081 236.555 270.905Z" fill="#455A64"/>
<path d="M204.329 172.874L205.17 172.743C205.896 177.874 207.136 183.695 207.811 184.16C208.986 184.959 213.323 185.613 214.302 185.366C215.281 185.119 216.137 184.327 217.871 181.965C219.089 180.308 218.959 179.276 218.669 177.016C218.567 176.173 218.444 175.214 218.364 174.008L219.22 173.95C219.293 175.127 219.416 176.071 219.517 176.907C219.808 179.182 219.982 180.541 218.553 182.495C216.681 185.046 215.731 185.918 214.498 186.216C214.319 186.256 214.137 186.28 213.954 186.289C212.235 186.361 208.5 185.678 207.339 184.886C205.997 184 204.67 175.468 204.329 172.874Z" fill="#37474F"/>
<path d="M191.23 172.118L192.049 172.358C189.634 181.078 190.164 189.021 194.486 191.441C195.277 185.569 196.387 179.501 197.917 173.005L198.744 173.208C193.826 194.123 193.232 210.597 193.863 230.399C194.349 245.485 195.313 271.414 195.749 283.448L194.885 283.302C194.436 271.196 193.493 245.442 193.014 230.428C192.579 217.028 192.724 205.132 194.37 192.364C189.416 189.842 188.633 181.449 191.23 172.118Z" fill="#37474F"/>
<path d="M234.198 179.923C233.666 180.432 233.023 180.811 232.319 181.028C230.97 181.093 228.744 179.167 228.105 177.721C227.8 176.886 227.609 176.013 227.539 175.127C227.409 173.812 227.166 172.512 226.814 171.239L227.634 170.992C227.984 172.312 228.227 173.658 228.359 175.018C228.412 175.829 228.57 176.631 228.831 177.401C229.367 178.622 231.318 180.228 232.218 180.192C233.031 179.774 233.754 179.199 234.343 178.499C234.343 178.891 234.263 179.487 234.198 179.923Z" fill="#37474F"/>
<path d="M239.232 266.4C239.435 266.167 239.631 265.942 239.841 265.724C234.394 256.204 222.694 235.377 221.65 230.326C220.308 223.852 218.023 202.16 217.914 190.489H217.059C217.153 202.203 219.467 223.997 220.816 230.501C221.904 235.798 233.821 256.953 239.232 266.4Z" fill="#37474F"/>
<path d="M222.542 169.473C224.718 172.925 226.024 178.978 223.224 185.613L222.462 185.3C225.124 178.971 223.913 173.237 221.846 169.975L222.542 169.473Z" fill="#37474F"/>
<path d="M210.132 214.55L213.599 190.663C213.599 190.663 222.571 189.406 223.811 180.977C224.029 185.976 222.034 190.278 216.464 192.604L212.01 214.652L213.055 228.459L210.132 214.55Z" fill="#37474F"/>
<path d="M151.33 106.338V81.6956C151.372 81.4667 151.343 81.2304 151.249 81.0177C151.155 80.8051 150.998 80.626 150.8 80.5039C150.597 80.3887 150.363 80.3394 150.13 80.3629C149.898 80.3863 149.678 80.4812 149.502 80.6347L138.753 86.8552C138.538 87.0044 138.361 87.2015 138.235 87.431C138.109 87.6605 138.038 87.9161 138.027 88.1778V112.82C137.983 113.049 138.01 113.286 138.106 113.498C138.202 113.71 138.362 113.887 138.564 114.004C138.765 114.121 138.997 114.171 139.229 114.149C139.461 114.127 139.679 114.034 139.855 113.881L150.612 107.66C150.841 107.527 151.028 107.333 151.155 107.1C151.282 106.866 151.342 106.603 151.33 106.338Z" fill="#37474F"/>
<path d="M150.655 106.585L139.601 112.98V88.2286L138.216 87.4293C138.082 87.6489 138.008 87.8991 137.998 88.156V112.798C137.962 113.028 137.994 113.263 138.089 113.474C138.184 113.686 138.339 113.865 138.535 113.99C138.739 114.099 138.97 114.144 139.2 114.121C139.43 114.097 139.648 114.006 139.826 113.859L150.583 107.639C150.877 107.479 151.108 107.222 151.235 106.912H151.192L150.655 106.585Z" fill="#263238"/>
<path d="M150.554 81.4704L139.775 87.7054C139.621 87.8088 139.492 87.9465 139.399 88.1078C139.305 88.2691 139.251 88.4497 139.239 88.6356V113.067C139.239 113.59 139.608 113.794 140.065 113.539L150.561 107.472C150.736 107.355 150.882 107.199 150.987 107.016C151.091 106.833 151.151 106.628 151.163 106.418V81.8192C151.156 81.4341 150.887 81.2814 150.554 81.4704Z" fill="#455A64"/>
<path d="M150.655 83.0546V105.8C150.644 106 150.586 106.195 150.485 106.368C150.384 106.541 150.243 106.688 150.075 106.796L140.355 112.42C140.036 112.609 139.783 112.42 139.783 112.093V89.1661C139.801 88.8359 139.946 88.5257 140.189 88.3013L140.239 88.2504L140.355 88.1705L143.09 86.5936L143.271 86.4846C143.366 86.4337 143.445 86.4846 143.445 86.5936C143.445 86.7026 143.532 86.7462 143.641 86.688L146.825 84.8422C146.879 84.8081 146.923 84.7621 146.956 84.7079C146.989 84.6538 147.008 84.5928 147.014 84.5298C147.017 84.4714 147.033 84.4145 147.061 84.363C147.088 84.3116 147.127 84.2668 147.174 84.2318L149.85 82.684H149.901C150.307 82.4078 150.655 82.5968 150.655 83.0546Z" fill="#263238"/>
<path d="M149.85 82.6694V105.262C149.838 105.462 149.78 105.657 149.679 105.83C149.578 106.003 149.438 106.149 149.27 106.258L139.775 111.759V89.166C139.793 88.8358 139.939 88.5256 140.181 88.3013L140.232 88.2504L140.348 88.1704L143.083 86.5935L143.264 86.4845C143.358 86.4336 143.438 86.4845 143.438 86.5935C143.438 86.7025 143.525 86.7461 143.634 86.688L146.818 84.8422C146.871 84.808 146.916 84.7621 146.949 84.7079C146.981 84.6537 147.001 84.5928 147.007 84.5297C147.01 84.4714 147.026 84.4145 147.054 84.363C147.081 84.3115 147.12 84.2667 147.166 84.2318L149.85 82.6694Z" fill="white"/>
<path d="M144.127 85.7433L145.578 84.9003C145.665 84.8495 145.73 84.9003 145.73 84.9803C145.727 85.0328 145.712 85.0839 145.685 85.1294C145.659 85.1748 145.622 85.2134 145.578 85.2419L144.127 86.0849C144.04 86.1357 143.975 86.0849 143.975 86.0049C143.978 85.9524 143.993 85.9013 144.02 85.8558C144.046 85.8104 144.083 85.7718 144.127 85.7433Z" fill="#263238"/>
<path d="M146.303 84.3626C146.405 84.3117 146.484 84.3626 146.484 84.4643C146.481 84.5272 146.463 84.5884 146.432 84.6427C146.4 84.6971 146.356 84.7431 146.303 84.7768C146.209 84.835 146.129 84.7768 146.129 84.6751C146.132 84.6131 146.15 84.5528 146.18 84.4986C146.21 84.4445 146.252 84.398 146.303 84.3626Z" fill="#263238"/>
<path d="M138.985 91.3098C138.982 91.2092 138.956 91.1105 138.908 91.022C138.86 90.9335 138.792 90.8578 138.709 90.8011C138.679 90.7839 138.645 90.7748 138.611 90.7748C138.577 90.7748 138.543 90.7839 138.513 90.8011L138.303 90.9247C138.273 90.9471 138.249 90.9769 138.234 91.0113C138.218 91.0457 138.212 91.0834 138.216 91.1209V93.2501C138.219 93.3514 138.246 93.4505 138.295 93.539C138.345 93.6275 138.414 93.7029 138.499 93.7588C138.526 93.774 138.558 93.782 138.589 93.782C138.621 93.782 138.652 93.774 138.68 93.7588L138.898 93.6352C138.929 93.6122 138.954 93.5812 138.969 93.5454C138.984 93.5096 138.99 93.4704 138.985 93.4318V91.3098Z" fill="#455A64"/>
<path d="M138.774 91.4261V93.5553C138.774 93.7442 138.651 93.8242 138.499 93.737C138.414 93.6811 138.345 93.6057 138.295 93.5172C138.246 93.4286 138.219 93.3296 138.216 93.2283V91.099C138.216 90.9101 138.339 90.8302 138.499 90.9174C138.581 90.9749 138.649 91.0508 138.696 91.1391C138.744 91.2274 138.771 91.3257 138.774 91.4261Z" fill="#37474F"/>
<path d="M138.985 95.0305C138.981 94.9291 138.955 94.8298 138.907 94.7403C138.859 94.6509 138.791 94.5736 138.709 94.5146C138.679 94.4987 138.645 94.4904 138.611 94.4904C138.577 94.4904 138.543 94.4987 138.513 94.5146L138.303 94.6381C138.273 94.6605 138.249 94.6904 138.234 94.7247C138.218 94.7591 138.212 94.7969 138.216 94.8343V96.9635C138.219 97.0648 138.246 97.1639 138.295 97.2525C138.345 97.341 138.414 97.4164 138.499 97.4722C138.526 97.4875 138.558 97.4955 138.589 97.4955C138.621 97.4955 138.652 97.4875 138.68 97.4722L138.898 97.3487C138.929 97.3256 138.954 97.2946 138.969 97.2588C138.984 97.2231 138.99 97.1838 138.985 97.1452V95.0305Z" fill="#455A64"/>
<path d="M138.774 95.1468V97.276C138.774 97.4649 138.651 97.5448 138.499 97.4576C138.414 97.4018 138.345 97.3264 138.295 97.2379C138.246 97.1494 138.219 97.0503 138.216 96.949V94.8198C138.216 94.6308 138.339 94.5509 138.499 94.6381C138.581 94.6956 138.649 94.7715 138.696 94.8598C138.744 94.9481 138.771 95.0463 138.774 95.1468Z" fill="#37474F"/>
<path d="M228.533 113.518C234.336 114.898 237.484 116.512 239.877 124.418C242.14 131.903 245.926 144.54 246.92 149.903C247.406 152.512 247.645 154.99 244.019 156.538C235.823 160.012 227.924 162.446 227.924 162.446L224.725 152.752L233.487 148.392L231.311 141.328L228.533 113.518Z" fill="#FFBDA7"/>
<path d="M233.473 148.377C234.213 150.06 235.488 151.449 237.099 152.33C234.967 152.592 232.885 150.354 232.341 148.951L233.473 148.377Z" fill="#F0997A"/>
<path d="M200.325 84.5588C199.31 83.1999 199.455 81.1652 200.18 79.6391C200.906 78.1131 202.313 76.5361 206.2 74.8575C210.828 72.8591 223.441 71.5365 228.279 79.9952C229.005 81.2596 215.811 103.627 216.072 108.38C213.171 104.863 203.676 92.5379 203.676 92.5379C201.305 91.3244 199.89 90.3579 199.535 87.9816C199.431 86.7857 199.708 85.5876 200.325 84.5588Z" fill="#263238"/>
<path d="M201.703 91.1136C201.703 91.1136 198.019 96.2877 198.352 96.7528C199.076 97.4193 199.858 98.0199 200.688 98.5477L201.703 91.1136Z" fill="#F0997A"/>
<path d="M206.505 81.5503C204.213 82.4442 202.153 84.0066 201.138 88.8173C200.862 90.0745 201.732 91.8912 201.138 93.5553C198.693 100.67 200.55 106.883 201.863 108.314C202.755 109.281 207.666 110.037 210.357 109.499C213.686 108.816 221.004 106.113 224.747 101.244C229.157 95.5101 230.658 87.4874 226.459 83.9266C220.584 78.927 208.957 80.5984 206.505 81.5503Z" fill="#FFBDA7"/>
<path d="M222.361 105.204L222.781 112.435C226.785 114.782 218.495 117.841 209.726 114.07L209.087 107.53L222.361 105.204Z" fill="#FFBDA7"/>
<path d="M209.363 110.524C209.522 112.195 209.689 114.695 207.1 115.385C204.67 116.039 200.739 116.439 196.902 117.878C196.902 117.878 210.719 120.058 217.936 118.866C225.153 117.674 226.444 112.994 226.444 112.994C223.833 112.646 222.745 112.21 222.644 110.524H209.363Z" fill="#FFBDA7"/>
<path d="M202.153 108.532C203.263 109.259 205.78 109.913 209.283 109.673L209.123 107.864C208.024 108.211 206.895 108.454 205.751 108.591C204.555 108.749 203.343 108.73 202.153 108.532Z" fill="#F0997A"/>
<path d="M203.045 83.9193C202.704 87.0659 204.612 88.2068 205.947 88.9262C205.323 90.0497 205.029 91.3269 205.098 92.6106C205.301 94.2311 205.823 95.59 207.354 96.244C208.289 96.6365 208.609 96.244 209 95.5173C209.566 94.4709 210.299 92.8576 212.591 93.3373C215.223 93.8968 215.644 97.9518 213.903 100.466C213.566 100.999 213.104 101.441 212.559 101.757C212.013 102.072 211.399 102.25 210.77 102.276C210.426 102.246 210.092 102.143 209.79 101.974C209.489 101.805 209.227 101.573 209.022 101.295C209.022 101.295 208.949 104.805 213.294 107.195C213.294 107.195 217.646 110.102 222.39 109.034C224.654 106.86 226.799 104.565 228.816 102.159C234.227 95.4156 235.344 82.5967 227.17 79.6754C226.778 79.5373 220.054 77.8296 216.29 78.3746C204.851 79.9879 203.103 83.3743 203.045 83.9193Z" fill="#263238"/>
<path d="M228.265 79.9952C229.556 79.9952 233.458 81.9936 233.451 90.6849C233.451 96.5493 232 104.405 230.129 108.082C225.11 113.627 210.545 114.688 204.148 112.362C208.311 110.451 209.058 105.27 209.036 101.258C210.937 104.165 214.418 104.826 218.625 102.712C222.832 100.597 228.265 79.9952 228.265 79.9952Z" fill="#263238"/>
<path d="M234.162 120.712C232.958 114.84 229.81 113.568 228.359 113.314C226.103 112.914 224.732 112.682 224.732 112.682C224.776 113.409 225.233 115.029 218.756 115.843C214.585 116.366 207.404 115.298 207.404 115.298L200.985 116.17C198.614 117.623 192.796 123.248 190.055 129.737C187.879 134.868 188.698 140.093 192.564 143.908C192.862 147.127 192.34 153.508 192.34 153.508C190.113 165.135 188.872 170.04 188.872 170.04C188.872 170.04 191.912 174.8 211.59 174.356C226.821 174.015 233.857 167.191 233.857 167.191C233.415 164.909 231.826 160.026 228.947 152.432C229.309 145.005 236.766 133.4 234.162 120.712Z" fill="#F54748"/>
<path d="M168.266 124.345C168.266 124.345 153.556 115.298 152.672 114.084C151.895 113.045 151.946 111.752 151.772 110.531C151.553 109.133 151.132 107.775 150.525 106.498C150.14 105.655 149.611 104.863 149.277 104.005C148.943 103.148 149.001 102.341 148.711 101.542C148.421 100.742 147.609 100.997 147.101 101.542C146.483 102.338 146.196 103.343 146.303 104.347C146.303 104.79 146.347 105.233 146.376 105.677C146.448 106.084 146.477 106.498 146.463 106.912C146.451 107.128 146.369 107.335 146.231 107.501C145.897 107.799 145.273 107.333 144.998 107.108C143.178 105.608 141.679 103.757 140.588 101.665C140.123 100.764 139.862 99.8267 139.304 98.9546C138.832 98.1412 138.237 97.4058 137.541 96.7745C137.084 96.334 136.51 96.0339 135.888 95.9098C134.887 95.9679 135.438 97.7047 135.518 98.257C135.651 98.8764 135.609 99.5211 135.394 100.117C135.106 100.815 135.106 101.599 135.394 102.297C135.612 103.024 136.04 103.896 135.902 104.666C135.835 104.941 135.75 105.21 135.648 105.473C135.473 106.316 135.564 107.192 135.909 107.98C136.253 108.709 136.32 109.538 136.098 110.313C135.735 112.122 137.157 113.946 138.274 115.254C139.57 116.688 141.031 117.964 142.626 119.055C143.467 119.658 144.265 120.319 145.121 120.901C145.977 121.482 146.709 121.86 147.442 122.434C149.168 123.808 155.754 130.217 163.399 136.423C165.93 138.472 166.707 139.184 171.61 138.298C180.43 136.706 182.417 136.263 187.69 135.282C195.734 133.785 196.728 133.538 196.728 133.538C201.74 131.358 202.443 125.334 202.574 122.325C202.705 120.161 202.154 118.011 201 116.177C196.409 116.388 192.448 117.464 185.101 119.615C176.419 122.151 168.266 124.345 168.266 124.345Z" fill="#FFBDA7"/>
<path d="M213.831 68.1065L211.046 62.8597L213.287 56.3776V52.4099L206.425 56.3776V60.3454L209.377 65.4322C209.424 65.5088 209.492 65.5696 209.573 65.6066L213.831 68.1065Z" fill="#F54748"/>
<path opacity="0.2" d="M213.831 68.1065L211.046 62.8597L213.287 56.3776V52.4099L206.425 56.3776V60.3454L209.377 65.4322C209.424 65.5088 209.492 65.5696 209.573 65.6066L213.831 68.1065Z" fill="black"/>
<path d="M228.562 17.7248C228.524 17.0094 228.318 16.3132 227.96 15.6931C227.602 15.073 227.102 14.5465 226.502 14.1567L224.827 13.1829C224.189 12.8604 223.485 12.6923 222.771 12.6923C222.056 12.6923 221.352 12.8604 220.714 13.1829L197.076 26.9247C196.471 27.3159 195.968 27.8453 195.607 28.4694C195.247 29.0935 195.039 29.7944 195.002 30.5146V62.9106C195.04 63.626 195.246 64.3222 195.604 64.9423C195.962 65.5624 196.462 66.0889 197.061 66.4787L198.737 67.4452C199.374 67.7712 200.078 67.9411 200.793 67.9411C201.508 67.9411 202.213 67.7712 202.85 67.4452L210.734 62.867L213.679 67.9539C213.72 68.0271 213.781 68.0868 213.856 68.1258C213.93 68.1648 214.014 68.1815 214.097 68.1738C214.181 68.1661 214.26 68.1344 214.326 68.0825C214.392 68.0306 214.442 67.9607 214.469 67.8812L217.581 58.8557L226.502 53.6671C227.101 53.276 227.599 52.7492 227.957 52.1293C228.315 51.5095 228.522 50.814 228.562 50.099V17.7248Z" fill="#F54748"/>
<path opacity="0.2" d="M195.001 62.8889C195.04 63.6042 195.246 64.3004 195.604 64.9205C195.962 65.5406 196.461 66.0671 197.061 66.4569L198.737 67.4234C199.316 67.7163 199.95 67.8827 200.598 67.9115C201.245 67.9403 201.892 67.8309 202.494 67.5906C201.529 67.9612 200.79 67.4089 200.79 66.2389V33.8429C200.815 33.1268 201.022 32.429 201.392 31.8154L195.589 28.4653C195.22 29.0793 195.013 29.7769 194.987 30.4928L195.001 62.8889Z" fill="black"/>
<path opacity="0.3" d="M228.497 17.1361C228.25 16.2641 227.46 15.9807 226.51 16.533L202.878 30.2748C202.268 30.6513 201.767 31.1828 201.428 31.8154L195.625 28.4726C195.969 27.8431 196.469 27.3127 197.076 26.932L220.729 13.1829C221.367 12.8637 222.071 12.6975 222.785 12.6975C223.499 12.6975 224.203 12.8637 224.841 13.1829L226.524 14.1567C227.036 14.4953 227.474 14.9336 227.813 15.4455C228.152 15.9574 228.384 16.5323 228.497 17.1361Z" fill="white"/>
<path d="M220.896 27.7459C219.01 26.6559 216.609 26.8375 214.143 28.2618C208.681 31.4375 204.184 39.9616 204.184 47.2867C204.184 51.2109 205.482 54.2121 207.745 55.5202C208.56 55.995 209.486 56.2456 210.429 56.2468C211.865 56.1921 213.263 55.7638 214.484 55.0042C219.974 51.8285 224.435 43.2899 224.435 35.9793C224.45 32.0552 223.188 29.0612 220.896 27.7459ZM204.938 46.6399C205.144 42.8452 206.234 39.1516 208.123 35.8558C208.564 36.0662 209.033 36.213 209.515 36.2918C208.44 39.0768 207.854 42.027 207.782 45.0122L204.938 46.6399ZM214.694 41.822L220.156 38.6608C220.028 41.4758 219.437 44.2502 218.408 46.8725C217.111 46.862 215.833 47.1821 214.694 47.8027V41.822ZM214.694 40.9935V35.0564C216.178 34.1271 217.503 32.964 218.618 31.6119C219.69 33.5109 220.226 35.6661 220.17 37.8469L214.694 40.9935ZM214.694 34.1917V28.9667C215.384 29.056 216.05 29.2827 216.651 29.6334C217.253 29.984 217.779 30.4517 218.197 31.0087C217.188 32.2423 216.003 33.3197 214.679 34.2062L214.694 34.1917ZM213.969 34.6277C212.923 35.2443 211.743 35.5937 210.531 35.6451C211.418 33.4857 212.573 31.447 213.969 29.5772V34.6277ZM210.248 36.3645H210.436C211.672 36.3276 212.882 36.0016 213.969 35.4125V41.415L208.5 44.5834C208.626 41.7714 209.214 38.9994 210.241 36.379L210.248 36.3645ZM213.969 42.2362V48.1878C212.482 49.1199 211.155 50.2854 210.037 51.6396C208.962 49.7419 208.426 47.5858 208.485 45.4046L213.969 42.2362ZM213.969 49.038V54.2848C213.277 54.1964 212.61 53.9702 212.007 53.6195C211.404 53.2688 210.878 52.8007 210.458 52.2428C211.464 51.0138 212.645 49.939 213.961 49.0526L213.969 49.038ZM214.694 48.602C215.738 47.9887 216.916 47.6395 218.125 47.5846C217.239 49.7432 216.087 51.7818 214.694 53.6525V48.602ZM220.881 38.2394L223.732 36.597C223.519 40.3915 222.426 44.084 220.54 47.3812C220.099 47.1708 219.63 47.024 219.147 46.9452C220.211 44.1674 220.792 41.228 220.867 38.2539L220.881 38.2394ZM223.746 35.7613L220.845 37.4255C220.85 35.1639 220.235 32.9444 219.068 31.0087C219.689 30.2205 220.258 29.3927 220.772 28.5307C222.622 29.7879 223.688 32.3749 223.732 35.7759L223.746 35.7613ZM220.185 28.1674C219.718 28.945 219.207 29.6947 218.654 30.4129C217.845 29.4079 216.733 28.6917 215.485 28.3709C216.344 27.9769 217.274 27.7642 218.219 27.7459C218.893 27.7489 219.559 27.8976 220.17 28.1819L220.185 28.1674ZM212.663 30.1803C211.506 31.8785 210.533 33.6959 209.762 35.6015C209.307 35.5469 208.864 35.4193 208.449 35.2236C209.569 33.3314 210.987 31.6332 212.649 30.1949L212.663 30.1803ZM204.924 47.4756L207.789 45.8115C207.779 48.0738 208.394 50.2947 209.566 52.2282C208.945 53.0165 208.376 53.8442 207.861 54.7063C206.012 53.4854 204.953 50.862 204.909 47.4902L204.924 47.4756ZM208.485 55.0623C208.949 54.2872 209.458 53.5399 210.008 52.8241C210.811 53.8289 211.919 54.5434 213.164 54.8589C212.443 55.2317 211.651 55.4442 210.841 55.4819C210.031 55.5195 209.222 55.3813 208.471 55.0769L208.485 55.0623ZM215.978 53.0421C217.139 51.3438 218.112 49.5236 218.879 47.6137C219.333 47.6717 219.776 47.7992 220.192 47.9916C219.075 49.8965 217.651 51.6031 215.978 53.0421Z" fill="white"/>
</svg>
